G04 DipTrace 3.2.0.1*
G04 BotSilk.gbr*
%MOIN*%
G04 #@! TF.FileFunction,Legend,Bot*
G04 #@! TF.Part,Single*
%ADD10C,0.009843*%
%ADD22C,0.019688*%
%ADD32C,0.015403*%
%ADD35C,0.01541*%
%ADD40C,0.015402*%
%ADD52C,0.011714*%
%ADD65C,0.023613*%
%ADD67C,0.023631*%
%ADD77C,0.015422*%
%ADD176C,0.006176*%
%FSLAX26Y26*%
G04*
G70*
G90*
G75*
G01*
G04 BotSilk*
%LPD*%
X5151969Y4023654D2*
D10*
Y4086583D1*
X5159417Y4023654D2*
Y4086583D1*
Y4023654D2*
X5135858D1*
X5159417Y4086583D2*
X5135858D1*
X5397606Y3957087D2*
X5334677D1*
X5397606Y3964535D2*
X5334677D1*
X5397606D2*
Y3940976D1*
X5334677Y3964535D2*
Y3940976D1*
X5690913Y2585039D2*
X5627984D1*
X5690913Y2592488D2*
X5627984D1*
X5690913D2*
Y2568929D1*
X5627984Y2592488D2*
Y2568929D1*
D22*
X5769685Y2696851D3*
X5824803Y2592514D2*
D10*
Y2572831D1*
X5714567Y2592514D2*
Y2572831D1*
X5366173Y3601969D2*
X5429102D1*
X5366173Y3594520D2*
X5429102D1*
X5366173D2*
Y3618079D1*
X5429102Y3594520D2*
Y3618079D1*
X5480346Y3273228D2*
X5543276D1*
X5480346Y3265780D2*
X5543276D1*
X5480346D2*
Y3289339D1*
X5543276Y3265780D2*
Y3289339D1*
X4592488Y3559449D2*
X4529559D1*
X4592488Y3566898D2*
X4529559D1*
X4592488D2*
Y3543339D1*
X4529559Y3566898D2*
Y3543339D1*
X4586583Y3374409D2*
X4523654D1*
X4586583Y3381858D2*
X4523654D1*
X4586583D2*
Y3358299D1*
X4523654Y3381858D2*
Y3358299D1*
X3248425Y2633890D2*
Y2696819D1*
X3255874Y2633890D2*
Y2696819D1*
Y2633890D2*
X3232315D1*
X3255874Y2696819D2*
X3232315D1*
X3720504Y2680709D2*
X3783433D1*
X3720504Y2673260D2*
X3783433D1*
X3720504D2*
Y2696819D1*
X3783433Y2673260D2*
Y2696819D1*
X3437370Y3039862D2*
X3374441D1*
X3437370Y3047311D2*
X3374441D1*
X3437370D2*
Y3023752D1*
X3374441Y3047311D2*
Y3023752D1*
X3575165Y3039862D2*
X3512236D1*
X3575165Y3047311D2*
X3512236D1*
X3575165D2*
Y3023752D1*
X3512236Y3047311D2*
Y3023752D1*
X3374441Y3297686D2*
X3437370D1*
X3374441Y3290238D2*
X3437370D1*
X3374441D2*
Y3313797D1*
X3437370Y3290238D2*
Y3313797D1*
X3512236Y3297686D2*
X3575165D1*
X3512236Y3290238D2*
X3575165D1*
X3512236D2*
Y3313797D1*
X3575165Y3290238D2*
Y3313797D1*
D22*
X2899606Y3222442D3*
X2954724Y3118104D2*
D10*
Y3098421D1*
X2844488Y3118104D2*
Y3098421D1*
D22*
X3043701Y3222737D3*
X3098819Y3118400D2*
D10*
Y3098717D1*
X2988583Y3118400D2*
Y3098717D1*
X5531465Y4228740D2*
X5468535D1*
X5531465Y4236189D2*
X5468535D1*
X5531465D2*
Y4212630D1*
X5468535Y4236189D2*
Y4212630D1*
X4877559Y3098394D2*
Y3035465D1*
X4870110Y3098394D2*
Y3035465D1*
Y3098394D2*
X4893669D1*
X4870110Y3035465D2*
X4893669D1*
X4877559Y3015717D2*
Y2952787D1*
X4870110Y3015717D2*
Y2952787D1*
Y3015717D2*
X4893669D1*
X4870110Y2952787D2*
X4893669D1*
X2866173Y4019291D2*
X2929102D1*
X2866173Y4011843D2*
X2929102D1*
X2866173D2*
Y4035402D1*
X2929102Y4011843D2*
Y4035402D1*
X3344094Y955031D2*
Y1017961D1*
X3351543Y955031D2*
Y1017961D1*
Y955031D2*
X3327984D1*
X3351543Y1017961D2*
X3327984D1*
X3342598Y1040827D2*
Y1103756D1*
X3350047Y1040827D2*
Y1103756D1*
Y1040827D2*
X3326488D1*
X3350047Y1103756D2*
X3326488D1*
D22*
X1749951Y1616488D3*
X1805070Y1512150D2*
D10*
Y1492467D1*
X1694833Y1512150D2*
Y1492467D1*
D22*
X1508929Y1098132D3*
X1564047Y993795D2*
D10*
Y974112D1*
X1453811Y993795D2*
Y974112D1*
X1009341Y1084572D2*
Y1147501D1*
X1016790Y1084572D2*
Y1147501D1*
Y1084572D2*
X993231D1*
X1016790Y1147501D2*
X993231D1*
D22*
X2624951Y1697737D3*
X2680069Y1593400D2*
D10*
Y1573717D1*
X2569833Y1593400D2*
Y1573717D1*
D22*
X2380992Y1099817D3*
X2436110Y995480D2*
D10*
Y975797D1*
X2325874Y995480D2*
Y975797D1*
X1892913Y1115436D2*
Y1178365D1*
X1900362Y1115436D2*
Y1178365D1*
Y1115436D2*
X1876803D1*
X1900362Y1178365D2*
X1876803D1*
D22*
X1070866Y3261812D3*
X1125984Y3157474D2*
D10*
Y3137791D1*
X1015748Y3157474D2*
Y3137791D1*
X5348315Y1017559D2*
X5285386D1*
X5348315Y1025008D2*
X5285386D1*
X5348315D2*
Y1001449D1*
X5285386Y1025008D2*
Y1001449D1*
X1844520Y2348031D2*
X1907449D1*
X1844520Y2340583D2*
X1907449D1*
X1844520D2*
Y2364142D1*
X1907449Y2340583D2*
Y2364142D1*
X5294480Y1564764D2*
X5357409D1*
X5294480Y1557315D2*
X5357409D1*
X5294480D2*
Y1580874D1*
X5357409Y1557315D2*
Y1580874D1*
D32*
X3207030Y3272955D3*
X3208069Y3362205D2*
D10*
X2948240D1*
X3208069Y3472441D2*
X2948240D1*
Y3362205D2*
Y3472441D1*
X3208069Y3362205D2*
Y3472441D1*
X1654336Y4055139D2*
X1394493D1*
X1654336Y4330728D2*
Y4055139D1*
Y4330728D2*
X1646470D1*
X1394493D2*
Y4055139D1*
Y4330728D2*
X1402359D1*
D35*
X1653402Y3940193D3*
D40*
X2988082Y4146098D3*
X2992771Y4109154D2*
D10*
X3106940D1*
Y4077657D1*
X2992771D1*
Y4109154D1*
X2891302Y1423218D2*
X2903016Y1411475D1*
X2891302Y1568956D2*
X2903016D1*
X2891302D2*
Y1557212D1*
X3048793Y1568956D2*
Y1557212D1*
Y1568956D2*
X3037079D1*
X3048793Y1411475D2*
Y1423218D1*
Y1411475D2*
X3037079D1*
D52*
X2855726Y1441026D3*
X1123552Y1475687D2*
D10*
X1532999D1*
X1123552Y1223720D2*
X1532999D1*
Y1475687D2*
Y1223720D1*
X1123552Y1475687D2*
Y1381210D1*
Y1318196D2*
Y1223720D1*
Y1381210D2*
G02X1123552Y1318196I-21J-31507D01*
G01*
X1995056Y1481936D2*
X2404503D1*
X1995056Y1229969D2*
X2404503D1*
Y1481936D2*
Y1229969D1*
X1995056Y1481936D2*
Y1387460D1*
Y1324446D2*
Y1229969D1*
Y1387460D2*
G02X1995056Y1324446I-21J-31507D01*
G01*
X3259869Y2775559D2*
X3228369D1*
X3259869Y2830677D2*
X3228369D1*
X3767748Y3267743D2*
Y3236243D1*
X3712630Y3267743D2*
Y3236243D1*
X3281469Y2419323D2*
X3312969D1*
X3281469Y2364205D2*
X3312969D1*
X1431129Y3301150D2*
X1399629D1*
X1431129Y3356268D2*
X1399629D1*
X1185013Y3850425D2*
X1216513D1*
X1185013Y3795307D2*
X1216513D1*
X2885854Y4181071D2*
X2854354D1*
X2885854Y4236189D2*
X2854354D1*
X1643352Y1731749D2*
Y1700249D1*
X1588234Y1731749D2*
Y1700249D1*
X2527320Y1728938D2*
Y1697438D1*
X2472202Y1728938D2*
Y1697438D1*
X2204698Y2488220D2*
X2236198D1*
X2204698Y2433102D2*
X2236198D1*
X3948787Y4307118D2*
X3925228D1*
X3948787Y4370047D2*
X3925228D1*
X3555150Y2419260D2*
X3578709D1*
X3555150Y2356331D2*
X3578709D1*
X2812961Y1761780D2*
Y1738220D1*
X2750031Y1761780D2*
Y1738220D1*
X3968472Y3877921D2*
Y3854362D1*
X3905543Y3877921D2*
Y3854362D1*
X2673604Y4503870D2*
Y4527429D1*
X2736533Y4503870D2*
Y4527429D1*
X2575362Y4315436D2*
X2551803D1*
X2575362Y4378365D2*
X2551803D1*
X3114835Y1202630D2*
Y1226189D1*
X3177764Y1202630D2*
Y1226189D1*
X2975386Y1202630D2*
Y1226189D1*
X3038315Y1202630D2*
Y1226189D1*
X2835937Y1202630D2*
Y1226189D1*
X2898866Y1202630D2*
Y1226189D1*
X2696488Y1202630D2*
Y1226189D1*
X2759417Y1202630D2*
Y1226189D1*
X2986528Y726937D2*
X3010087D1*
X2986528Y664008D2*
X3010087D1*
X3547709Y1541210D2*
X3571268D1*
X3547709Y1478281D2*
X3571268D1*
X3547709Y1816181D2*
X3571268D1*
X3547709Y1753252D2*
X3571268D1*
X3547709Y1678696D2*
X3571268D1*
X3547709Y1615766D2*
X3571268D1*
X3547709Y1266239D2*
X3571268D1*
X3547709Y1203310D2*
X3571268D1*
X3547709Y1403724D2*
X3571268D1*
X3547709Y1340795D2*
X3571268D1*
X2814992Y3866110D2*
X2838551D1*
X2814992Y3803181D2*
X2838551D1*
X2724441Y4011843D2*
Y4035402D1*
X2787370Y4011843D2*
Y4035402D1*
X2679102Y4039339D2*
Y4015780D1*
X2616173Y4039339D2*
Y4015780D1*
X2962399Y560252D2*
Y536693D1*
X2899470Y560252D2*
Y536693D1*
X2957449Y764047D2*
X2933890D1*
X2957449Y826976D2*
X2933890D1*
X3062388Y560252D2*
Y536693D1*
X2999459Y560252D2*
Y536693D1*
X1305031Y975268D2*
Y998827D1*
X1367961Y975268D2*
Y998827D1*
X986982Y785039D2*
X1010541D1*
X986982Y722110D2*
X1010541D1*
X1225081Y997706D2*
Y974147D1*
X1162152Y997706D2*
Y974147D1*
X1474430Y785039D2*
X1497990D1*
X1474430Y722110D2*
X1497990D1*
X1263945Y1649244D2*
X1240386D1*
X1263945Y1712173D2*
X1240386D1*
X4187984Y978299D2*
Y1001858D1*
X4250913Y978299D2*
Y1001858D1*
X4187984Y778220D2*
Y801780D1*
X4250913Y778220D2*
Y801780D1*
X1256517Y722110D2*
X1232958D1*
X1256517Y785039D2*
X1232958D1*
X3621094Y978299D2*
Y1001858D1*
X3684024Y978299D2*
Y1001858D1*
X3682301Y801819D2*
Y778260D1*
X3619371Y801819D2*
Y778260D1*
X4330465Y978299D2*
Y1001858D1*
X4393394Y978299D2*
Y1001858D1*
X4330465Y778220D2*
Y801780D1*
X4393394Y778220D2*
Y801780D1*
X3930307Y978299D2*
Y1001858D1*
X3993236Y978299D2*
Y1001858D1*
X3994092Y800865D2*
Y777306D1*
X3931163Y800865D2*
Y777306D1*
X2187045Y965646D2*
Y989205D1*
X2249974Y965646D2*
Y989205D1*
X4611790Y778165D2*
Y801724D1*
X4674719Y778165D2*
Y801724D1*
X4612394Y978299D2*
Y1001858D1*
X4675323Y978299D2*
Y1001858D1*
X4473178Y777039D2*
Y800598D1*
X4536108Y777039D2*
Y800598D1*
X1855640Y785039D2*
X1879199D1*
X1855640Y722110D2*
X1879199D1*
X2106239Y985207D2*
Y961648D1*
X2043310Y985207D2*
Y961648D1*
X2343089Y785039D2*
X2366648D1*
X2343089Y722110D2*
X2366648D1*
X4899736Y777738D2*
Y801297D1*
X4962665Y777738D2*
Y801297D1*
X4900386Y978299D2*
Y1001858D1*
X4963315Y978299D2*
Y1001858D1*
X4755525Y778165D2*
Y801724D1*
X4818454Y778165D2*
Y801724D1*
X2129850Y1646213D2*
X2106291D1*
X2129850Y1709142D2*
X2106291D1*
X4473496Y977748D2*
Y1001307D1*
X4536425Y977748D2*
Y1001307D1*
X4754874Y978299D2*
Y1001858D1*
X4817803Y978299D2*
Y1001858D1*
X2131425Y722110D2*
X2107866D1*
X2131425Y785039D2*
X2107866D1*
X2446882Y3039402D2*
Y3062961D1*
X2509811Y3039402D2*
Y3062961D1*
X1917980Y435317D2*
X1894421D1*
X1917980Y498246D2*
X1894421D1*
X2319112Y434185D2*
X2295553D1*
X2319112Y497114D2*
X2295553D1*
X1050362Y446685D2*
X1026803D1*
X1050362Y509614D2*
X1026803D1*
X1450362Y440435D2*
X1426803D1*
X1450362Y503364D2*
X1426803D1*
X1718507Y2704721D2*
Y2881893D1*
X1576771Y2704721D2*
Y2881893D1*
X1718507D2*
X1708657D1*
X1718507Y2704721D2*
X1708657D1*
X1586622Y2881893D2*
X1576771D1*
X1586622Y2704721D2*
X1576771D1*
D65*
X1647639Y2632879D3*
X5503744Y1381736D2*
D10*
X5326572D1*
X5503744Y1239999D2*
X5326572D1*
Y1381736D2*
Y1371885D1*
X5503744Y1381736D2*
Y1371885D1*
X5326572Y1249850D2*
Y1239999D1*
X5503744Y1249850D2*
Y1239999D1*
D67*
X5575586Y1310867D3*
X3707951Y782842D2*
D10*
X3904805D1*
X3707951Y680465D2*
X3904805D1*
Y782842D2*
Y680465D1*
X3707951Y751348D2*
Y782842D1*
Y711959D2*
Y680465D1*
Y751348D2*
G02X3707951Y711959I-9J-19694D01*
G01*
X6055512Y2477165D2*
X5855512D1*
Y3996850D1*
X6055512D1*
Y2477165D1*
X3986270Y3182011D2*
Y3292005D1*
X4311260Y3287002D2*
G03X4301241Y3297007I-10020J-16D01*
G01*
Y3177009D2*
G03X4311260Y3187013I-2J10020D01*
G01*
Y3287002D1*
X3986270Y3292005D2*
X4001257D1*
Y3297007D2*
Y3292005D1*
Y3297007D2*
X4301241D1*
X3986270Y3182011D2*
X4001257D1*
Y3177009D2*
Y3182011D1*
Y3177009D2*
X4301241D1*
X4001257Y3292005D2*
Y3182011D1*
D77*
X3593226Y2836608D3*
X3567013Y2520000D2*
D10*
Y2506299D1*
X3433047Y2520000D2*
Y2506299D1*
X3567013D2*
X3433047D1*
X3567013Y2736472D2*
Y2618646D1*
X3433047Y2736472D2*
Y2618646D1*
Y2848819D2*
Y2835118D1*
X3567013Y2848819D2*
Y2835118D1*
Y2848819D2*
X3433047D1*
X5152863Y4139579D2*
D176*
X5154764Y4143382D1*
X5158611Y4147228D1*
X5162413Y4149130D1*
X5170063D1*
X5173909Y4147228D1*
X5177712Y4143382D1*
X5179658Y4139579D1*
X5181559Y4133831D1*
Y4124236D1*
X5179658Y4118532D1*
X5177712Y4114686D1*
X5173909Y4110883D1*
X5170063Y4108938D1*
X5162413D1*
X5158611Y4110883D1*
X5154764Y4114686D1*
X5152863Y4118532D1*
X5136665Y4149085D2*
X5115662D1*
X5127114Y4133787D1*
X5121366D1*
X5117564Y4131886D1*
X5115662Y4129984D1*
X5113717Y4124236D1*
Y4120434D1*
X5115662Y4114686D1*
X5119465Y4110839D1*
X5125213Y4108938D1*
X5130961D1*
X5136665Y4110839D1*
X5138566Y4112784D1*
X5140511Y4116587D1*
X5281681Y3958932D2*
X5277878Y3960833D1*
X5274032Y3964680D1*
X5272130Y3968482D1*
Y3976132D1*
X5274032Y3979978D1*
X5277878Y3983781D1*
X5281681Y3985726D1*
X5287429Y3987628D1*
X5297024D1*
X5302727Y3985726D1*
X5306574Y3983781D1*
X5310377Y3979978D1*
X5312322Y3976131D1*
Y3968482D1*
X5310377Y3964680D1*
X5306574Y3960833D1*
X5302727Y3958932D1*
X5312322Y3927435D2*
X5272174D1*
X5298925Y3946580D1*
Y3917884D1*
X5574988Y2585934D2*
X5571185Y2587835D1*
X5567339Y2591682D1*
X5565437Y2595484D1*
Y2603134D1*
X5567339Y2606980D1*
X5571185Y2610783D1*
X5574988Y2612728D1*
X5580736Y2614630D1*
X5590331D1*
X5596035Y2612728D1*
X5599881Y2610783D1*
X5603684Y2606980D1*
X5605629Y2603134D1*
Y2595484D1*
X5603684Y2591682D1*
X5599881Y2587835D1*
X5596035Y2585934D1*
X5565482Y2550635D2*
Y2569736D1*
X5582681Y2571637D1*
X5580780Y2569736D1*
X5578835Y2563988D1*
Y2558284D1*
X5580780Y2552536D1*
X5584583Y2548689D1*
X5590331Y2546788D1*
X5594133D1*
X5599881Y2548689D1*
X5603728Y2552536D1*
X5605629Y2558284D1*
Y2563988D1*
X5603728Y2569736D1*
X5601783Y2571637D1*
X5597980Y2573582D1*
X5773937Y2755721D2*
X5775839Y2759523D1*
X5779685Y2763370D1*
X5783488Y2765271D1*
X5791137D1*
X5794984Y2763370D1*
X5798787Y2759523D1*
X5800732Y2755721D1*
X5802633Y2749973D1*
Y2740378D1*
X5800732Y2734674D1*
X5798787Y2730827D1*
X5794984Y2727025D1*
X5791137Y2725079D1*
X5783488D1*
X5779685Y2727025D1*
X5775839Y2730827D1*
X5773937Y2734674D1*
X5738638Y2759523D2*
X5740539Y2763326D1*
X5746287Y2765227D1*
X5750090D1*
X5755838Y2763326D1*
X5759685Y2757578D1*
X5761586Y2748027D1*
Y2738477D1*
X5759685Y2730827D1*
X5755838Y2726981D1*
X5750090Y2725079D1*
X5748189D1*
X5742485Y2726981D1*
X5738638Y2730827D1*
X5736737Y2736575D1*
Y2738477D1*
X5738638Y2744225D1*
X5742485Y2748027D1*
X5748189Y2749929D1*
X5750090D1*
X5755838Y2748027D1*
X5759685Y2744225D1*
X5761586Y2738477D1*
X5313177Y3611524D2*
X5309374Y3613426D1*
X5305528Y3617272D1*
X5303626Y3621075D1*
Y3628724D1*
X5305528Y3632571D1*
X5309374Y3636374D1*
X5313177Y3638319D1*
X5318925Y3640220D1*
X5328520D1*
X5334224Y3638319D1*
X5338070Y3636373D1*
X5341873Y3632571D1*
X5343818Y3628724D1*
Y3621075D1*
X5341873Y3617272D1*
X5338070Y3613426D1*
X5334224Y3611524D1*
X5343818Y3591524D2*
X5303670Y3572378D1*
X5303671Y3599173D1*
X5427350Y3282762D2*
X5423548Y3284663D1*
X5419701Y3288510D1*
X5417800Y3292313D1*
Y3299962D1*
X5419701Y3303809D1*
X5423548Y3307611D1*
X5427350Y3309557D1*
X5433098Y3311458D1*
X5442693D1*
X5448397Y3309557D1*
X5452244Y3307611D1*
X5456046Y3303809D1*
X5457992Y3299962D1*
Y3292313D1*
X5456046Y3288510D1*
X5452244Y3284663D1*
X5448397Y3282762D1*
X5417844Y3260860D2*
X5419745Y3266564D1*
X5423548Y3268509D1*
X5427394D1*
X5431197Y3266564D1*
X5433142Y3262761D1*
X5435044Y3255112D1*
X5436945Y3249364D1*
X5440792Y3245562D1*
X5444594Y3243660D1*
X5450342D1*
X5454145Y3245562D1*
X5456090Y3247463D1*
X5457992Y3253211D1*
Y3260860D1*
X5456090Y3266564D1*
X5454145Y3268509D1*
X5450342Y3270411D1*
X5444594D1*
X5440792Y3268509D1*
X5436945Y3264663D1*
X5435044Y3258959D1*
X5433142Y3251310D1*
X5431197Y3247463D1*
X5427394Y3245562D1*
X5423548D1*
X5419745Y3247463D1*
X5417844Y3253211D1*
Y3260860D1*
X4476563Y3571316D2*
X4472760Y3573218D1*
X4468913Y3577064D1*
X4467012Y3580867D1*
Y3588516D1*
X4468913Y3592363D1*
X4472760Y3596165D1*
X4476563Y3598111D1*
X4482311Y3600012D1*
X4491906D1*
X4497609Y3598111D1*
X4501456Y3596165D1*
X4505259Y3592363D1*
X4507204Y3588516D1*
Y3580867D1*
X4505259Y3577064D1*
X4501456Y3573218D1*
X4497609Y3571316D1*
X4474706Y3558965D2*
X4472760Y3555118D1*
X4467056Y3549370D1*
X4507204D1*
X4467056Y3525523D2*
X4468958Y3531271D1*
X4474706Y3535118D1*
X4484256Y3537019D1*
X4490004D1*
X4499555Y3535117D1*
X4505303Y3531271D1*
X4507204Y3525523D1*
Y3521720D1*
X4505303Y3515972D1*
X4499555Y3512170D1*
X4490004Y3510224D1*
X4484256D1*
X4474706Y3512170D1*
X4468958Y3515972D1*
X4467056Y3521720D1*
Y3525523D1*
X4474706Y3512170D2*
X4499555Y3535117D1*
X4470657Y3377677D2*
X4466855Y3379578D1*
X4463008Y3383425D1*
X4461107Y3387228D1*
Y3394877D1*
X4463008Y3398724D1*
X4466855Y3402526D1*
X4470657Y3404472D1*
X4476405Y3406373D1*
X4486000D1*
X4491704Y3404472D1*
X4495551Y3402526D1*
X4499353Y3398724D1*
X4501299Y3394877D1*
Y3387228D1*
X4499353Y3383425D1*
X4495551Y3379578D1*
X4491704Y3377677D1*
X4468800Y3365326D2*
X4466855Y3361479D1*
X4461151Y3355731D1*
X4501299D1*
X4468800Y3343379D2*
X4466855Y3339533D1*
X4461151Y3333785D1*
X4501299D1*
X3260293Y2749815D2*
X3262194Y2753618D1*
X3266041Y2757465D1*
X3269843Y2759366D1*
X3277493D1*
X3281339Y2757465D1*
X3285142Y2753618D1*
X3287087Y2749815D1*
X3288989Y2744067D1*
Y2734472D1*
X3287087Y2728769D1*
X3285142Y2724922D1*
X3281339Y2721119D1*
X3277493Y2719174D1*
X3269843D1*
X3266041Y2721119D1*
X3262194Y2724922D1*
X3260293Y2728769D1*
X3247941Y2751672D2*
X3244094Y2753618D1*
X3238346Y2759322D1*
Y2719174D1*
X3203047Y2759322D2*
X3222148D1*
X3224050Y2742122D1*
X3222148Y2744023D1*
X3216400Y2745969D1*
X3210696D1*
X3204948Y2744023D1*
X3201102Y2740220D1*
X3199200Y2734472D1*
Y2730670D1*
X3201102Y2724922D1*
X3204948Y2721075D1*
X3210696Y2719174D1*
X3216400D1*
X3222148Y2721075D1*
X3224050Y2723021D1*
X3225995Y2726823D1*
X3667508Y2700265D2*
X3663705Y2702166D1*
X3659858Y2706013D1*
X3657957Y2709815D1*
Y2717465D1*
X3659858Y2721311D1*
X3663705Y2725114D1*
X3667508Y2727059D1*
X3673256Y2728961D1*
X3682850D1*
X3688554Y2727059D1*
X3692401Y2725114D1*
X3696204Y2721311D1*
X3698149Y2717465D1*
Y2709815D1*
X3696204Y2706013D1*
X3692401Y2702166D1*
X3688554Y2700265D1*
X3665651Y2687913D2*
X3663705Y2684067D1*
X3658001Y2678319D1*
X3698149D1*
X3663705Y2643019D2*
X3659902Y2644921D1*
X3658001Y2650669D1*
Y2654471D1*
X3659903Y2660219D1*
X3665651Y2664066D1*
X3675201Y2665967D1*
X3684752D1*
X3692401Y2664066D1*
X3696248Y2660219D1*
X3698149Y2654471D1*
Y2652570D1*
X3696248Y2646866D1*
X3692401Y2643019D1*
X3686653Y2641118D1*
X3684752D1*
X3679004Y2643019D1*
X3675201Y2646866D1*
X3673300Y2652570D1*
Y2654471D1*
X3675201Y2660219D1*
X3679004Y2664066D1*
X3684752Y2665967D1*
X3321445Y3051708D2*
X3317642Y3053609D1*
X3313795Y3057456D1*
X3311894Y3061258D1*
Y3068907D1*
X3313795Y3072754D1*
X3317642Y3076557D1*
X3321445Y3078502D1*
X3327193Y3080404D1*
X3336787D1*
X3342491Y3078502D1*
X3346338Y3076557D1*
X3350141Y3072754D1*
X3352086Y3068907D1*
Y3061258D1*
X3350141Y3057456D1*
X3346338Y3053609D1*
X3342491Y3051708D1*
X3319588Y3039356D2*
X3317642Y3035509D1*
X3311938Y3029761D1*
X3352086D1*
X3311938Y3007860D2*
X3313840Y3013563D1*
X3317642Y3015509D1*
X3321489D1*
X3325291Y3013563D1*
X3327237Y3009761D1*
X3329138Y3002111D1*
X3331039Y2996363D1*
X3334886Y2992561D1*
X3338689Y2990660D1*
X3344437D1*
X3348239Y2992561D1*
X3350185Y2994462D1*
X3352086Y3000210D1*
Y3007859D1*
X3350185Y3013563D1*
X3348239Y3015509D1*
X3344437Y3017410D1*
X3338689D1*
X3334886Y3015509D1*
X3331039Y3011662D1*
X3329138Y3005958D1*
X3327237Y2998309D1*
X3325291Y2994462D1*
X3321489Y2992561D1*
X3317642D1*
X3313839Y2994462D1*
X3311938Y3000210D1*
Y3007860D1*
X3459240Y3050779D2*
X3455437Y3052680D1*
X3451591Y3056527D1*
X3449689Y3060330D1*
Y3067979D1*
X3451591Y3071826D1*
X3455437Y3075628D1*
X3459240Y3077574D1*
X3464988Y3079475D1*
X3474583D1*
X3480287Y3077574D1*
X3484133Y3075628D1*
X3487936Y3071826D1*
X3489881Y3067979D1*
Y3060330D1*
X3487936Y3056527D1*
X3484133Y3052680D1*
X3480287Y3050779D1*
X3457383Y3038428D2*
X3455437Y3034581D1*
X3449734Y3028833D1*
X3489881D1*
X3463087Y2991588D2*
X3468835Y2993534D1*
X3472681Y2997336D1*
X3474583Y3003084D1*
Y3004985D1*
X3472681Y3010733D1*
X3468835Y3014536D1*
X3463087Y3016482D1*
X3461185D1*
X3455437Y3014536D1*
X3451635Y3010734D1*
X3449734Y3004985D1*
X3449733Y3003084D1*
X3451635Y2997336D1*
X3455437Y2993534D1*
X3463087Y2991588D1*
X3472681D1*
X3482232Y2993534D1*
X3487980Y2997336D1*
X3489881Y3003084D1*
Y3006887D1*
X3487980Y3012635D1*
X3484133Y3014536D1*
X3321445Y3326815D2*
X3317642Y3328716D1*
X3313795Y3332563D1*
X3311894Y3336366D1*
Y3344015D1*
X3313795Y3347862D1*
X3317642Y3351664D1*
X3321445Y3353610D1*
X3327193Y3355511D1*
X3336787D1*
X3342491Y3353610D1*
X3346338Y3351664D1*
X3350141Y3347862D1*
X3352086Y3344015D1*
Y3336366D1*
X3350141Y3332563D1*
X3346338Y3328716D1*
X3342491Y3326815D1*
X3321489Y3312518D2*
X3319588D1*
X3315741Y3310617D1*
X3313840Y3308716D1*
X3311938Y3304869D1*
Y3297220D1*
X3313840Y3293417D1*
X3315741Y3291516D1*
X3319588Y3289570D1*
X3323390D1*
X3327237Y3291516D1*
X3332941Y3295318D1*
X3352086Y3314464D1*
Y3287669D1*
X3311938Y3263822D2*
X3313840Y3269570D1*
X3319588Y3273417D1*
X3329138Y3275318D1*
X3334886D1*
X3344437Y3273416D1*
X3350185Y3269570D1*
X3352086Y3263822D1*
Y3260019D1*
X3350185Y3254271D1*
X3344437Y3250469D1*
X3334886Y3248523D1*
X3329138D1*
X3319588Y3250469D1*
X3313839Y3254271D1*
X3311938Y3260019D1*
Y3263822D1*
X3319588Y3250469D2*
X3344437Y3273416D1*
X3459240Y3318215D2*
X3455437Y3320117D1*
X3451591Y3323963D1*
X3449689Y3327766D1*
Y3335415D1*
X3451591Y3339262D1*
X3455437Y3343064D1*
X3459240Y3345010D1*
X3464988Y3346911D1*
X3474583D1*
X3480287Y3345010D1*
X3484133Y3343064D1*
X3487936Y3339262D1*
X3489881Y3335415D1*
Y3327766D1*
X3487936Y3323963D1*
X3484133Y3320117D1*
X3480287Y3318215D1*
X3459284Y3303918D2*
X3457383D1*
X3453536Y3302017D1*
X3451635Y3300116D1*
X3449734Y3296269D1*
Y3288620D1*
X3451635Y3284817D1*
X3453536Y3282916D1*
X3457383Y3280971D1*
X3461185D1*
X3465032Y3282916D1*
X3470736Y3286719D1*
X3489881Y3305864D1*
Y3279069D1*
X3457383Y3266718D2*
X3455437Y3262871D1*
X3449733Y3257123D1*
X3489881D1*
X2795460Y3148814D2*
X2791658Y3150715D1*
X2787811Y3154562D1*
X2785910Y3158364D1*
Y3166014D1*
X2787811Y3169861D1*
X2791658Y3173663D1*
X2795460Y3175609D1*
X2801208Y3177510D1*
X2810803D1*
X2816507Y3175609D1*
X2820354Y3173663D1*
X2824156Y3169860D1*
X2826102Y3166014D1*
Y3158364D1*
X2824156Y3154562D1*
X2820354Y3150715D1*
X2816507Y3148814D1*
X2795505Y3134517D2*
X2793603D1*
X2789757Y3132616D1*
X2787855Y3130714D1*
X2785954Y3126868D1*
Y3119218D1*
X2787855Y3115416D1*
X2789757Y3113515D1*
X2793603Y3111569D1*
X2797406D1*
X2801253Y3113515D1*
X2806956Y3117317D1*
X2826102Y3136462D1*
Y3109668D1*
X2795505Y3095371D2*
X2793603D1*
X2789757Y3093470D1*
X2787855Y3091568D1*
X2785954Y3087722D1*
Y3080072D1*
X2787855Y3076270D1*
X2789756Y3074369D1*
X2793603Y3072423D1*
X2797406D1*
X2801253Y3074369D1*
X2806956Y3078171D1*
X2826102Y3097316D1*
Y3070522D1*
X3126563Y3155015D2*
X3122760Y3156916D1*
X3118913Y3160763D1*
X3117012Y3164565D1*
Y3172215D1*
X3118913Y3176061D1*
X3122760Y3179864D1*
X3126563Y3181809D1*
X3132311Y3183711D1*
X3141906D1*
X3147609Y3181809D1*
X3151456Y3179864D1*
X3155259Y3176061D1*
X3157204Y3172215D1*
Y3164565D1*
X3155259Y3160763D1*
X3151456Y3156916D1*
X3147609Y3155015D1*
X3126607Y3140718D2*
X3124706D1*
X3120859Y3138817D1*
X3118958Y3136915D1*
X3117056Y3133069D1*
Y3125419D1*
X3118958Y3121617D1*
X3120859Y3119715D1*
X3124706Y3117770D1*
X3128508D1*
X3132355Y3119715D1*
X3138059Y3123518D1*
X3157204Y3142663D1*
Y3115869D1*
X3117056Y3099671D2*
Y3078668D1*
X3132355Y3090120D1*
Y3084372D1*
X3134256Y3080569D1*
X3136157Y3078668D1*
X3141905Y3076723D1*
X3145708D1*
X3151456Y3078668D1*
X3155303Y3082471D1*
X3157204Y3088219D1*
Y3093967D1*
X3155303Y3099670D1*
X3153357Y3101572D1*
X3149555Y3103517D1*
X5415539Y4250158D2*
X5411737Y4252059D1*
X5407890Y4255906D1*
X5405989Y4259709D1*
Y4267358D1*
X5407890Y4271205D1*
X5411737Y4275007D1*
X5415539Y4276953D1*
X5421287Y4278854D1*
X5430882D1*
X5436586Y4276953D1*
X5440432Y4275007D1*
X5444235Y4271205D1*
X5446180Y4267358D1*
Y4259709D1*
X5444235Y4255906D1*
X5440432Y4252059D1*
X5436586Y4250158D1*
X5415583Y4235861D2*
X5413682D1*
X5409835Y4233960D1*
X5407934Y4232059D1*
X5406033Y4228212D1*
Y4220563D1*
X5407934Y4216760D1*
X5409835Y4214859D1*
X5413682Y4212913D1*
X5417485D1*
X5421331Y4214859D1*
X5427035Y4218661D1*
X5446181Y4237807D1*
Y4211012D1*
Y4179515D2*
X5406033D1*
X5432783Y4198661D1*
Y4169965D1*
X4905715Y3151390D2*
X4907616Y3155193D1*
X4911463Y3159039D1*
X4915266Y3160941D1*
X4922915D1*
X4926762Y3159039D1*
X4930564Y3155193D1*
X4932510Y3151390D1*
X4934411Y3145642D1*
Y3136047D1*
X4932510Y3130343D1*
X4930564Y3126497D1*
X4926762Y3122694D1*
X4922915Y3120749D1*
X4915266D1*
X4911463Y3122694D1*
X4907616Y3126497D1*
X4905715Y3130343D1*
X4891418Y3151346D2*
Y3153247D1*
X4889517Y3157094D1*
X4887616Y3158995D1*
X4883769Y3160896D1*
X4876120D1*
X4872317Y3158995D1*
X4870416Y3157094D1*
X4868470Y3153247D1*
Y3149445D1*
X4870416Y3145598D1*
X4874218Y3139894D1*
X4893364Y3120749D1*
X4866569D1*
X4831270Y3155193D2*
X4833171Y3158995D1*
X4838919Y3160896D1*
X4842722D1*
X4848470Y3158995D1*
X4852316Y3153247D1*
X4854218Y3143697D1*
Y3134146D1*
X4852316Y3126497D1*
X4848470Y3122650D1*
X4842722Y3120749D1*
X4840820D1*
X4835117Y3122650D1*
X4831270Y3126497D1*
X4829368Y3132245D1*
Y3134146D1*
X4831270Y3139894D1*
X4835117Y3143697D1*
X4840820Y3145598D1*
X4842722D1*
X4848470Y3143697D1*
X4852316Y3139894D1*
X4854218Y3134146D1*
X4912593Y2921075D2*
X4914495Y2924878D1*
X4918341Y2928724D1*
X4922144Y2930626D1*
X4929793D1*
X4933640Y2928724D1*
X4937443Y2924878D1*
X4939388Y2921075D1*
X4941289Y2915327D1*
Y2905732D1*
X4939388Y2900028D1*
X4937443Y2896182D1*
X4933640Y2892379D1*
X4929793Y2890434D1*
X4922144D1*
X4918341Y2892379D1*
X4914495Y2896182D1*
X4912593Y2900028D1*
X4898296Y2921031D2*
Y2922932D1*
X4896395Y2926779D1*
X4894494Y2928680D1*
X4890647Y2930581D1*
X4882998D1*
X4879195Y2928680D1*
X4877294Y2926779D1*
X4875349Y2922932D1*
Y2919130D1*
X4877294Y2915283D1*
X4881097Y2909579D1*
X4900242Y2890434D1*
X4873447D1*
X4853447D2*
X4834301Y2930581D1*
X4861096D1*
X2813177Y4048420D2*
X2809374Y4050321D1*
X2805528Y4054168D1*
X2803626Y4057971D1*
Y4065620D1*
X2805528Y4069467D1*
X2809374Y4073269D1*
X2813177Y4075215D1*
X2818925Y4077116D1*
X2828520D1*
X2834224Y4075215D1*
X2838070Y4073269D1*
X2841873Y4069467D1*
X2843818Y4065620D1*
Y4057971D1*
X2841873Y4054168D1*
X2838070Y4050321D1*
X2834224Y4048420D1*
X2803671Y4032222D2*
Y4011220D1*
X2818969Y4022671D1*
Y4016923D1*
X2820870Y4013121D1*
X2822772Y4011220D1*
X2828520Y4009274D1*
X2832322D1*
X2838070Y4011220D1*
X2841917Y4015022D1*
X2843818Y4020770D1*
Y4026518D1*
X2841917Y4032222D1*
X2839972Y4034123D1*
X2836169Y4036069D1*
X2803671Y3993076D2*
X2803670Y3972074D1*
X2818969Y3983525D1*
Y3977777D1*
X2820870Y3973975D1*
X2822772Y3972074D1*
X2828520Y3970128D1*
X2832322D1*
X2838070Y3972074D1*
X2841917Y3975876D1*
X2843818Y3981624D1*
Y3987372D1*
X2841917Y3993076D1*
X2839972Y3994977D1*
X2836169Y3996923D1*
X3361530Y922414D2*
X3363432Y926216D1*
X3367278Y930063D1*
X3371081Y931964D1*
X3378730D1*
X3382577Y930063D1*
X3386380Y926216D1*
X3388325Y922414D1*
X3390226Y916666D1*
Y907071D1*
X3388325Y901367D1*
X3386380Y897520D1*
X3382577Y893718D1*
X3378730Y891772D1*
X3371081D1*
X3367278Y893718D1*
X3363432Y897520D1*
X3361530Y901367D1*
X3345332Y931920D2*
X3324330D1*
X3335782Y916621D1*
X3330034D1*
X3326231Y914720D1*
X3324330Y912819D1*
X3322384Y907071D1*
Y903268D1*
X3324330Y897520D1*
X3328132Y893674D1*
X3333880Y891772D1*
X3339628D1*
X3345332Y893674D1*
X3347233Y895619D1*
X3349179Y899422D1*
X3287085Y931920D2*
X3306186D1*
X3308087Y914720D1*
X3306186Y916621D1*
X3300438Y918567D1*
X3294734D1*
X3288986Y916621D1*
X3285140Y912819D1*
X3283238Y907071D1*
Y903268D1*
X3285140Y897520D1*
X3288986Y893674D1*
X3294734Y891772D1*
X3300438D1*
X3306186Y893674D1*
X3308087Y895619D1*
X3310033Y899422D1*
X3362115Y1156752D2*
X3364016Y1160555D1*
X3367863Y1164402D1*
X3371666Y1166303D1*
X3379315D1*
X3383162Y1164402D1*
X3386964Y1160555D1*
X3388910Y1156752D1*
X3390811Y1151004D1*
Y1141409D1*
X3388910Y1135706D1*
X3386964Y1131859D1*
X3383162Y1128056D1*
X3379315Y1126111D1*
X3371666D1*
X3367863Y1128056D1*
X3364016Y1131859D1*
X3362115Y1135706D1*
X3345917Y1166259D2*
X3324915D1*
X3336366Y1150960D1*
X3330618D1*
X3326816Y1149059D1*
X3324915Y1147158D1*
X3322969Y1141409D1*
Y1137607D1*
X3324915Y1131859D1*
X3328717Y1128012D1*
X3334465Y1126111D1*
X3340213D1*
X3345917Y1128012D1*
X3347818Y1129958D1*
X3349764Y1133760D1*
X3285724Y1152906D2*
X3287670Y1147158D1*
X3291472Y1143311D1*
X3297220Y1141409D1*
X3299122D1*
X3304870Y1143311D1*
X3308672Y1147158D1*
X3310618Y1152906D1*
Y1154807D1*
X3308672Y1160555D1*
X3304870Y1164357D1*
X3299122Y1166259D1*
X3297220D1*
X3291472Y1164357D1*
X3287670Y1160555D1*
X3285724Y1152906D1*
Y1143311D1*
X3287670Y1133760D1*
X3291472Y1128012D1*
X3297220Y1126111D1*
X3301023D1*
X3306771Y1128012D1*
X3308672Y1131859D1*
X1833286Y1537561D2*
X1829483Y1539462D1*
X1825637Y1543309D1*
X1823735Y1547112D1*
Y1554761D1*
X1825637Y1558608D1*
X1829483Y1562410D1*
X1833286Y1564356D1*
X1839034Y1566257D1*
X1848629D1*
X1854332Y1564356D1*
X1858179Y1562410D1*
X1861982Y1558608D1*
X1863927Y1554761D1*
Y1547112D1*
X1861982Y1543309D1*
X1858179Y1539462D1*
X1854332Y1537561D1*
X1863927Y1506064D2*
X1823779D1*
X1850530Y1525210D1*
Y1496514D1*
X1863927Y1476513D2*
X1823779Y1457368D1*
Y1484162D1*
X1404783Y1025433D2*
X1400981Y1027334D1*
X1397134Y1031181D1*
X1395233Y1034983D1*
Y1042633D1*
X1397134Y1046479D1*
X1400981Y1050282D1*
X1404783Y1052227D1*
X1410531Y1054129D1*
X1420126D1*
X1425830Y1052227D1*
X1429677Y1050282D1*
X1433479Y1046479D1*
X1435425Y1042633D1*
Y1034983D1*
X1433479Y1031181D1*
X1429677Y1027334D1*
X1425830Y1025433D1*
X1435425Y993936D2*
X1395277D1*
X1422027Y1013081D1*
Y984385D1*
X1395277Y962483D2*
X1397178Y968187D1*
X1400981Y970133D1*
X1404827D1*
X1408630Y968187D1*
X1410575Y964385D1*
X1412477Y956735D1*
X1414378Y950987D1*
X1418225Y947185D1*
X1422027Y945284D1*
X1427775D1*
X1431578Y947185D1*
X1433523Y949086D1*
X1435425Y954834D1*
Y962483D1*
X1433523Y968187D1*
X1431578Y970133D1*
X1427775Y972034D1*
X1422027D1*
X1418225Y970133D1*
X1414378Y966286D1*
X1412477Y960582D1*
X1410575Y952933D1*
X1408630Y949086D1*
X1404827Y947185D1*
X1400981D1*
X1397178Y949086D1*
X1395277Y954834D1*
Y962483D1*
X1029809Y1200498D2*
X1031710Y1204300D1*
X1035557Y1208147D1*
X1039359Y1210048D1*
X1047008D1*
X1050855Y1208147D1*
X1054658Y1204300D1*
X1056603Y1200498D1*
X1058505Y1194750D1*
Y1185155D1*
X1056603Y1179451D1*
X1054658Y1175604D1*
X1050855Y1171802D1*
X1047008Y1169856D1*
X1039359D1*
X1035557Y1171802D1*
X1031710Y1175604D1*
X1029809Y1179451D1*
X994509Y1210004D2*
X1013610D1*
X1015512Y1192804D1*
X1013610Y1194705D1*
X1007862Y1196651D1*
X1002159D1*
X996411Y1194705D1*
X992564Y1190903D1*
X990663Y1185155D1*
Y1181352D1*
X992564Y1175604D1*
X996411Y1171758D1*
X1002159Y1169856D1*
X1007862D1*
X1013610Y1171758D1*
X1015512Y1173703D1*
X1017457Y1177506D1*
X966815Y1210004D2*
X972563Y1208103D1*
X976410Y1202355D1*
X978311Y1192804D1*
Y1187056D1*
X976410Y1177506D1*
X972563Y1171758D1*
X966815Y1169856D1*
X963013D1*
X957264Y1171758D1*
X953462Y1177506D1*
X951516Y1187056D1*
Y1192804D1*
X953462Y1202355D1*
X957264Y1208103D1*
X963013Y1210004D1*
X966815D1*
X953462Y1202355D2*
X976410Y1177506D1*
X2708285Y1611610D2*
X2704483Y1613512D1*
X2700636Y1617359D1*
X2698735Y1621161D1*
Y1628810D1*
X2700636Y1632657D1*
X2704483Y1636460D1*
X2708285Y1638405D1*
X2714033Y1640306D1*
X2723628D1*
X2729332Y1638405D1*
X2733179Y1636460D1*
X2736981Y1632657D1*
X2738927Y1628810D1*
Y1621161D1*
X2736981Y1617358D1*
X2733179Y1613512D1*
X2729332Y1611610D1*
X2698779Y1576311D2*
Y1595412D1*
X2715979Y1597314D1*
X2714077Y1595412D1*
X2712132Y1589664D1*
Y1583960D1*
X2714077Y1578212D1*
X2717880Y1574366D1*
X2723628Y1572464D1*
X2727431D1*
X2733179Y1574366D1*
X2737025Y1578212D1*
X2738927Y1583960D1*
Y1589664D1*
X2737025Y1595412D1*
X2735080Y1597314D1*
X2731277Y1599259D1*
X2708329Y1558168D2*
X2706428D1*
X2702581Y1556266D1*
X2700680Y1554365D1*
X2698779Y1550518D1*
Y1542869D1*
X2700680Y1539066D1*
X2702581Y1537165D1*
X2706428Y1535220D1*
X2710231D1*
X2714077Y1537165D1*
X2719781Y1540968D1*
X2738927Y1560113D1*
Y1533318D1*
X2276846Y1026189D2*
X2273044Y1028090D1*
X2269197Y1031937D1*
X2267296Y1035740D1*
Y1043389D1*
X2269197Y1047236D1*
X2273044Y1051038D1*
X2276846Y1052984D1*
X2282594Y1054885D1*
X2292189D1*
X2297893Y1052984D1*
X2301740Y1051038D1*
X2305542Y1047236D1*
X2307488Y1043389D1*
Y1035740D1*
X2305542Y1031937D1*
X2301740Y1028090D1*
X2297893Y1026189D1*
X2267340Y990890D2*
Y1009991D1*
X2284540Y1011892D1*
X2282638Y1009991D1*
X2280693Y1004243D1*
Y998539D1*
X2282638Y992791D1*
X2286441Y988944D1*
X2292189Y987043D1*
X2295992D1*
X2301740Y988944D1*
X2305586Y992791D1*
X2307488Y998539D1*
Y1004243D1*
X2305586Y1009991D1*
X2303641Y1011892D1*
X2299838Y1013838D1*
X2267340Y970845D2*
Y949843D1*
X2282638Y961294D1*
Y955546D1*
X2284540Y951744D1*
X2286441Y949843D1*
X2292189Y947897D1*
X2295991D1*
X2301740Y949843D1*
X2305586Y953645D1*
X2307488Y959393D1*
Y965141D1*
X2305586Y970845D1*
X2303641Y972746D1*
X2299838Y974692D1*
X1913381Y1231361D2*
X1915282Y1235164D1*
X1919129Y1239011D1*
X1922931Y1240912D1*
X1930581D1*
X1934427Y1239011D1*
X1938230Y1235164D1*
X1940175Y1231361D1*
X1942077Y1225613D1*
Y1216018D1*
X1940175Y1210315D1*
X1938230Y1206468D1*
X1934427Y1202665D1*
X1930581Y1200720D1*
X1922931D1*
X1919129Y1202665D1*
X1915282Y1206468D1*
X1913381Y1210315D1*
X1878081Y1240868D2*
X1897183D1*
X1899084Y1223668D1*
X1897183Y1225569D1*
X1891435Y1227514D1*
X1885731D1*
X1879983Y1225569D1*
X1876136Y1221766D1*
X1874235Y1216018D1*
Y1212216D1*
X1876136Y1206468D1*
X1879983Y1202621D1*
X1885731Y1200720D1*
X1891435D1*
X1897183Y1202621D1*
X1899084Y1204567D1*
X1901029Y1208369D1*
X1854234Y1200720D2*
X1835089Y1240868D1*
X1861883D1*
X966720Y3188162D2*
X962918Y3190063D1*
X959071Y3193910D1*
X957170Y3197712D1*
Y3205362D1*
X959071Y3209208D1*
X962918Y3213011D1*
X966720Y3214957D1*
X972468Y3216858D1*
X982063D1*
X987767Y3214956D1*
X991614Y3213011D1*
X995416Y3209208D1*
X997362Y3205362D1*
Y3197712D1*
X995416Y3193910D1*
X991614Y3190063D1*
X987767Y3188162D1*
X962918Y3152863D2*
X959115Y3154764D1*
X957214Y3160512D1*
Y3164314D1*
X959115Y3170062D1*
X964863Y3173909D1*
X974414Y3175810D1*
X983964D1*
X991614Y3173909D1*
X995460Y3170062D1*
X997362Y3164314D1*
Y3162413D1*
X995460Y3156709D1*
X991614Y3152863D1*
X985866Y3150961D1*
X983964D1*
X978216Y3152863D1*
X974414Y3156709D1*
X972512Y3162413D1*
Y3164314D1*
X974414Y3170062D1*
X978216Y3173909D1*
X983964Y3175810D1*
X997362Y3119465D2*
X957214D1*
X983964Y3138610D1*
Y3109914D1*
X5232389Y1037054D2*
X5228587Y1038955D1*
X5224740Y1042802D1*
X5222839Y1046604D1*
Y1054254D1*
X5224740Y1058100D1*
X5228587Y1061903D1*
X5232389Y1063848D1*
X5238138Y1065750D1*
X5247732D1*
X5253436Y1063848D1*
X5257283Y1061903D1*
X5261085Y1058100D1*
X5263031Y1054254D1*
Y1046604D1*
X5261085Y1042802D1*
X5257283Y1038955D1*
X5253436Y1037054D1*
X5228587Y1001754D2*
X5224784Y1003656D1*
X5222883Y1009404D1*
Y1013206D1*
X5224784Y1018954D1*
X5230532Y1022801D1*
X5240083Y1024702D1*
X5249634D1*
X5257283Y1022801D1*
X5261130Y1018954D1*
X5263031Y1013206D1*
Y1011305D1*
X5261130Y1005601D1*
X5257283Y1001754D1*
X5251535Y999853D1*
X5249634D1*
X5243886Y1001754D1*
X5240083Y1005601D1*
X5238182Y1011305D1*
Y1013206D1*
X5240083Y1018954D1*
X5243886Y1022801D1*
X5249634Y1024702D1*
X5263031Y979852D2*
X5222883Y960707D1*
Y987502D1*
X1791523Y2376165D2*
X1787721Y2378067D1*
X1783874Y2381914D1*
X1781973Y2385716D1*
Y2393365D1*
X1783874Y2397212D1*
X1787721Y2401015D1*
X1791523Y2402960D1*
X1797271Y2404861D1*
X1806866D1*
X1812570Y2402960D1*
X1816417Y2401015D1*
X1820219Y2397212D1*
X1822165Y2393365D1*
Y2385716D1*
X1820219Y2381913D1*
X1816417Y2378067D1*
X1812570Y2376165D1*
X1787721Y2340866D2*
X1783918Y2342767D1*
X1782017Y2348516D1*
Y2352318D1*
X1783918Y2358066D1*
X1789666Y2361913D1*
X1799217Y2363814D1*
X1808767D1*
X1816417Y2361913D1*
X1820263Y2358066D1*
X1822165Y2352318D1*
Y2350417D1*
X1820263Y2344713D1*
X1816417Y2340866D1*
X1810669Y2338965D1*
X1808767D1*
X1803019Y2340866D1*
X1799217Y2344713D1*
X1797316Y2350417D1*
Y2352318D1*
X1799217Y2358066D1*
X1803019Y2361913D1*
X1808767Y2363814D1*
X1782017Y2317063D2*
X1783918Y2322767D1*
X1787721Y2324712D1*
X1791568D1*
X1795370Y2322767D1*
X1797316Y2318964D1*
X1799217Y2311315D1*
X1801118Y2305567D1*
X1804965Y2301764D1*
X1808767Y2299863D1*
X1814515D1*
X1818318Y2301764D1*
X1820263Y2303666D1*
X1822165Y2309414D1*
Y2317063D1*
X1820264Y2322767D1*
X1818318Y2324712D1*
X1814515Y2326614D1*
X1808767D1*
X1804965Y2324712D1*
X1801118Y2320866D1*
X1799217Y2315162D1*
X1797316Y2307512D1*
X1795370Y2303666D1*
X1791568Y2301764D1*
X1787721D1*
X1783918Y2303666D1*
X1782017Y2309414D1*
Y2317063D1*
X5241484Y1591969D2*
X5237681Y1593871D1*
X5233835Y1597717D1*
X5231933Y1601520D1*
Y1609169D1*
X5233835Y1613016D1*
X5237681Y1616818D1*
X5241484Y1618764D1*
X5247232Y1620665D1*
X5256827D1*
X5262531Y1618764D1*
X5266377Y1616818D1*
X5270180Y1613016D1*
X5272125Y1609169D1*
Y1601520D1*
X5270180Y1597717D1*
X5266377Y1593870D1*
X5262531Y1591969D1*
X5237681Y1556670D2*
X5233879Y1558571D1*
X5231978Y1564319D1*
Y1568122D1*
X5233879Y1573870D1*
X5239627Y1577717D1*
X5249178Y1579618D1*
X5258728D1*
X5266377Y1577717D1*
X5270224Y1573870D1*
X5272125Y1568122D1*
Y1566220D1*
X5270224Y1560517D1*
X5266377Y1556670D1*
X5260629Y1554769D1*
X5258728D1*
X5252980Y1556670D1*
X5249178Y1560517D1*
X5247276Y1566221D1*
Y1568122D1*
X5249178Y1573870D1*
X5252980Y1577717D1*
X5258728Y1579618D1*
X5245331Y1517524D2*
X5251079Y1519469D1*
X5254925Y1523272D1*
X5256827Y1529020D1*
Y1530921D1*
X5254926Y1536669D1*
X5251079Y1540472D1*
X5245331Y1542417D1*
X5243429D1*
X5237681Y1540472D1*
X5233879Y1536669D1*
X5231978Y1530921D1*
Y1529020D1*
X5233879Y1523272D1*
X5237681Y1519469D1*
X5245331Y1517524D1*
X5254925D1*
X5264476Y1519469D1*
X5270224Y1523272D1*
X5272125Y1529020D1*
Y1532823D1*
X5270224Y1538571D1*
X5266377Y1540472D1*
X3127352Y3632397D2*
Y3592205D1*
X3113955D1*
X3108207Y3594151D1*
X3104360Y3597953D1*
X3102459Y3601800D1*
X3100558Y3607504D1*
Y3617099D1*
X3102459Y3622847D1*
X3104360Y3626649D1*
X3108207Y3630496D1*
X3113955Y3632397D1*
X3127352D1*
X3057565Y3592205D2*
X3072908Y3632397D1*
X3088206Y3592205D1*
X3082458Y3605603D2*
X3063313D1*
X3045214Y3624704D2*
X3041367Y3626649D1*
X3035619Y3632353D1*
Y3592205D1*
X1582267Y4427673D2*
Y4387481D1*
X1568870D1*
X1563122Y4389426D1*
X1559275Y4393229D1*
X1557374Y4397076D1*
X1555473Y4402780D1*
Y4412374D1*
X1557374Y4418122D1*
X1559275Y4421925D1*
X1563122Y4425772D1*
X1568870Y4427673D1*
X1582267D1*
X1512480Y4387481D2*
X1527823Y4427673D1*
X1543121Y4387481D1*
X1537373Y4400878D2*
X1518228D1*
X1498183Y4418078D2*
Y4419979D1*
X1496282Y4423826D1*
X1494380Y4425727D1*
X1490534Y4427629D1*
X1482884D1*
X1479082Y4425727D1*
X1477181Y4423826D1*
X1475235Y4419979D1*
Y4416177D1*
X1477181Y4412330D1*
X1480983Y4406626D1*
X1500128Y4387481D1*
X1473334D1*
X3099078Y4214976D2*
Y4174784D1*
X3085680D1*
X3079932Y4176730D1*
X3076085Y4180532D1*
X3074184Y4184379D1*
X3072283Y4190083D1*
Y4199677D1*
X3074184Y4205426D1*
X3076085Y4209228D1*
X3079932Y4213075D1*
X3085680Y4214976D1*
X3099078D1*
X3029290Y4174784D2*
X3044633Y4214976D1*
X3059931Y4174784D1*
X3054183Y4188181D2*
X3035038D1*
X2997793Y4174784D2*
Y4214932D1*
X3016939Y4188181D1*
X2988243D1*
X3010877Y1645054D2*
Y1604862D1*
X2997479D1*
X2991731Y1606807D1*
X2987885Y1610610D1*
X2985983Y1614456D1*
X2984082Y1620160D1*
Y1629755D1*
X2985983Y1635503D1*
X2987885Y1639305D1*
X2991731Y1643152D1*
X2997479Y1645054D1*
X3010877D1*
X2971731D2*
Y1604862D1*
X2958333D1*
X2952585Y1606807D1*
X2948739Y1610610D1*
X2946837Y1614456D1*
X2944936Y1620160D1*
Y1629755D1*
X2946837Y1635503D1*
X2948739Y1639305D1*
X2952585Y1643152D1*
X2958333Y1645054D1*
X2971731D1*
X2928738Y1645009D2*
X2907735D1*
X2919187Y1629711D1*
X2913439D1*
X2909637Y1627809D1*
X2907735Y1625908D1*
X2905790Y1620160D1*
Y1616358D1*
X2907735Y1610610D1*
X2911538Y1606763D1*
X2917286Y1604862D1*
X2923034D1*
X2928738Y1606763D1*
X2930639Y1608708D1*
X2932585Y1612511D1*
X1557167Y1408880D2*
X1597359D1*
Y1395483D1*
X1595413Y1389735D1*
X1591611Y1385888D1*
X1587764Y1383986D1*
X1582060Y1382085D1*
X1572466D1*
X1566718Y1383986D1*
X1562915Y1385888D1*
X1559068Y1389735D1*
X1557167Y1395483D1*
Y1408880D1*
Y1369734D2*
X1597359D1*
Y1356336D1*
X1595414Y1350588D1*
X1591611Y1346742D1*
X1587764Y1344840D1*
X1582060Y1342939D1*
X1572466D1*
X1566718Y1344840D1*
X1562915Y1346742D1*
X1559068Y1350589D1*
X1557167Y1356337D1*
Y1369734D1*
X1597359Y1311442D2*
X1557211D1*
X1583962Y1330588D1*
Y1301892D1*
X1916225Y1488198D2*
X1956417D1*
Y1474801D1*
X1954471Y1469053D1*
X1950669Y1465206D1*
X1946822Y1463305D1*
X1941118Y1461403D1*
X1931523D1*
X1925775Y1463305D1*
X1921973Y1465206D1*
X1918126Y1469053D1*
X1916225Y1474801D1*
Y1488198D1*
Y1449052D2*
X1956417D1*
Y1435655D1*
X1954471Y1429907D1*
X1950669Y1426060D1*
X1946822Y1424159D1*
X1941118Y1422257D1*
X1931523D1*
X1925775Y1424159D1*
X1921973Y1426060D1*
X1918126Y1429907D1*
X1916225Y1435655D1*
Y1449052D1*
X1921973Y1386958D2*
X1918170Y1388859D1*
X1916269Y1394607D1*
Y1398410D1*
X1918170Y1404158D1*
X1923918Y1408005D1*
X1933469Y1409906D1*
X1943019D1*
X1950669Y1408005D1*
X1954515Y1404158D1*
X1956417Y1398410D1*
Y1396509D1*
X1954515Y1390805D1*
X1950669Y1386958D1*
X1944921Y1385057D1*
X1943019D1*
X1937271Y1386958D1*
X1933469Y1390805D1*
X1931568Y1396509D1*
Y1398410D1*
X1933469Y1404158D1*
X1937271Y1408005D1*
X1943019Y1409906D1*
X3275141Y2893224D2*
Y2853032D1*
X3252194D1*
X3237897Y2883629D2*
Y2885531D1*
X3235995Y2889377D1*
X3234094Y2891279D1*
X3230247Y2893180D1*
X3222598D1*
X3218796Y2891279D1*
X3216894Y2889377D1*
X3214949Y2885531D1*
Y2881728D1*
X3216894Y2877881D1*
X3220697Y2872177D1*
X3239842Y2853032D1*
X3213047D1*
X3650083Y3283016D2*
X3690275D1*
Y3260068D1*
X3650127Y3224768D2*
Y3243870D1*
X3667327Y3245771D1*
X3665426Y3243870D1*
X3663480Y3238122D1*
Y3232418D1*
X3665426Y3226670D1*
X3669228Y3222823D1*
X3674976Y3220922D1*
X3678779D1*
X3684527Y3222823D1*
X3688374Y3226670D1*
X3690275Y3232418D1*
Y3238121D1*
X3688374Y3243869D1*
X3686428Y3245771D1*
X3682626Y3247716D1*
X3323381Y2340075D2*
Y2299883D1*
X3300433D1*
X3265134Y2334326D2*
X3267035Y2338129D1*
X3272783Y2340030D1*
X3276586D1*
X3282334Y2338129D1*
X3286181Y2332381D1*
X3288082Y2322830D1*
Y2313280D1*
X3286181Y2305631D1*
X3282334Y2301784D1*
X3276586Y2299883D1*
X3274685D1*
X3268981Y2301784D1*
X3265134Y2305631D1*
X3263233Y2311379D1*
Y2313280D1*
X3265134Y2319028D1*
X3268981Y2322830D1*
X3274685Y2324732D1*
X3276586D1*
X3282334Y2322830D1*
X3286181Y2319028D1*
X3288082Y2313280D1*
X1446401Y3418815D2*
Y3378623D1*
X1423453D1*
X1403453D2*
X1384307Y3418770D1*
X1411102D1*
X1231812Y3912909D2*
Y3872717D1*
X1208864D1*
X1186962Y3912865D2*
X1192666Y3910964D1*
X1194612Y3907161D1*
Y3903314D1*
X1192666Y3899512D1*
X1188864Y3897566D1*
X1181214Y3895665D1*
X1175466Y3893764D1*
X1171664Y3889917D1*
X1169763Y3886114D1*
Y3880366D1*
X1171664Y3876564D1*
X1173565Y3874618D1*
X1179313Y3872717D1*
X1186962D1*
X1192666Y3874618D1*
X1194612Y3876564D1*
X1196513Y3880366D1*
Y3886114D1*
X1194612Y3889917D1*
X1190765Y3893764D1*
X1185061Y3895665D1*
X1177412Y3897566D1*
X1173565Y3899512D1*
X1171664Y3903314D1*
Y3907161D1*
X1173565Y3910964D1*
X1179313Y3912865D1*
X1186962D1*
X2900175Y4298736D2*
Y4258544D1*
X2877227D1*
X2839982Y4285339D2*
X2841928Y4279591D1*
X2845730Y4275744D1*
X2851478Y4273843D1*
X2853380D1*
X2859128Y4275744D1*
X2862930Y4279591D1*
X2864876Y4285339D1*
Y4287240D1*
X2862930Y4292988D1*
X2859128Y4296790D1*
X2853380Y4298692D1*
X2851478D1*
X2845730Y4296790D1*
X2841928Y4292988D1*
X2839982Y4285339D1*
Y4275744D1*
X2841928Y4266193D1*
X2845730Y4260445D1*
X2851478Y4258544D1*
X2855281D1*
X2861029Y4260445D1*
X2862930Y4264292D1*
X1525687Y1757994D2*
X1565879D1*
Y1735046D1*
X1533380Y1722695D2*
X1531435Y1718848D1*
X1525731Y1713100D1*
X1565879D1*
X1535281Y1698803D2*
X1533380D1*
X1529533Y1696902D1*
X1527632Y1695000D1*
X1525731Y1691154D1*
Y1683504D1*
X1527632Y1679702D1*
X1529533Y1677801D1*
X1533380Y1675855D1*
X1537183D1*
X1541029Y1677801D1*
X1546733Y1681603D1*
X1565879Y1700748D1*
Y1673954D1*
X2409655Y1755183D2*
X2449847D1*
Y1732235D1*
X2417349Y1719884D2*
X2415403Y1716037D1*
X2409699Y1710289D1*
X2449847D1*
X2409699Y1694091D2*
Y1673088D1*
X2424998Y1684540D1*
Y1678792D1*
X2426899Y1674990D1*
X2428801Y1673088D1*
X2434549Y1671143D1*
X2438351D1*
X2444099Y1673088D1*
X2447946Y1676891D1*
X2449847Y1682639D1*
Y1688387D1*
X2447946Y1694091D1*
X2446000Y1695992D1*
X2442198Y1697937D1*
X2261520Y2550704D2*
Y2510512D1*
X2238572D1*
X2226220Y2543011D2*
X2222374Y2544956D1*
X2216626Y2550660D1*
Y2510512D1*
X2181326Y2544956D2*
X2183228Y2548759D1*
X2188976Y2550660D1*
X2192778D1*
X2198526Y2548759D1*
X2202373Y2543011D1*
X2204274Y2533460D1*
Y2523910D1*
X2202373Y2516260D1*
X2198526Y2512414D1*
X2192778Y2510512D1*
X2190877D1*
X2185173Y2512414D1*
X2181326Y2516260D1*
X2179425Y2522009D1*
Y2523910D1*
X2181326Y2529658D1*
X2185173Y2533460D1*
X2190877Y2535362D1*
X2192778D1*
X2198526Y2533460D1*
X2202373Y2529658D1*
X2204274Y2523910D1*
X3969978Y4413449D2*
X3952778D1*
X3947030Y4415394D1*
X3945085Y4417296D1*
X3943184Y4421098D1*
Y4424945D1*
X3945085Y4428747D1*
X3947030Y4430693D1*
X3952778Y4432594D1*
X3969978D1*
Y4392402D1*
X3956581Y4413449D2*
X3943184Y4392402D1*
X3926985Y4432550D2*
X3905983D1*
X3917435Y4417251D1*
X3911687D1*
X3907884Y4415350D1*
X3905983Y4413449D1*
X3904038Y4407701D1*
Y4403898D1*
X3905983Y4398150D1*
X3909786Y4394303D1*
X3915534Y4392402D1*
X3921282D1*
X3926985Y4394303D1*
X3928887Y4396249D1*
X3930832Y4400052D1*
X3587071Y2313055D2*
X3569871D1*
X3564123Y2315001D1*
X3562177Y2316902D1*
X3560276Y2320704D1*
Y2324551D1*
X3562177Y2328354D1*
X3564123Y2330299D1*
X3569871Y2332201D1*
X3587071D1*
Y2292009D1*
X3573673Y2313055D2*
X3560276Y2292009D1*
X3528779D2*
Y2332156D1*
X3547925Y2305406D1*
X3519229D1*
X2706630Y1781998D2*
Y1764798D1*
X2704684Y1759050D1*
X2702783Y1757104D1*
X2698981Y1755203D1*
X2695134D1*
X2691331Y1757104D1*
X2689386Y1759050D1*
X2687485Y1764798D1*
Y1781998D1*
X2727677D1*
X2706630Y1768600D2*
X2727677Y1755203D1*
X2693233Y1719904D2*
X2689430Y1721805D1*
X2687529Y1727553D1*
Y1731356D1*
X2689430Y1737104D1*
X2695178Y1740950D1*
X2704729Y1742852D1*
X2714279D1*
X2721929Y1740950D1*
X2725775Y1737104D1*
X2727677Y1731356D1*
Y1729454D1*
X2725775Y1723751D1*
X2721929Y1719904D1*
X2716180Y1718003D1*
X2714279D1*
X2708531Y1719904D1*
X2704729Y1723751D1*
X2702827Y1729454D1*
Y1731356D1*
X2704729Y1737104D1*
X2708531Y1740950D1*
X2714279Y1742852D1*
X3862142Y3899112D2*
Y3881912D1*
X3860196Y3876164D1*
X3858295Y3874219D1*
X3854492Y3872318D1*
X3850646D1*
X3846843Y3874219D1*
X3844898Y3876164D1*
X3842996Y3881912D1*
Y3899112D1*
X3883188D1*
X3862142Y3885715D2*
X3883188Y3872317D1*
Y3852317D2*
X3843041Y3833171D1*
Y3859966D1*
X2630202Y4547669D2*
Y4530470D1*
X2628257Y4524721D1*
X2626355Y4522776D1*
X2622553Y4520875D1*
X2618706D1*
X2614904Y4522776D1*
X2612958Y4524722D1*
X2611057Y4530470D1*
Y4547669D1*
X2651249D1*
X2630202Y4534272D2*
X2651249Y4520875D1*
X2624454Y4483630D2*
X2630202Y4485575D1*
X2634049Y4489378D1*
X2635950Y4495126D1*
Y4497027D1*
X2634049Y4502775D1*
X2630202Y4506578D1*
X2624454Y4508523D1*
X2622553D1*
X2616805Y4506578D1*
X2613002Y4502775D1*
X2611101Y4497027D1*
Y4495126D1*
X2613002Y4489378D1*
X2616805Y4485575D1*
X2624454Y4483630D1*
X2634049D1*
X2643599Y4485575D1*
X2649347Y4489378D1*
X2651249Y4495126D1*
Y4498929D1*
X2649348Y4504677D1*
X2645501Y4506578D1*
X2607526Y4421766D2*
X2590326D1*
X2584578Y4423712D1*
X2582633Y4425613D1*
X2580731Y4429416D1*
Y4433262D1*
X2582633Y4437065D1*
X2584578Y4439011D1*
X2590326Y4440912D1*
X2607526D1*
Y4400720D1*
X2594129Y4421766D2*
X2580731Y4400720D1*
X2568380Y4433218D2*
X2564533Y4435164D1*
X2558785Y4440868D1*
Y4400720D1*
X2534938Y4440868D2*
X2540686Y4438966D1*
X2544533Y4433218D1*
X2546434Y4423668D1*
Y4417920D1*
X2544533Y4408369D1*
X2540686Y4402621D1*
X2534938Y4400720D1*
X2531135D1*
X2525387Y4402621D1*
X2521585Y4408369D1*
X2519639Y4417920D1*
Y4423668D1*
X2521585Y4433218D1*
X2525387Y4438966D1*
X2531135Y4440868D1*
X2534938D1*
X2521585Y4433218D2*
X2544533Y4408369D1*
X3071433Y1249753D2*
Y1232553D1*
X3069488Y1226805D1*
X3067586Y1224860D1*
X3063784Y1222958D1*
X3059937D1*
X3056135Y1224860D1*
X3054189Y1226805D1*
X3052288Y1232553D1*
Y1249753D1*
X3092480D1*
X3071433Y1236356D2*
X3092480Y1222958D1*
X3059981Y1210607D2*
X3058036Y1206760D1*
X3052332Y1201012D1*
X3092480D1*
X3059981Y1188661D2*
X3058036Y1184814D1*
X3052332Y1179066D1*
X3092480D1*
X2931984Y1258353D2*
Y1241153D1*
X2930039Y1235405D1*
X2928138Y1233460D1*
X2924335Y1231558D1*
X2920488D1*
X2916686Y1233460D1*
X2914740Y1235405D1*
X2912839Y1241153D1*
Y1258353D1*
X2953031D1*
X2931984Y1244956D2*
X2953031Y1231558D1*
X2920532Y1219207D2*
X2918587Y1215360D1*
X2912883Y1209612D1*
X2953031D1*
X2922434Y1195315D2*
X2920532D1*
X2916686Y1193414D1*
X2914784Y1191513D1*
X2912883Y1187666D1*
Y1180017D1*
X2914784Y1176214D1*
X2916686Y1174313D1*
X2920532Y1172367D1*
X2924335D1*
X2928182Y1174313D1*
X2933886Y1178115D1*
X2953031Y1197261D1*
Y1170466D1*
X2792535Y1258353D2*
Y1241153D1*
X2790590Y1235405D1*
X2788689Y1233460D1*
X2784886Y1231558D1*
X2781039D1*
X2777237Y1233460D1*
X2775291Y1235405D1*
X2773390Y1241153D1*
Y1258353D1*
X2813582D1*
X2792535Y1244956D2*
X2813582Y1231558D1*
X2781084Y1219207D2*
X2779138Y1215360D1*
X2773434Y1209612D1*
X2813582D1*
X2773434Y1193414D2*
Y1172412D1*
X2788733Y1183863D1*
Y1178115D1*
X2790634Y1174313D1*
X2792535Y1172412D1*
X2798283Y1170466D1*
X2802086D1*
X2807834Y1172412D1*
X2811681Y1176214D1*
X2813582Y1181962D1*
Y1187710D1*
X2811681Y1193414D1*
X2809735Y1195315D1*
X2805933Y1197261D1*
X2653087Y1259304D2*
Y1242104D1*
X2651141Y1236356D1*
X2649240Y1234410D1*
X2645437Y1232509D1*
X2641591D1*
X2637788Y1234410D1*
X2635843Y1236356D1*
X2633941Y1242104D1*
Y1259304D1*
X2674133D1*
X2653087Y1245906D2*
X2674133Y1232509D1*
X2641635Y1220158D2*
X2639689Y1216311D1*
X2633986Y1210563D1*
X2674133D1*
Y1179066D2*
X2633985D1*
X2660736Y1198211D1*
Y1169515D1*
X2904765Y714095D2*
X2887565D1*
X2881817Y716040D1*
X2879872Y717941D1*
X2877970Y721744D1*
Y725591D1*
X2879872Y729393D1*
X2881817Y731339D1*
X2887565Y733240D1*
X2904765D1*
Y693048D1*
X2891368Y714095D2*
X2877970Y693048D1*
X2865619Y725546D2*
X2861772Y727492D1*
X2856024Y733196D1*
Y693048D1*
X2820725Y733196D2*
X2839826D1*
X2841727Y715996D1*
X2839826Y717897D1*
X2834078Y719843D1*
X2828374D1*
X2822626Y717897D1*
X2818779Y714095D1*
X2816878Y708346D1*
Y704544D1*
X2818779Y698796D1*
X2822626Y694949D1*
X2828374Y693048D1*
X2834078D1*
X2839826Y694949D1*
X2841727Y696895D1*
X2843673Y700697D1*
X3602459Y1584612D2*
X3585259D1*
X3579511Y1586557D1*
X3577566Y1588458D1*
X3575664Y1592261D1*
Y1596108D1*
X3577566Y1599910D1*
X3579511Y1601856D1*
X3585259Y1603757D1*
X3602459D1*
Y1563565D1*
X3589062Y1584612D2*
X3575664Y1563565D1*
X3563313Y1596063D2*
X3559466Y1598009D1*
X3553718Y1603713D1*
Y1563565D1*
X3518419Y1598009D2*
X3520320Y1601811D1*
X3526068Y1603713D1*
X3529871D1*
X3535619Y1601811D1*
X3539465Y1596063D1*
X3541367Y1586513D1*
Y1576962D1*
X3539465Y1569313D1*
X3535619Y1565466D1*
X3529871Y1563565D1*
X3527969D1*
X3522266Y1565466D1*
X3518419Y1569313D1*
X3516517Y1575061D1*
Y1576962D1*
X3518419Y1582710D1*
X3522266Y1586513D1*
X3527969Y1588414D1*
X3529871D1*
X3535619Y1586513D1*
X3539465Y1582710D1*
X3541367Y1576962D1*
X3603432Y1859583D2*
X3586232D1*
X3580484Y1861528D1*
X3578538Y1863429D1*
X3576637Y1867232D1*
Y1871079D1*
X3578538Y1874881D1*
X3580484Y1876827D1*
X3586232Y1878728D1*
X3603432D1*
Y1838536D1*
X3590034Y1859583D2*
X3576637Y1838536D1*
X3564286Y1871035D2*
X3560439Y1872980D1*
X3554691Y1878684D1*
Y1838536D1*
X3534690D2*
X3515545Y1878684D1*
X3542339D1*
X3603410Y1722097D2*
X3586210D1*
X3580462Y1724043D1*
X3578516Y1725944D1*
X3576615Y1729746D1*
Y1733593D1*
X3578516Y1737396D1*
X3580462Y1739341D1*
X3586210Y1741243D1*
X3603410D1*
Y1701050D1*
X3590012Y1722097D2*
X3576615Y1701050D1*
X3564263Y1733549D2*
X3560417Y1735494D1*
X3554669Y1741198D1*
Y1701050D1*
X3532767Y1741198D2*
X3538471Y1739297D1*
X3540416Y1735494D1*
Y1731648D1*
X3538471Y1727845D1*
X3534668Y1725900D1*
X3527019Y1723998D1*
X3521271Y1722097D1*
X3517468Y1718250D1*
X3515567Y1714448D1*
Y1708700D1*
X3517468Y1704897D1*
X3519369Y1702952D1*
X3525117Y1701050D1*
X3532767D1*
X3538471Y1702952D1*
X3540416Y1704897D1*
X3542317Y1708700D1*
Y1714448D1*
X3540416Y1718250D1*
X3536569Y1722097D1*
X3530865Y1723998D1*
X3523216Y1725900D1*
X3519369Y1727845D1*
X3517468Y1731648D1*
Y1735494D1*
X3519369Y1739297D1*
X3525117Y1741198D1*
X3532767D1*
X3602481Y1309640D2*
X3585281D1*
X3579533Y1311586D1*
X3577588Y1313487D1*
X3575686Y1317290D1*
Y1321137D1*
X3577588Y1324939D1*
X3579533Y1326885D1*
X3585281Y1328786D1*
X3602481D1*
Y1288594D1*
X3589084Y1309640D2*
X3575686Y1288594D1*
X3563335Y1321092D2*
X3559488Y1323038D1*
X3553740Y1328742D1*
Y1288594D1*
X3516495Y1315388D2*
X3518441Y1309640D1*
X3522243Y1305794D1*
X3527991Y1303892D1*
X3529893D1*
X3535641Y1305794D1*
X3539443Y1309640D1*
X3541389Y1315388D1*
Y1317290D1*
X3539443Y1323038D1*
X3535641Y1326840D1*
X3529893Y1328742D1*
X3527991D1*
X3522243Y1326840D1*
X3518441Y1323038D1*
X3516495Y1315388D1*
Y1305794D1*
X3518441Y1296243D1*
X3522243Y1290495D1*
X3527991Y1288594D1*
X3531794D1*
X3537542Y1290495D1*
X3539443Y1294342D1*
X3612032Y1447126D2*
X3594832D1*
X3589084Y1449071D1*
X3587138Y1450973D1*
X3585237Y1454775D1*
Y1458622D1*
X3587138Y1462425D1*
X3589084Y1464370D1*
X3594832Y1466271D1*
X3612032D1*
Y1426079D1*
X3598634Y1447126D2*
X3585237Y1426079D1*
X3570940Y1456677D2*
Y1458578D1*
X3569039Y1462425D1*
X3567137Y1464326D1*
X3563291Y1466227D1*
X3555641D1*
X3551839Y1464326D1*
X3549938Y1462425D1*
X3547992Y1458578D1*
Y1454775D1*
X3549938Y1450929D1*
X3553740Y1445225D1*
X3572886Y1426079D1*
X3546091D1*
X3522243Y1466227D2*
X3527991Y1464326D1*
X3531838Y1458578D1*
X3533739Y1449027D1*
Y1443279D1*
X3531838Y1433729D1*
X3527991Y1427981D1*
X3522243Y1426079D1*
X3518441D1*
X3512693Y1427981D1*
X3508890Y1433729D1*
X3506945Y1443279D1*
Y1449027D1*
X3508890Y1458578D1*
X3512693Y1464326D1*
X3518441Y1466227D1*
X3522243D1*
X3508890Y1458578D2*
X3531838Y1433729D1*
X2879315Y3909512D2*
X2862115D1*
X2856367Y3911457D1*
X2854422Y3913359D1*
X2852520Y3917161D1*
Y3921008D1*
X2854422Y3924810D1*
X2856367Y3926756D1*
X2862115Y3928657D1*
X2879315D1*
Y3888465D1*
X2865918Y3909512D2*
X2852520Y3888465D1*
X2838224Y3919062D2*
Y3920964D1*
X2836322Y3924810D1*
X2834421Y3926712D1*
X2830574Y3928613D1*
X2822925D1*
X2819122Y3926712D1*
X2817221Y3924810D1*
X2815276Y3920964D1*
Y3917161D1*
X2817221Y3913314D1*
X2821024Y3907611D1*
X2840169Y3888465D1*
X2813374D1*
X2797176Y3928613D2*
X2776174D1*
X2787626Y3913314D1*
X2781878D1*
X2778075Y3911413D1*
X2776174Y3909512D1*
X2774228Y3903764D1*
Y3899961D1*
X2776174Y3894213D1*
X2779976Y3890366D1*
X2785724Y3888465D1*
X2791472D1*
X2797176Y3890366D1*
X2799077Y3892312D1*
X2801023Y3896114D1*
X2681039Y4075193D2*
Y4057993D1*
X2679094Y4052245D1*
X2677193Y4050299D1*
X2673390Y4048398D1*
X2669543D1*
X2665741Y4050299D1*
X2663795Y4052245D1*
X2661894Y4057993D1*
Y4075193D1*
X2702086D1*
X2681039Y4061795D2*
X2702086Y4048398D1*
X2671489Y4034101D2*
X2669588D1*
X2665741Y4032200D1*
X2663840Y4030299D1*
X2661938Y4026452D1*
Y4018803D1*
X2663840Y4015000D1*
X2665741Y4013099D1*
X2669588Y4011153D1*
X2673390D1*
X2677237Y4013099D1*
X2682941Y4016901D1*
X2702086Y4036047D1*
Y4009252D1*
X2667642Y3973953D2*
X2663839Y3975854D1*
X2661938Y3981602D1*
Y3985405D1*
X2663840Y3991153D1*
X2669588Y3994999D1*
X2679138Y3996901D1*
X2688689D1*
X2696338Y3994999D1*
X2700185Y3991153D1*
X2702086Y3985405D1*
Y3983503D1*
X2700185Y3977800D1*
X2696338Y3973953D1*
X2690590Y3972052D1*
X2688689D1*
X2682941Y3973953D1*
X2679138Y3977800D1*
X2677237Y3983503D1*
Y3985405D1*
X2679138Y3991153D1*
X2682941Y3994999D1*
X2688689Y3996901D1*
X2572772Y4080102D2*
Y4062903D1*
X2570826Y4057155D1*
X2568925Y4055209D1*
X2565122Y4053308D1*
X2561276D1*
X2557473Y4055209D1*
X2555528Y4057155D1*
X2553626Y4062903D1*
Y4080102D1*
X2593818D1*
X2572772Y4066705D2*
X2593818Y4053308D1*
X2563221Y4039011D2*
X2561320D1*
X2557473Y4037110D1*
X2555572Y4035208D1*
X2553671Y4031362D1*
Y4023712D1*
X2555572Y4019910D1*
X2557473Y4018009D1*
X2561320Y4016063D1*
X2565122D1*
X2568969Y4018009D1*
X2574673Y4021811D1*
X2593818Y4040956D1*
Y4014162D1*
Y3994161D2*
X2553670Y3975016D1*
X2553671Y4001810D1*
X2935524Y431672D2*
X2918324D1*
X2912576Y433617D1*
X2910631Y435519D1*
X2908729Y439321D1*
Y443168D1*
X2910631Y446971D1*
X2912576Y448916D1*
X2918324Y450817D1*
X2935524D1*
Y410625D1*
X2922127Y431672D2*
X2908729Y410625D1*
X2894432Y441223D2*
Y443124D1*
X2892531Y446971D1*
X2890630Y448872D1*
X2886783Y450773D1*
X2879134D1*
X2875331Y448872D1*
X2873430Y446971D1*
X2871484Y443124D1*
Y439321D1*
X2873430Y435474D1*
X2877232Y429771D1*
X2896378Y410625D1*
X2869583D1*
X2847681Y450773D2*
X2853385Y448872D1*
X2855331Y445069D1*
Y441223D1*
X2853385Y437420D1*
X2849582Y435474D1*
X2841933Y433573D1*
X2836185Y431672D1*
X2832383Y427825D1*
X2830481Y424023D1*
Y418275D1*
X2832383Y414472D1*
X2834284Y412527D1*
X2840032Y410625D1*
X2847681D1*
X2853385Y412527D1*
X2855331Y414472D1*
X2857232Y418275D1*
Y424023D1*
X2855331Y427825D1*
X2851484Y431672D1*
X2845780Y433573D1*
X2838131Y435474D1*
X2834284Y437420D1*
X2832383Y441223D1*
Y445069D1*
X2834284Y448872D1*
X2840032Y450773D1*
X2847681D1*
X3148197Y795386D2*
X3130997D1*
X3125249Y797331D1*
X3123304Y799233D1*
X3121402Y803035D1*
Y806882D1*
X3123304Y810684D1*
X3125249Y812630D1*
X3130997Y814531D1*
X3148197D1*
Y774339D1*
X3134800Y795386D2*
X3121402Y774339D1*
X3105204Y814487D2*
X3084202D1*
X3095654Y799188D1*
X3089906D1*
X3086103Y797287D1*
X3084202Y795386D1*
X3082256Y789638D1*
Y785835D1*
X3084202Y780087D1*
X3088004Y776240D1*
X3093752Y774339D1*
X3099500D1*
X3105204Y776240D1*
X3107105Y778186D1*
X3109051Y781989D1*
X3058409Y814487D2*
X3064157Y812586D1*
X3068004Y806838D1*
X3069905Y797287D1*
Y791539D1*
X3068004Y781989D1*
X3064157Y776240D1*
X3058409Y774339D1*
X3054606D1*
X3048858Y776240D1*
X3045056Y781989D1*
X3043110Y791539D1*
Y797287D1*
X3045056Y806838D1*
X3048858Y812586D1*
X3054606Y814487D1*
X3058409D1*
X3045056Y806838D2*
X3068004Y781989D1*
X3083180Y431672D2*
X3065980D1*
X3060232Y433617D1*
X3058286Y435519D1*
X3056385Y439321D1*
Y443168D1*
X3058286Y446971D1*
X3060232Y448916D1*
X3065980Y450817D1*
X3083180D1*
Y410625D1*
X3069782Y431672D2*
X3056385Y410625D1*
X3040187Y450773D2*
X3019184D1*
X3030636Y435474D1*
X3024888D1*
X3021086Y433573D1*
X3019184Y431672D1*
X3017239Y425924D1*
Y422121D1*
X3019184Y416373D1*
X3022987Y412527D1*
X3028735Y410625D1*
X3034483D1*
X3040187Y412527D1*
X3042088Y414472D1*
X3044034Y418275D1*
X3004888Y443124D2*
X3001041Y445069D1*
X2995293Y450773D1*
Y410625D1*
X1261630Y1039591D2*
Y1022391D1*
X1259684Y1016643D1*
X1257783Y1014697D1*
X1253981Y1012796D1*
X1250134D1*
X1246331Y1014697D1*
X1244386Y1016643D1*
X1242485Y1022391D1*
Y1039591D1*
X1282677D1*
X1261630Y1026193D2*
X1282677Y1012796D1*
X1242529Y996598D2*
Y975595D1*
X1257827Y987047D1*
Y981299D1*
X1259729Y977497D1*
X1261630Y975595D1*
X1267378Y973650D1*
X1271181D1*
X1276929Y975595D1*
X1280775Y979398D1*
X1282677Y985146D1*
Y990894D1*
X1280775Y996598D1*
X1278830Y998499D1*
X1275027Y1000445D1*
X1242529Y957452D2*
Y936449D1*
X1257827Y947901D1*
Y942153D1*
X1259729Y938351D1*
X1261630Y936449D1*
X1267378Y934504D1*
X1271180D1*
X1276929Y936449D1*
X1280775Y940252D1*
X1282677Y946000D1*
Y951748D1*
X1280775Y957452D1*
X1278830Y959353D1*
X1275027Y961299D1*
X1052255Y828441D2*
X1035055D1*
X1029307Y830386D1*
X1027362Y832288D1*
X1025461Y836090D1*
Y839937D1*
X1027362Y843740D1*
X1029307Y845685D1*
X1035055Y847586D1*
X1052255D1*
Y807394D1*
X1038858Y828441D2*
X1025461Y807394D1*
X1009262Y847542D2*
X988260D1*
X999712Y832244D1*
X993964D1*
X990161Y830342D1*
X988260Y828441D1*
X986314Y822693D1*
Y818890D1*
X988260Y813142D1*
X992062Y809296D1*
X997811Y807394D1*
X1003559D1*
X1009262Y809296D1*
X1011164Y811241D1*
X1013109Y815044D1*
X954818Y807394D2*
Y847542D1*
X973963Y820792D1*
X945267D1*
X1118751Y1038470D2*
Y1021270D1*
X1116805Y1015522D1*
X1114904Y1013577D1*
X1111101Y1011675D1*
X1107255D1*
X1103452Y1013577D1*
X1101507Y1015522D1*
X1099605Y1021270D1*
Y1038470D1*
X1139797D1*
X1118751Y1025073D2*
X1139797Y1011675D1*
X1099650Y995477D2*
Y974475D1*
X1114948Y985927D1*
Y980179D1*
X1116849Y976376D1*
X1118751Y974475D1*
X1124499Y972529D1*
X1128301D1*
X1134049Y974475D1*
X1137896Y978277D1*
X1139797Y984025D1*
Y989773D1*
X1137896Y995477D1*
X1135951Y997378D1*
X1132148Y999324D1*
X1099649Y937230D2*
X1099650Y956331D1*
X1116849Y958232D1*
X1114948Y956331D1*
X1113003Y950583D1*
Y944879D1*
X1114948Y939131D1*
X1118751Y935285D1*
X1124499Y933383D1*
X1128301D1*
X1134049Y935285D1*
X1137896Y939131D1*
X1139797Y944879D1*
Y950583D1*
X1137896Y956331D1*
X1135951Y958232D1*
X1132148Y960178D1*
X1537781Y828441D2*
X1520581D1*
X1514833Y830386D1*
X1512887Y832288D1*
X1510986Y836090D1*
Y839937D1*
X1512887Y843740D1*
X1514833Y845685D1*
X1520581Y847586D1*
X1537781D1*
Y807394D1*
X1524383Y828441D2*
X1510986Y807394D1*
X1494788Y847542D2*
X1473785D1*
X1485237Y832244D1*
X1479489D1*
X1475687Y830342D1*
X1473785Y828441D1*
X1471840Y822693D1*
Y818890D1*
X1473785Y813142D1*
X1477588Y809296D1*
X1483336Y807394D1*
X1489084D1*
X1494788Y809296D1*
X1496689Y811241D1*
X1498635Y815044D1*
X1436541Y841838D2*
X1438442Y845641D1*
X1444190Y847542D1*
X1447992D1*
X1453740Y845641D1*
X1457587Y839893D1*
X1459488Y830342D1*
Y820792D1*
X1457587Y813142D1*
X1453740Y809296D1*
X1447992Y807394D1*
X1446091D1*
X1440387Y809296D1*
X1436541Y813142D1*
X1434639Y818890D1*
Y820792D1*
X1436541Y826540D1*
X1440387Y830342D1*
X1446091Y832244D1*
X1447992D1*
X1453740Y830342D1*
X1457587Y826540D1*
X1459488Y820792D1*
X1304687Y1755575D2*
X1287487D1*
X1281739Y1757520D1*
X1279793Y1759422D1*
X1277892Y1763224D1*
Y1767071D1*
X1279793Y1770873D1*
X1281739Y1772819D1*
X1287487Y1774720D1*
X1304687D1*
Y1734528D1*
X1291289Y1755575D2*
X1277892Y1734528D1*
X1261694Y1774676D2*
X1240691D1*
X1252143Y1759377D1*
X1246395D1*
X1242593Y1757476D1*
X1240691Y1755575D1*
X1238746Y1749827D1*
Y1746024D1*
X1240691Y1740276D1*
X1244494Y1736429D1*
X1250242Y1734528D1*
X1255990D1*
X1261694Y1736429D1*
X1263595Y1738375D1*
X1265541Y1742177D1*
X1216844Y1774676D2*
X1222548Y1772775D1*
X1224493Y1768972D1*
Y1765125D1*
X1222548Y1761323D1*
X1218745Y1759377D1*
X1211096Y1757476D1*
X1205348Y1755575D1*
X1201545Y1751728D1*
X1199644Y1747926D1*
Y1742177D1*
X1201545Y1738375D1*
X1203447Y1736429D1*
X1209195Y1734528D1*
X1216844D1*
X1222548Y1736429D1*
X1224493Y1738375D1*
X1226395Y1742177D1*
Y1747926D1*
X1224493Y1751728D1*
X1220646Y1755575D1*
X1214943Y1757476D1*
X1207293Y1759377D1*
X1203447Y1761323D1*
X1201545Y1765125D1*
Y1768972D1*
X1203447Y1772775D1*
X1209195Y1774676D1*
X1216844D1*
X4144583Y1041672D2*
Y1024472D1*
X4142637Y1018724D1*
X4140736Y1016778D1*
X4136933Y1014877D1*
X4133087D1*
X4129284Y1016778D1*
X4127339Y1018724D1*
X4125437Y1024472D1*
Y1041672D1*
X4165629D1*
X4144583Y1028274D2*
X4165629Y1014877D1*
X4125482Y998679D2*
Y977676D1*
X4140780Y989128D1*
Y983380D1*
X4142681Y979578D1*
X4144583Y977676D1*
X4150331Y975731D1*
X4154133D1*
X4159881Y977676D1*
X4163728Y981479D1*
X4165629Y987227D1*
Y992975D1*
X4163728Y998679D1*
X4161783Y1000580D1*
X4157980Y1002525D1*
X4138835Y938486D2*
X4144583Y940432D1*
X4148429Y944234D1*
X4150331Y949982D1*
Y951883D1*
X4148429Y957631D1*
X4144583Y961434D1*
X4138835Y963379D1*
X4136933D1*
X4131185Y961434D1*
X4127383Y957631D1*
X4125482Y951883D1*
Y949982D1*
X4127383Y944234D1*
X4131185Y940432D1*
X4138835Y938486D1*
X4148429D1*
X4157980Y940432D1*
X4163728Y944234D1*
X4165629Y949982D1*
Y953785D1*
X4163728Y959533D1*
X4159881Y961434D1*
X4144583Y843494D2*
Y826294D1*
X4142637Y820546D1*
X4140736Y818601D1*
X4136933Y816699D1*
X4133087D1*
X4129284Y818601D1*
X4127339Y820546D1*
X4125437Y826294D1*
Y843494D1*
X4165629D1*
X4144583Y830097D2*
X4165629Y816699D1*
Y785203D2*
X4125482D1*
X4152232Y804348D1*
Y775652D1*
X4125482Y751805D2*
X4127383Y757553D1*
X4133131Y761399D1*
X4142681Y763301D1*
X4148429D1*
X4157980Y761399D1*
X4163728Y757553D1*
X4165629Y751805D1*
Y748002D1*
X4163728Y742254D1*
X4157980Y738452D1*
X4148429Y736506D1*
X4142681D1*
X4133131Y738452D1*
X4127383Y742254D1*
X4125482Y748002D1*
Y751805D1*
X4133131Y738452D2*
X4157980Y761399D1*
X1289632Y828441D2*
X1272432D1*
X1266684Y830386D1*
X1264738Y832288D1*
X1262837Y836090D1*
Y839937D1*
X1264738Y843740D1*
X1266684Y845685D1*
X1272432Y847586D1*
X1289632D1*
Y807394D1*
X1276234Y828441D2*
X1262837Y807394D1*
X1231340D2*
Y847542D1*
X1250486Y820792D1*
X1221790D1*
X1209438Y839893D2*
X1205591Y841838D1*
X1199843Y847542D1*
Y807394D1*
X3577693Y1043573D2*
Y1026373D1*
X3575747Y1020625D1*
X3573846Y1018679D1*
X3570044Y1016778D1*
X3566197D1*
X3562394Y1018679D1*
X3560449Y1020625D1*
X3558548Y1026373D1*
Y1043573D1*
X3598740D1*
X3577693Y1030175D2*
X3598740Y1016778D1*
Y985281D2*
X3558592D1*
X3585342Y1004427D1*
Y975731D1*
X3568142Y961434D2*
X3566241D1*
X3562394Y959533D1*
X3560493Y957631D1*
X3558592Y953785D1*
Y946135D1*
X3560493Y942333D1*
X3562394Y940432D1*
X3566241Y938486D1*
X3570044D1*
X3573890Y940432D1*
X3579594Y944234D1*
X3598740Y963379D1*
Y936585D1*
X3575970Y843533D2*
Y826334D1*
X3574024Y820586D1*
X3572123Y818640D1*
X3568321Y816739D1*
X3564474D1*
X3560671Y818640D1*
X3558726Y820586D1*
X3556824Y826334D1*
Y843533D1*
X3597016D1*
X3575970Y830136D2*
X3597016Y816739D1*
Y785242D2*
X3556869D1*
X3583619Y804387D1*
Y775691D1*
X3556869Y759493D2*
Y738491D1*
X3572167Y749943D1*
Y744195D1*
X3574069Y740392D1*
X3575970Y738491D1*
X3581718Y736545D1*
X3585520D1*
X3591268Y738491D1*
X3595115Y742293D1*
X3597016Y748041D1*
Y753789D1*
X3595115Y759493D1*
X3593170Y761395D1*
X3589367Y763340D1*
X4287063Y1044523D2*
Y1027324D1*
X4285118Y1021576D1*
X4283216Y1019630D1*
X4279414Y1017729D1*
X4275567D1*
X4271764Y1019630D1*
X4269819Y1021576D1*
X4267918Y1027324D1*
Y1044523D1*
X4308110D1*
X4287063Y1031126D2*
X4308110Y1017729D1*
Y986232D2*
X4267962D1*
X4294712Y1005377D1*
Y976681D1*
X4308110Y945185D2*
X4267962D1*
X4294712Y964330D1*
Y935634D1*
X4287063Y843494D2*
Y826294D1*
X4285118Y820546D1*
X4283216Y818601D1*
X4279414Y816699D1*
X4275567D1*
X4271764Y818601D1*
X4269819Y820546D1*
X4267918Y826294D1*
Y843494D1*
X4308110D1*
X4287063Y830097D2*
X4308110Y816699D1*
Y785203D2*
X4267962D1*
X4294712Y804348D1*
Y775652D1*
X4267962Y740353D2*
Y759454D1*
X4285162Y761355D1*
X4283260Y759454D1*
X4281315Y753706D1*
Y748002D1*
X4283260Y742254D1*
X4287063Y738407D1*
X4292811Y736506D1*
X4296614D1*
X4302362Y738407D1*
X4306208Y742254D1*
X4308110Y748002D1*
Y753706D1*
X4306208Y759454D1*
X4304263Y761355D1*
X4300460Y763301D1*
X3886906Y1042600D2*
Y1025400D1*
X3884960Y1019652D1*
X3883059Y1017707D1*
X3879256Y1015805D1*
X3875409D1*
X3871607Y1017707D1*
X3869661Y1019652D1*
X3867760Y1025400D1*
Y1042600D1*
X3907952D1*
X3886906Y1029203D2*
X3907952Y1015805D1*
Y984309D2*
X3867804D1*
X3894555Y1003454D1*
Y974758D1*
X3873508Y939459D2*
X3869706Y941360D1*
X3867804Y947108D1*
Y950911D1*
X3869706Y956659D1*
X3875454Y960505D1*
X3885004Y962407D1*
X3894555D1*
X3902204Y960505D1*
X3906051Y956659D1*
X3907952Y950911D1*
Y949009D1*
X3906051Y943306D1*
X3902204Y939459D1*
X3896456Y937558D1*
X3894555D1*
X3888807Y939459D1*
X3885004Y943306D1*
X3883103Y949009D1*
Y950911D1*
X3885004Y956659D1*
X3888807Y960505D1*
X3894555Y962407D1*
X4036304Y842579D2*
Y825379D1*
X4034359Y819631D1*
X4032458Y817686D1*
X4028655Y815785D1*
X4024808D1*
X4021006Y817686D1*
X4019060Y819631D1*
X4017159Y825379D1*
Y842579D1*
X4057351D1*
X4036304Y829182D2*
X4057351Y815785D1*
Y784288D2*
X4017203D1*
X4043954Y803433D1*
Y774737D1*
X4057351Y754737D2*
X4017203Y735591D1*
Y762386D1*
X2143643Y1030897D2*
Y1013697D1*
X2141698Y1007949D1*
X2139796Y1006004D1*
X2135994Y1004102D1*
X2132147D1*
X2128344Y1006004D1*
X2126399Y1007949D1*
X2124498Y1013697D1*
Y1030897D1*
X2164690D1*
X2143643Y1017500D2*
X2164690Y1004102D1*
Y972606D2*
X2124542D1*
X2151292Y991751D1*
Y963055D1*
X2124542Y941153D2*
X2126443Y946857D1*
X2130246Y948803D1*
X2134093D1*
X2137895Y946857D1*
X2139841Y943055D1*
X2141742Y935405D1*
X2143643Y929657D1*
X2147490Y925855D1*
X2151292Y923953D1*
X2157040D1*
X2160843Y925855D1*
X2162788Y927756D1*
X2164690Y933504D1*
Y941153D1*
X2162788Y946857D1*
X2160843Y948802D1*
X2157040Y950704D1*
X2151292D1*
X2147490Y948803D1*
X2143643Y944956D1*
X2141742Y939252D1*
X2139841Y931603D1*
X2137895Y927756D1*
X2134092Y925855D1*
X2130246D1*
X2126443Y927756D1*
X2124542Y933504D1*
Y941153D1*
X4568388Y842488D2*
Y825288D1*
X4566443Y819540D1*
X4564542Y817595D1*
X4560739Y815694D1*
X4556892D1*
X4553090Y817595D1*
X4551144Y819540D1*
X4549243Y825288D1*
Y842488D1*
X4589435D1*
X4568388Y829091D2*
X4589435Y815694D1*
Y784197D2*
X4549287D1*
X4576038Y803342D1*
Y774646D1*
X4562640Y737402D2*
X4568388Y739347D1*
X4572235Y743150D1*
X4574137Y748898D1*
Y750799D1*
X4572235Y756547D1*
X4568388Y760349D1*
X4562640Y762295D1*
X4560739D1*
X4554991Y760349D1*
X4551189Y756547D1*
X4549287Y750799D1*
Y748898D1*
X4551189Y743150D1*
X4554991Y739347D1*
X4562640Y737402D1*
X4572235D1*
X4581786Y739347D1*
X4587534Y743150D1*
X4589435Y748898D1*
Y752700D1*
X4587534Y758448D1*
X4583687Y760349D1*
X4570247Y1042622D2*
Y1025422D1*
X4568301Y1019674D1*
X4566400Y1017729D1*
X4562597Y1015828D1*
X4558751D1*
X4554948Y1017729D1*
X4553003Y1019674D1*
X4551101Y1025422D1*
Y1042622D1*
X4591293D1*
X4570247Y1029225D2*
X4591293Y1015827D1*
X4551146Y980528D2*
Y999629D1*
X4568345Y1001531D1*
X4566444Y999629D1*
X4564499Y993881D1*
Y988178D1*
X4566444Y982429D1*
X4570247Y978583D1*
X4575995Y976681D1*
X4579797D1*
X4585545Y978583D1*
X4589392Y982429D1*
X4591293Y988177D1*
Y993881D1*
X4589392Y999629D1*
X4587447Y1001531D1*
X4583644Y1003476D1*
X4551146Y952834D2*
X4553047Y958582D1*
X4558795Y962429D1*
X4568345Y964330D1*
X4574094D1*
X4583644Y962429D1*
X4589392Y958582D1*
X4591293Y952834D1*
Y949031D1*
X4589392Y943283D1*
X4583644Y939481D1*
X4574093Y937535D1*
X4568345D1*
X4558795Y939481D1*
X4553047Y943283D1*
X4551146Y949032D1*
Y952834D1*
X4558795Y939481D2*
X4583644Y962429D1*
X4429777Y832762D2*
Y815563D1*
X4427831Y809814D1*
X4425930Y807869D1*
X4422128Y805968D1*
X4418281D1*
X4414478Y807869D1*
X4412533Y809815D1*
X4410632Y815563D1*
Y832762D1*
X4450824D1*
X4429777Y819365D2*
X4450824Y805968D1*
X4410676Y770668D2*
Y789770D1*
X4427876Y791671D1*
X4425974Y789770D1*
X4424029Y784022D1*
Y778318D1*
X4425974Y772570D1*
X4429777Y768723D1*
X4435525Y766822D1*
X4439328D1*
X4445076Y768723D1*
X4448922Y772570D1*
X4450824Y778318D1*
Y784022D1*
X4448922Y789770D1*
X4446977Y791671D1*
X4443174Y793616D1*
X4418325Y754470D2*
X4416380Y750624D1*
X4410676Y744876D1*
X4450824D1*
X1919963Y828441D2*
X1902763D1*
X1897015Y830386D1*
X1895070Y832288D1*
X1893169Y836090D1*
Y839937D1*
X1895070Y843740D1*
X1897015Y845685D1*
X1902763Y847586D1*
X1919963D1*
Y807394D1*
X1906566Y828441D2*
X1893169Y807394D1*
X1857869Y847542D2*
X1876971D1*
X1878872Y830342D1*
X1876971Y832244D1*
X1871222Y834189D1*
X1865519D1*
X1859771Y832244D1*
X1855924Y828441D1*
X1854023Y822693D1*
Y818890D1*
X1855924Y813142D1*
X1859771Y809296D1*
X1865519Y807394D1*
X1871222D1*
X1876971Y809296D1*
X1878872Y811241D1*
X1880817Y815044D1*
X1839726Y837992D2*
Y839893D1*
X1837824Y843740D1*
X1835923Y845641D1*
X1832076Y847542D1*
X1824427D1*
X1820625Y845641D1*
X1818723Y843740D1*
X1816778Y839893D1*
Y836090D1*
X1818723Y832244D1*
X1822526Y826540D1*
X1841671Y807394D1*
X1814877D1*
X1999908Y1025971D2*
Y1008771D1*
X1997963Y1003023D1*
X1996061Y1001078D1*
X1992259Y999177D1*
X1988412D1*
X1984610Y1001078D1*
X1982664Y1003023D1*
X1980763Y1008771D1*
Y1025971D1*
X2020955D1*
X1999908Y1012574D2*
X2020955Y999177D1*
X1980807Y963877D2*
Y982978D1*
X1998007Y984880D1*
X1996106Y982978D1*
X1994160Y977230D1*
Y971527D1*
X1996106Y965779D1*
X1999908Y961932D1*
X2005656Y960031D1*
X2009459D1*
X2015207Y961932D1*
X2019054Y965779D1*
X2020955Y971527D1*
Y977230D1*
X2019054Y982978D1*
X2017108Y984880D1*
X2013305Y986825D1*
X1980807Y943832D2*
Y922830D1*
X1996106Y934282D1*
Y928534D1*
X1998007Y924731D1*
X1999908Y922830D1*
X2005656Y920885D1*
X2009459D1*
X2015207Y922830D1*
X2019054Y926633D1*
X2020955Y932381D1*
Y938129D1*
X2019054Y943832D1*
X2017108Y945734D1*
X2013306Y947679D1*
X2408363Y828441D2*
X2391163D1*
X2385415Y830386D1*
X2383469Y832288D1*
X2381568Y836090D1*
Y839937D1*
X2383469Y843740D1*
X2385415Y845685D1*
X2391163Y847586D1*
X2408363D1*
Y807394D1*
X2394965Y828441D2*
X2381568Y807394D1*
X2346269Y847542D2*
X2365370D1*
X2367271Y830342D1*
X2365370Y832244D1*
X2359622Y834189D1*
X2353918D1*
X2348170Y832244D1*
X2344323Y828441D1*
X2342422Y822693D1*
Y818890D1*
X2344323Y813142D1*
X2348170Y809296D1*
X2353918Y807394D1*
X2359622D1*
X2365370Y809296D1*
X2367271Y811241D1*
X2369217Y815044D1*
X2310925Y807394D2*
Y847542D1*
X2330071Y820792D1*
X2301375D1*
X4856335Y842060D2*
Y824861D1*
X4854389Y819113D1*
X4852488Y817167D1*
X4848685Y815266D1*
X4844839D1*
X4841036Y817167D1*
X4839091Y819113D1*
X4837189Y824861D1*
Y842060D1*
X4877381D1*
X4856335Y828663D2*
X4877381Y815266D1*
X4837234Y779967D2*
Y799068D1*
X4854433Y800969D1*
X4852532Y799068D1*
X4850587Y793320D1*
Y787616D1*
X4852532Y781868D1*
X4856335Y778021D1*
X4862083Y776120D1*
X4865885D1*
X4871633Y778021D1*
X4875480Y781868D1*
X4877381Y787616D1*
Y793320D1*
X4875480Y799068D1*
X4873535Y800969D1*
X4869732Y802914D1*
X4837233Y740821D2*
X4837234Y759922D1*
X4854433Y761823D1*
X4852532Y759922D1*
X4850587Y754174D1*
Y748470D1*
X4852532Y742722D1*
X4856335Y738875D1*
X4862083Y736974D1*
X4865885D1*
X4871633Y738875D1*
X4875480Y742722D1*
X4877381Y748470D1*
Y754174D1*
X4875480Y759922D1*
X4873535Y761823D1*
X4869732Y763768D1*
X4856984Y1041649D2*
Y1024450D1*
X4855039Y1018702D1*
X4853138Y1016756D1*
X4849335Y1014855D1*
X4845488D1*
X4841686Y1016756D1*
X4839740Y1018702D1*
X4837839Y1024450D1*
Y1041649D1*
X4878031D1*
X4856984Y1028252D2*
X4878031Y1014855D1*
X4837883Y979556D2*
Y998657D1*
X4855083Y1000558D1*
X4853182Y998657D1*
X4851236Y992909D1*
Y987205D1*
X4853182Y981457D1*
X4856984Y977610D1*
X4862732Y975709D1*
X4866535D1*
X4872283Y977610D1*
X4876130Y981457D1*
X4878031Y987205D1*
Y992909D1*
X4876130Y998657D1*
X4874184Y1000558D1*
X4870382Y1002503D1*
X4843587Y940409D2*
X4839784Y942311D1*
X4837883Y948059D1*
Y951861D1*
X4839784Y957609D1*
X4845532Y961456D1*
X4855083Y963357D1*
X4864634D1*
X4872283Y961456D1*
X4876130Y957609D1*
X4878031Y951861D1*
Y949960D1*
X4876130Y944256D1*
X4872283Y940409D1*
X4866535Y938508D1*
X4864634D1*
X4858886Y940409D1*
X4855083Y944256D1*
X4853182Y949960D1*
Y951861D1*
X4855083Y957609D1*
X4858886Y961456D1*
X4864634Y963357D1*
X4712123Y842466D2*
Y825266D1*
X4710178Y819518D1*
X4708277Y817573D1*
X4704474Y815672D1*
X4700627D1*
X4696825Y817573D1*
X4694879Y819518D1*
X4692978Y825266D1*
Y842466D1*
X4733170D1*
X4712123Y829069D2*
X4733170Y815672D1*
X4693022Y780372D2*
Y799473D1*
X4710222Y801375D1*
X4708321Y799473D1*
X4706375Y793725D1*
Y788022D1*
X4708321Y782274D1*
X4712123Y778427D1*
X4717871Y776525D1*
X4721674D1*
X4727422Y778427D1*
X4731269Y782273D1*
X4733170Y788022D1*
Y793725D1*
X4731269Y799473D1*
X4729323Y801375D1*
X4725521Y803320D1*
X4693022Y754624D2*
X4694924Y760327D1*
X4698726Y762273D1*
X4702573D1*
X4706375Y760327D1*
X4708321Y756525D1*
X4710222Y748876D1*
X4712123Y743128D1*
X4715970Y739325D1*
X4719773Y737424D1*
X4725521D1*
X4729323Y739325D1*
X4731269Y741226D1*
X4733170Y746974D1*
Y754624D1*
X4731269Y760327D1*
X4729323Y762273D1*
X4725521Y764174D1*
X4719773D1*
X4715970Y762273D1*
X4712123Y758426D1*
X4710222Y752722D1*
X4708321Y745073D1*
X4706375Y741226D1*
X4702573Y739325D1*
X4698726D1*
X4694923Y741226D1*
X4693022Y746974D1*
Y754624D1*
X2169664Y1752543D2*
X2152464D1*
X2146716Y1754489D1*
X2144770Y1756390D1*
X2142869Y1760193D1*
Y1764039D1*
X2144770Y1767842D1*
X2146716Y1769787D1*
X2152464Y1771689D1*
X2169664D1*
Y1731497D1*
X2156266Y1752543D2*
X2142869Y1731497D1*
X2107570Y1771644D2*
X2126671D1*
X2128572Y1754445D1*
X2126671Y1756346D1*
X2120923Y1758291D1*
X2115219D1*
X2109471Y1756346D1*
X2105624Y1752543D1*
X2103723Y1746795D1*
Y1742993D1*
X2105624Y1737245D1*
X2109471Y1733398D1*
X2115219Y1731497D1*
X2120923D1*
X2126671Y1733398D1*
X2128572Y1735343D1*
X2130518Y1739146D1*
X2066478Y1758291D2*
X2068424Y1752543D1*
X2072226Y1748697D1*
X2077974Y1746795D1*
X2079875D1*
X2085623Y1748697D1*
X2089426Y1752543D1*
X2091371Y1758291D1*
Y1760193D1*
X2089426Y1765941D1*
X2085623Y1769743D1*
X2079875Y1771644D1*
X2077974D1*
X2072226Y1769743D1*
X2068424Y1765941D1*
X2066478Y1758291D1*
Y1748697D1*
X2068424Y1739146D1*
X2072226Y1733398D1*
X2077974Y1731497D1*
X2081777D1*
X2087525Y1733398D1*
X2089426Y1737245D1*
X4430095Y1041098D2*
Y1023898D1*
X4428149Y1018150D1*
X4426248Y1016205D1*
X4422445Y1014304D1*
X4418598D1*
X4414796Y1016205D1*
X4412850Y1018150D1*
X4410949Y1023898D1*
Y1041098D1*
X4451141D1*
X4430095Y1027701D2*
X4451141Y1014304D1*
X4416697Y979004D2*
X4412895Y980906D1*
X4410993Y986654D1*
Y990456D1*
X4412895Y996204D1*
X4418643Y1000051D1*
X4428193Y1001952D1*
X4437744D1*
X4445393Y1000051D1*
X4449240Y996204D1*
X4451141Y990456D1*
Y988555D1*
X4449240Y982851D1*
X4445393Y979004D1*
X4439645Y977103D1*
X4437744D1*
X4431996Y979004D1*
X4428193Y982851D1*
X4426292Y988555D1*
Y990456D1*
X4428193Y996204D1*
X4431996Y1000051D1*
X4437744Y1001952D1*
X4410993Y953256D2*
X4412895Y959004D1*
X4418643Y962850D1*
X4428193Y964752D1*
X4433941D1*
X4443492Y962850D1*
X4449240Y959004D1*
X4451141Y953256D1*
Y949453D1*
X4449240Y943705D1*
X4443492Y939903D1*
X4433941Y937957D1*
X4428193D1*
X4418643Y939903D1*
X4412895Y943705D1*
X4410993Y949453D1*
Y953256D1*
X4418643Y939903D2*
X4443492Y962850D1*
X4711472Y1033049D2*
Y1015850D1*
X4709527Y1010102D1*
X4707626Y1008156D1*
X4703823Y1006255D1*
X4699976D1*
X4696174Y1008156D1*
X4694228Y1010102D1*
X4692327Y1015850D1*
Y1033049D1*
X4732519D1*
X4711472Y1019652D2*
X4732519Y1006255D1*
X4698075Y970956D2*
X4694273Y972857D1*
X4692371Y978605D1*
Y982407D1*
X4694273Y988155D1*
X4700021Y992002D1*
X4709571Y993903D1*
X4719122D1*
X4726771Y992002D1*
X4730618Y988155D1*
X4732519Y982407D1*
Y980506D1*
X4730618Y974802D1*
X4726771Y970956D1*
X4721023Y969054D1*
X4719122D1*
X4713374Y970956D1*
X4709571Y974802D1*
X4707670Y980506D1*
Y982407D1*
X4709571Y988155D1*
X4713374Y992002D1*
X4719122Y993903D1*
X4700021Y956703D2*
X4698075Y952856D1*
X4692371Y947108D1*
X4732519D1*
X2171216Y828441D2*
X2154016D1*
X2148268Y830386D1*
X2146323Y832288D1*
X2144422Y836090D1*
Y839937D1*
X2146323Y843740D1*
X2148268Y845685D1*
X2154016Y847586D1*
X2171216D1*
Y807394D1*
X2157819Y828441D2*
X2144422Y807394D1*
X2109122Y841838D2*
X2111024Y845641D1*
X2116772Y847542D1*
X2120574D1*
X2126322Y845641D1*
X2130169Y839893D1*
X2132070Y830342D1*
Y820792D1*
X2130169Y813142D1*
X2126322Y809296D1*
X2120574Y807394D1*
X2118673D1*
X2112969Y809296D1*
X2109122Y813142D1*
X2107221Y818890D1*
Y820792D1*
X2109122Y826540D1*
X2112969Y830342D1*
X2118673Y832244D1*
X2120574D1*
X2126322Y830342D1*
X2130169Y826540D1*
X2132070Y820792D1*
X2092924Y837992D2*
Y839893D1*
X2091023Y843740D1*
X2089122Y845641D1*
X2085275Y847542D1*
X2077626D1*
X2073823Y845641D1*
X2071922Y843740D1*
X2069976Y839893D1*
Y836090D1*
X2071922Y832244D1*
X2075724Y826540D1*
X2094870Y807394D1*
X2068075D1*
X2403480Y3102752D2*
Y3085552D1*
X2401535Y3079804D1*
X2399634Y3077858D1*
X2395831Y3075957D1*
X2391984D1*
X2388182Y3077858D1*
X2386236Y3079804D1*
X2384335Y3085552D1*
Y3102752D1*
X2424527D1*
X2403480Y3089354D2*
X2424527Y3075957D1*
X2390083Y3040658D2*
X2386280Y3042559D1*
X2384379Y3048307D1*
Y3052110D1*
X2386280Y3057858D1*
X2392029Y3061704D1*
X2401579Y3063606D1*
X2411130D1*
X2418779Y3061704D1*
X2422626Y3057858D1*
X2424527Y3052110D1*
Y3050208D1*
X2422626Y3044505D1*
X2418779Y3040658D1*
X2413031Y3038757D1*
X2411130D1*
X2405382Y3040658D1*
X2401579Y3044505D1*
X2399678Y3050208D1*
Y3052110D1*
X2401579Y3057858D1*
X2405382Y3061704D1*
X2411130Y3063606D1*
X2384379Y3003457D2*
Y3022558D1*
X2401579Y3024460D1*
X2399678Y3022558D1*
X2397732Y3016810D1*
Y3011107D1*
X2399678Y3005359D1*
X2403480Y3001512D1*
X2409228Y2999611D1*
X2413031D1*
X2418779Y3001512D1*
X2422626Y3005359D1*
X2424527Y3011107D1*
Y3016810D1*
X2422626Y3022558D1*
X2420680Y3024460D1*
X2416878Y3026405D1*
X1956799Y541648D2*
X1939599D1*
X1933851Y543593D1*
X1931905Y545494D1*
X1930004Y549297D1*
Y553144D1*
X1931905Y556946D1*
X1933851Y558892D1*
X1939599Y560793D1*
X1956799D1*
Y520601D1*
X1943401Y541648D2*
X1930004Y520601D1*
X1894705Y555045D2*
X1896606Y558848D1*
X1902354Y560749D1*
X1906157D1*
X1911905Y558848D1*
X1915751Y553100D1*
X1917653Y543549D1*
Y533998D1*
X1915751Y526349D1*
X1911905Y522502D1*
X1906157Y520601D1*
X1904255D1*
X1898551Y522502D1*
X1894705Y526349D1*
X1892803Y532097D1*
Y533998D1*
X1894705Y539746D1*
X1898551Y543549D1*
X1904255Y545450D1*
X1906157D1*
X1911905Y543549D1*
X1915751Y539746D1*
X1917653Y533998D1*
X1857504Y555045D2*
X1859405Y558848D1*
X1865153Y560749D1*
X1868956D1*
X1874704Y558848D1*
X1878551Y553100D1*
X1880452Y543549D1*
Y533998D1*
X1878551Y526349D1*
X1874704Y522502D1*
X1868956Y520601D1*
X1867055D1*
X1861351Y522502D1*
X1857504Y526349D1*
X1855603Y532097D1*
Y533998D1*
X1857504Y539746D1*
X1861351Y543549D1*
X1867055Y545450D1*
X1868956D1*
X1874704Y543549D1*
X1878551Y539746D1*
X1880452Y533998D1*
X2358903Y540516D2*
X2341703D1*
X2335955Y542461D1*
X2334010Y544363D1*
X2332109Y548165D1*
Y552012D1*
X2334010Y555814D1*
X2335955Y557760D1*
X2341703Y559661D1*
X2358903D1*
Y519469D1*
X2345506Y540516D2*
X2332109Y519469D1*
X2296809Y553913D2*
X2298711Y557716D1*
X2304459Y559617D1*
X2308261D1*
X2314009Y557716D1*
X2317856Y551968D1*
X2319757Y542417D1*
Y532866D1*
X2317856Y525217D1*
X2314009Y521370D1*
X2308261Y519469D1*
X2306360D1*
X2300656Y521370D1*
X2296809Y525217D1*
X2294908Y530965D1*
Y532866D1*
X2296809Y538614D1*
X2300656Y542417D1*
X2306360Y544318D1*
X2308261D1*
X2314009Y542417D1*
X2317856Y538614D1*
X2319757Y532866D1*
X2274907Y519469D2*
X2255762Y559617D1*
X2282557D1*
X1090131Y553016D2*
X1072931D1*
X1067183Y554961D1*
X1065238Y556863D1*
X1063337Y560665D1*
Y564512D1*
X1065238Y568314D1*
X1067183Y570260D1*
X1072931Y572161D1*
X1090131D1*
Y531969D1*
X1076734Y553016D2*
X1063337Y531969D1*
X1028037Y566413D2*
X1029939Y570216D1*
X1035687Y572117D1*
X1039489D1*
X1045237Y570216D1*
X1049084Y564468D1*
X1050985Y554917D1*
Y545366D1*
X1049084Y537717D1*
X1045237Y533870D1*
X1039489Y531969D1*
X1037588D1*
X1031884Y533870D1*
X1028037Y537717D1*
X1026136Y543465D1*
Y545366D1*
X1028037Y551114D1*
X1031884Y554917D1*
X1037588Y556818D1*
X1039489D1*
X1045237Y554917D1*
X1049084Y551114D1*
X1050985Y545366D1*
X1004234Y572117D2*
X1009938Y570216D1*
X1011883Y566413D1*
Y562566D1*
X1009938Y558764D1*
X1006135Y556818D1*
X998486Y554917D1*
X992738Y553016D1*
X988935Y549169D1*
X987034Y545366D1*
Y539618D1*
X988935Y535816D1*
X990837Y533870D1*
X996585Y531969D1*
X1004234D1*
X1009938Y533870D1*
X1011883Y535816D1*
X1013785Y539618D1*
Y545366D1*
X1011883Y549169D1*
X1008037Y553016D1*
X1002333Y554917D1*
X994683Y556818D1*
X990837Y558764D1*
X988935Y562566D1*
Y566413D1*
X990837Y570216D1*
X996585Y572117D1*
X1004234D1*
X1489203Y546766D2*
X1472003D1*
X1466255Y548711D1*
X1464309Y550613D1*
X1462408Y554415D1*
Y558262D1*
X1464309Y562064D1*
X1466255Y564010D1*
X1472003Y565911D1*
X1489203D1*
Y525719D1*
X1475805Y546766D2*
X1462408Y525719D1*
X1427109Y560163D2*
X1429010Y563966D1*
X1434758Y565867D1*
X1438561D1*
X1444309Y563966D1*
X1448155Y558218D1*
X1450057Y548667D1*
Y539116D1*
X1448155Y531467D1*
X1444309Y527620D1*
X1438561Y525719D1*
X1436659D1*
X1430955Y527620D1*
X1427109Y531467D1*
X1425207Y537215D1*
Y539116D1*
X1427109Y544864D1*
X1430955Y548667D1*
X1436659Y550568D1*
X1438561D1*
X1444309Y548667D1*
X1448155Y544864D1*
X1450057Y539116D1*
X1387963Y552514D2*
X1389908Y546766D1*
X1393711Y542919D1*
X1399459Y541018D1*
X1401360D1*
X1407108Y542919D1*
X1410911Y546766D1*
X1412856Y552514D1*
Y554415D1*
X1410911Y560163D1*
X1407108Y563966D1*
X1401360Y565867D1*
X1399459D1*
X1393711Y563966D1*
X1389908Y560163D1*
X1387963Y552514D1*
Y542919D1*
X1389908Y533368D1*
X1393711Y527620D1*
X1399459Y525719D1*
X1403261D1*
X1409009Y527620D1*
X1410911Y531467D1*
X1518193Y2839532D2*
X1558385Y2824233D1*
X1518193Y2808935D1*
Y2796583D2*
X1558385D1*
Y2783186D1*
X1556439Y2777438D1*
X1552637Y2773591D1*
X1548790Y2771690D1*
X1543086Y2769789D1*
X1533491D1*
X1527743Y2771690D1*
X1523941Y2773591D1*
X1520094Y2777438D1*
X1518193Y2783186D1*
Y2796583D1*
X1525886Y2757437D2*
X1523941Y2753591D1*
X1518237Y2747843D1*
X1558385Y2747842D1*
X1518237Y2731644D2*
Y2710642D1*
X1533535Y2722094D1*
Y2716346D1*
X1535437Y2712543D1*
X1537338Y2710642D1*
X1543086Y2708697D1*
X1546888D1*
X1552637Y2710642D1*
X1556483Y2714445D1*
X1558385Y2720193D1*
Y2725941D1*
X1556483Y2731644D1*
X1554538Y2733546D1*
X1550735Y2735491D1*
X5500719Y1440314D2*
X5485420Y1400122D1*
X5470122Y1440314D1*
X5457770D2*
Y1400122D1*
X5444373D1*
X5438625Y1402068D1*
X5434778Y1405870D1*
X5432877Y1409717D1*
X5430976Y1415421D1*
Y1425015D1*
X5432877Y1430763D1*
X5434778Y1434566D1*
X5438625Y1438413D1*
X5444373Y1440314D1*
X5457770D1*
X5418624Y1432621D2*
X5414777Y1434566D1*
X5409029Y1440270D1*
Y1400122D1*
X5377533D2*
Y1440270D1*
X5396678Y1413519D1*
X5367982D1*
X3836571Y935901D2*
X3821272Y895709D1*
X3805973Y935901D1*
X3780225D2*
Y895709D1*
X3793622Y935901D2*
X3766827D1*
X3752530Y926307D2*
Y928208D1*
X3750629Y932055D1*
X3748728Y933956D1*
X3744881Y935857D1*
X3737232D1*
X3733429Y933956D1*
X3731528Y932055D1*
X3729583Y928208D1*
Y924405D1*
X3731528Y920558D1*
X3735331Y914855D1*
X3754476Y895709D1*
X3727681D1*
X5979882Y4055429D2*
X5953088Y4015237D1*
Y4055429D2*
X5979882Y4015237D1*
X5940736Y4047735D2*
X5936889Y4049681D1*
X5931141Y4055385D1*
Y4015237D1*
X4150127Y3369586D2*
X4123332D1*
X4150127Y3329394D1*
X4123332D1*
X4099485Y3369586D2*
X4103287Y3367729D1*
X4107134Y3363883D1*
X4109035Y3360036D1*
X4110981Y3354288D1*
Y3344737D1*
X4109035Y3338989D1*
X4107134Y3335187D1*
X4103287Y3331340D1*
X4099485Y3329439D1*
X4091835D1*
X4087988Y3331340D1*
X4084186Y3335187D1*
X4082285Y3338989D1*
X4080339Y3344737D1*
Y3354288D1*
X4082285Y3360036D1*
X4084186Y3363883D1*
X4087988Y3367729D1*
X4091835Y3369586D1*
X4099485D1*
X4093737Y3337088D2*
X4082285Y3325592D1*
X4067988Y3361893D2*
X4064141Y3363838D1*
X4058393Y3369542D1*
Y3329394D1*
X3554738Y2907397D2*
X3527944D1*
X3554738Y2867205D1*
X3527944D1*
X3504096Y2907397D2*
X3507899Y2905540D1*
X3511746Y2901694D1*
X3513647Y2897847D1*
X3515592Y2892099D1*
Y2882548D1*
X3513647Y2876800D1*
X3511746Y2872998D1*
X3507899Y2869151D1*
X3504096Y2867250D1*
X3496447D1*
X3492600Y2869151D1*
X3488798Y2872998D1*
X3486896Y2876800D1*
X3484951Y2882548D1*
Y2892099D1*
X3486896Y2897847D1*
X3488798Y2901694D1*
X3492600Y2905540D1*
X3496447Y2907397D1*
X3504096D1*
X3498348Y2874899D2*
X3486896Y2863403D1*
X3470654Y2897803D2*
Y2899704D1*
X3468753Y2903551D1*
X3466852Y2905452D1*
X3463005Y2907353D1*
X3455355D1*
X3451553Y2905452D1*
X3449652Y2903551D1*
X3447706Y2899704D1*
Y2895901D1*
X3449652Y2892055D1*
X3453454Y2886351D1*
X3472600Y2867205D1*
X3445805D1*
M02*
