G04 DipTrace 3.2.0.1*
G04 TopSilk.gbr*
%MOIN*%
G04 #@! TF.FileFunction,Legend,Top*
G04 #@! TF.Part,Single*
%ADD10C,0.009843*%
%ADD22C,0.019688*%
%ADD26C,0.019683*%
%ADD38C,0.015401*%
%ADD42C,0.015401*%
%ADD49C,0.015665*%
%ADD58C,0.027515*%
%ADD65C,0.023613*%
%ADD68C,0.015404*%
%ADD176C,0.006176*%
%FSLAX26Y26*%
G04*
G70*
G90*
G75*
G01*
G04 TopSilk*
%LPD*%
X4347391Y3753884D2*
D10*
X4392018Y3709516D1*
X4352643Y3759166D2*
X4397269Y3714798D1*
X4352643Y3759166D2*
X4336032Y3742459D1*
X4397269Y3714798D2*
X4380659Y3698091D1*
X4974803Y4153512D2*
Y4090583D1*
X4982252Y4153512D2*
Y4090583D1*
Y4153512D2*
X4958693D1*
X4982252Y4090583D2*
X4958693D1*
X3787008Y3126016D2*
Y3188945D1*
X3779559Y3126016D2*
Y3188945D1*
Y3126016D2*
X3803118D1*
X3779559Y3188945D2*
X3803118D1*
X3787008Y3271685D2*
Y3334614D1*
X3779559Y3271685D2*
Y3334614D1*
Y3271685D2*
X3803118D1*
X3779559Y3334614D2*
X3803118D1*
X4483858Y3921291D2*
Y3984220D1*
X4476409Y3921291D2*
Y3984220D1*
Y3921291D2*
X4499969D1*
X4476409Y3984220D2*
X4499969D1*
X5157449Y4338189D2*
X5094520D1*
X5157449Y4330740D2*
X5094520D1*
X5157449D2*
Y4354299D1*
X5094520Y4330740D2*
Y4354299D1*
X3799181Y3554724D2*
X3736252D1*
X3799181Y3547276D2*
X3736252D1*
X3799181D2*
Y3570835D1*
X3736252Y3547276D2*
Y3570835D1*
X4521260Y4011843D2*
Y4074772D1*
X4513811Y4011843D2*
Y4074772D1*
Y4011843D2*
X4537370D1*
X4513811Y4074772D2*
X4537370D1*
X5271173Y2962101D2*
X5316072Y2918008D1*
X5276392Y2967415D2*
X5321291Y2923323D1*
X5276392Y2967415D2*
X5259885Y2950606D1*
X5321291Y2923323D2*
X5304784Y2906514D1*
X807087Y3543307D2*
G02X807087Y3543307I98421J0D01*
G01*
X1031496Y3555118D2*
Y3531497D1*
X1043307Y3543307D2*
X1019685D1*
X1550787Y3860268D2*
Y3923197D1*
X1543339Y3860268D2*
Y3923197D1*
Y3860268D2*
X1566898D1*
X1543339Y3923197D2*
X1566898D1*
X1834677Y4281890D2*
X1897606D1*
X1834677Y4289339D2*
X1897606D1*
X1834677D2*
Y4265780D1*
X1897606Y4289339D2*
Y4265780D1*
D22*
X2027559Y4391733D3*
X1972441Y4287396D2*
D10*
Y4267713D1*
X2082677Y4287396D2*
Y4267713D1*
X3003969Y4039764D2*
X3066898D1*
X3003969Y4047213D2*
X3066898D1*
X3003969D2*
Y4023654D1*
X3066898Y4047213D2*
Y4023654D1*
X3301150Y4033071D2*
X3238220D1*
X3301150Y4025622D2*
X3238220D1*
X3301150D2*
Y4049181D1*
X3238220Y4025622D2*
Y4049181D1*
D26*
X3181752Y1697226D3*
X3077414Y1752344D2*
D10*
X3057731D1*
X3077414Y1642108D2*
X3057731D1*
X3067627Y1566207D2*
Y1503278D1*
X3075076Y1566207D2*
Y1503278D1*
Y1566207D2*
X3051517D1*
X3075076Y1503278D2*
X3051517D1*
D26*
X3181752Y1284769D3*
X3077414Y1339887D2*
D10*
X3057731D1*
X3077414Y1229651D2*
X3057731D1*
X3067627Y1478717D2*
Y1415787D1*
X3075076Y1478717D2*
Y1415787D1*
Y1478717D2*
X3051517D1*
X3075076Y1415787D2*
X3051517D1*
X2869234Y1503278D2*
Y1566207D1*
X2861785Y1503278D2*
Y1566207D1*
Y1503278D2*
X2885344D1*
X2861785Y1566207D2*
X2885344D1*
X2869234Y1415787D2*
Y1478717D1*
X2861785Y1415787D2*
Y1478717D1*
Y1415787D2*
X2885344D1*
X2861785Y1478717D2*
X2885344D1*
X3444567Y924717D2*
Y987646D1*
X3437118Y924717D2*
Y987646D1*
Y924717D2*
X3460677D1*
X3437118Y987646D2*
X3460677D1*
X3445669Y839835D2*
Y902764D1*
X3438220Y839835D2*
Y902764D1*
Y839835D2*
X3461780D1*
X3438220Y902764D2*
X3461780D1*
D26*
X3337794Y1059252D3*
X3442132Y1004134D2*
D10*
X3461815D1*
X3442132Y1114370D2*
X3461815D1*
D26*
X1155277Y1459192D3*
X1259615Y1404073D2*
D10*
X1279298D1*
X1259615Y1514310D2*
X1279298D1*
X1153575Y1712992D2*
X1216504D1*
X1153575Y1720441D2*
X1216504D1*
X1153575D2*
Y1696882D1*
X1216504Y1720441D2*
Y1696882D1*
D26*
X2030185Y1447252D3*
X2134523Y1392134D2*
D10*
X2154206D1*
X2134523Y1502370D2*
X2154206D1*
X4675323Y885709D2*
X4612394D1*
X4675323Y878260D2*
X4612394D1*
X4675323D2*
Y901819D1*
X4612394Y878260D2*
Y901819D1*
X4963315Y885709D2*
X4900386D1*
X4963315Y878260D2*
X4900386D1*
X4963315D2*
Y901819D1*
X4900386Y878260D2*
Y901819D1*
X1995669Y1598457D2*
Y1661386D1*
X1988220Y1598457D2*
Y1661386D1*
Y1598457D2*
X2011780D1*
X1988220Y1661386D2*
X2011780D1*
X1998218Y2162806D2*
G02X1998218Y2162806I0J196850D01*
G01*
X1986407Y2525010D2*
X2010029D1*
X1998218Y2536822D2*
Y2513199D1*
X1356102Y2952756D2*
G02X1356102Y2952756I0J-157480D01*
G01*
X1367913Y2669291D2*
X1344291D1*
X1356102Y2657480D2*
Y2681102D1*
X1031142Y2952756D2*
G02X1031142Y2952756I0J-157480D01*
G01*
X1042953Y2669291D2*
X1019331D1*
X1031142Y2657480D2*
Y2681102D1*
X668669Y3326772D2*
G02X668669Y3326772I0J-98421D01*
G01*
X680480Y3102362D2*
X656859D1*
X668669Y3090551D2*
Y3114173D1*
X908039Y3326772D2*
G02X908039Y3326772I0J-98421D01*
G01*
X919850Y3102362D2*
X896229D1*
X908039Y3090551D2*
Y3114173D1*
X5180698Y1333207D2*
G02X5180698Y1333207I0J196850D01*
G01*
X5168887Y1695412D2*
X5192509D1*
X5180698Y1707223D2*
Y1683601D1*
Y852008D2*
G02X5180698Y852008I0J196850D01*
G01*
X5168887Y1214213D2*
X5192509D1*
X5180698Y1226024D2*
Y1202402D1*
D38*
X2932229Y4154274D3*
X2926966Y4100208D2*
D10*
X2808858D1*
X2926966Y4068718D2*
X2808858D1*
Y4100208D2*
Y4068718D1*
X2926966Y4100208D2*
Y4068718D1*
X1705413Y1601133D2*
X1469193D1*
Y817668D1*
X1705413D1*
Y1601133D1*
X1232831Y1232884D2*
Y1331290D1*
X1262372D1*
X1380457D2*
X1409997D1*
Y1232884D1*
D42*
X1223734Y1174254D3*
X2580413Y1607382D2*
D10*
X2344193D1*
Y823917D1*
X2580413D1*
Y1607382D1*
X2113989Y1217913D2*
Y1316319D1*
X2143529D1*
X2261614D2*
X2291155D1*
Y1217913D1*
D42*
X2104892Y1159283D3*
X1912480Y3557638D2*
D10*
X2329803D1*
X1912480Y3215593D2*
X2329803D1*
Y3829415D1*
X1912480Y3215593D2*
Y3829415D1*
X2003039D1*
X2239244D2*
X2329803D1*
X3300950Y359466D2*
X2660862D1*
X3299668Y738056D2*
Y244291D1*
X2662143D1*
Y738056D1*
Y844306D2*
Y1094291D1*
X3299668D1*
Y844306D1*
X4607962Y3169274D2*
X5355915D1*
Y3917046D1*
X4607962D1*
Y3169274D1*
D49*
X4615795Y3122007D3*
G36*
X4607962Y3169274D2*
X4659123D1*
X4607962Y3220345D1*
Y3169274D1*
G37*
X1198733Y1051973D2*
D10*
Y855119D1*
X1301109Y1051973D2*
Y855119D1*
X1198733D2*
X1301109D1*
X1230227Y1051973D2*
X1198733D1*
X1269616D2*
X1301109D1*
X1230227D2*
G03X1269616Y1051973I19694J9D01*
G01*
X2079891Y1058222D2*
Y861368D1*
X2182267Y1058222D2*
Y861368D1*
X2079891D2*
X2182267D1*
X2111384Y1058222D2*
X2079891D1*
X2150773D2*
X2182267D1*
X2111384D2*
G03X2150773Y1058222I19694J9D01*
G01*
X4814959Y4334442D2*
X5011813D1*
X4814959Y4436818D2*
X5011813D1*
Y4334442D2*
Y4436818D1*
X4814959Y4365935D2*
Y4334442D1*
Y4405324D2*
Y4436818D1*
Y4365935D2*
G03X4814959Y4405324I-9J19694D01*
G01*
D58*
X3858290Y2903543D3*
X3828761Y2805106D2*
D10*
Y3001980D1*
Y2805106D2*
X3635819D1*
X3828761Y3001980D2*
X3635819D1*
Y2805106D2*
G02X3635819Y3001980I-435647J98437D01*
G01*
X5718201Y1834764D2*
X5530691D1*
Y822264D1*
X5718201D1*
Y1834764D1*
Y1397466D2*
X5530691Y1397263D1*
X5718201Y1259766D2*
X5530691Y1259563D1*
X5730696Y1809756D2*
X5705706D1*
Y1547214D1*
X5730696D1*
Y1809756D1*
X5543186Y1822311D2*
X5518196D1*
Y1534761D1*
X5543186D1*
Y1822311D1*
X5730696Y1059898D2*
X5705706D1*
Y847273D1*
X5730696D1*
Y1059898D1*
X5543186Y1059797D2*
X5518196D1*
Y834718D1*
X5543186D1*
Y1059797D1*
X3886659Y4097165D2*
X4186622D1*
Y3997160D1*
X3886659D1*
Y4097165D1*
X4304326Y4320067D2*
X4404331D1*
Y4520091D1*
X4304326D1*
Y4320067D1*
X2794483Y3424397D2*
X2894488D1*
Y3624421D1*
X2794483D1*
Y3424397D1*
X1820067Y4518509D2*
X2020091D1*
Y4418504D1*
X1820067D1*
Y4518509D1*
X949882Y841048D2*
X1049887D1*
Y1041072D1*
X949882D1*
Y841048D1*
X1674827Y684849D2*
X1574822D1*
Y484825D1*
X1674827D1*
Y684849D1*
X1824790Y859796D2*
X1924795D1*
Y1059820D1*
X1824790D1*
Y859796D1*
X2530987Y684849D2*
X2430982D1*
Y484825D1*
X2530987D1*
Y684849D1*
X787399Y2384636D2*
X887404D1*
Y2584660D1*
X787399D1*
Y2384636D1*
X6161444Y2663417D2*
X6129944D1*
X6161444Y2608299D2*
X6129944D1*
X3189518Y3640648D2*
G02X3189518Y3640648I187008J0D01*
G01*
X1053150Y3700787D2*
G02X1053150Y3700787I187008J0D01*
G01*
X3203312Y1247738D2*
Y1216238D1*
X3258430Y1247738D2*
Y1216238D1*
X2789402Y2013753D2*
Y2045253D1*
X2734283Y2013753D2*
Y2045253D1*
X2935976Y2022650D2*
Y2054150D1*
X2880858Y2022650D2*
Y2054150D1*
X3779575Y1009909D2*
Y978409D1*
X3834693Y1009909D2*
Y978409D1*
X1394055Y2362205D2*
G02X1394055Y2362205I187008J0D01*
G01*
X981614D2*
G02X981614Y2362205I187008J0D01*
G01*
X1053150Y3228346D2*
G02X1053150Y3228346I187008J0D01*
G01*
X4127984Y3854362D2*
X4151543D1*
X4127984Y3917291D2*
X4151543D1*
X4716567Y4454693D2*
Y4431134D1*
X4779496Y4454693D2*
Y4431134D1*
X5157449Y4539402D2*
Y4562961D1*
X5094520Y4539402D2*
Y4562961D1*
X1584677Y4127921D2*
Y4104362D1*
X1647606Y4127921D2*
Y4104362D1*
X3574772Y1679102D2*
X3551213D1*
X3574772Y1616173D2*
X3551213D1*
X3574772Y1816588D2*
X3551213D1*
X3574772Y1753659D2*
X3551213D1*
X3574772Y1541617D2*
X3551213D1*
X3574772Y1478688D2*
X3551213D1*
X2598457Y4019717D2*
X2622016D1*
X2598457Y4082646D2*
X2622016D1*
X2861785Y1259554D2*
X2885344D1*
X2861785Y1322483D2*
X2885344D1*
X2887596Y1722441D2*
X2864037D1*
X2887596Y1659512D2*
X2864037D1*
X1198197Y1275386D2*
Y1298945D1*
X1135268Y1275386D2*
Y1298945D1*
X2074992Y1253115D2*
Y1276675D1*
X2012063Y1253115D2*
Y1276675D1*
X1738220Y2655480D2*
Y2631921D1*
X1801150Y2655480D2*
Y2631921D1*
X730283Y2478378D2*
Y2501937D1*
X667354Y2478378D2*
Y2501937D1*
X3884257Y3600197D2*
G02X3884257Y3600197I70861J0D01*
G01*
X3837001Y3690752D2*
Y3509642D1*
X3915721Y3482072D2*
X3994491D1*
X4073235Y3509642D2*
Y3674998D1*
X3994491Y3718322D2*
X3915721D1*
X3896047Y3600197D2*
G02X3896047Y3600197I59059J0D01*
G01*
X1547276Y4368079D2*
X1570835D1*
X1547276Y4305150D2*
X1570835D1*
X1554690D2*
Y4368079D1*
X1547241Y4305150D2*
Y4368079D1*
X2537665Y4528562D2*
Y4505003D1*
X2474736Y4528562D2*
Y4505003D1*
Y4521148D2*
X2537665D1*
X2474736Y4528596D2*
X2537665D1*
X2755937Y3877921D2*
X2779496D1*
X2755937Y3814992D2*
X2779496D1*
X2763351D2*
Y3877921D1*
X2755902Y3814992D2*
Y3877921D1*
X993231Y1141066D2*
X1016790D1*
X993231Y1078136D2*
X1016790D1*
X1000645D2*
Y1141066D1*
X993196Y1078136D2*
Y1141066D1*
X3832674Y547772D2*
Y724944D1*
X3974410Y547772D2*
Y724944D1*
X3832674D2*
X3842525D1*
X3832674Y547772D2*
X3842525D1*
X3964559Y724944D2*
X3974410D1*
X3964559Y547772D2*
X3974410D1*
D65*
X3903542Y475930D3*
X3635705Y541521D2*
D10*
Y718693D1*
X3777442Y541521D2*
Y718693D1*
X3635705D2*
X3645556D1*
X3635705Y541521D2*
X3645556D1*
X3767591Y718693D2*
X3777442D1*
X3767591Y541521D2*
X3777442D1*
D65*
X3706573Y469679D3*
X4250913Y900717D2*
D10*
Y877157D1*
X4187984Y900717D2*
Y877157D1*
Y893302D2*
X4250913D1*
X4187984Y900751D2*
X4250913D1*
X4393394Y900717D2*
Y877157D1*
X4330465Y900717D2*
Y877157D1*
Y893302D2*
X4393394D1*
X4330465Y900751D2*
X4393394D1*
X1868139Y1153751D2*
X1891698D1*
X1868139Y1090822D2*
X1891698D1*
X1875553D2*
Y1153751D1*
X1868104Y1090822D2*
Y1153751D1*
X4472945Y881291D2*
Y904850D1*
X4535874Y881291D2*
Y904850D1*
Y888706D2*
X4472945D1*
X4535874Y881257D2*
X4472945D1*
X4754874Y878260D2*
Y901819D1*
X4817803Y878260D2*
Y901819D1*
Y885674D2*
X4754874D1*
X4817803Y878225D2*
X4754874D1*
X667328Y2791580D2*
Y2815139D1*
X730257Y2791580D2*
Y2815139D1*
Y2798994D2*
X667328D1*
X730257Y2791545D2*
X667328D1*
D68*
X2890411Y3816000D3*
X2899612Y3866142D2*
D10*
X3017717D1*
Y3885827D1*
X2899612D1*
Y3866142D1*
X6318129Y1590769D2*
Y1565969D1*
X6218029Y1590769D2*
X6318129D1*
X6218029D2*
Y1565969D1*
X6318129Y2365969D2*
Y2341169D1*
X6218029D2*
X6318129D1*
X6218029Y2365969D2*
Y2341169D1*
X6093079Y1565969D2*
X6443079D1*
X6093079Y2365969D2*
X6443079D1*
X6093079D2*
Y1565969D1*
X6412979Y1885969D2*
X6443079D1*
X6412979Y2045969D2*
Y1885969D1*
Y2045969D2*
X6443079D1*
Y1885969D2*
Y1565969D1*
Y2365969D2*
Y2045969D1*
X4552165Y2147194D2*
X5571850D1*
Y1947194D1*
X4552165D1*
Y2147194D1*
X884252Y767717D2*
X1484252D1*
Y440945D1*
X884252D1*
Y767717D1*
X4033858D2*
X5033858D1*
Y440945D1*
X4033858D1*
Y767717D1*
X4371916Y1947244D2*
X3352231D1*
Y2147244D1*
X4371916D1*
Y1947244D1*
X1750394Y767717D2*
X2350394D1*
Y440945D1*
X1750394D1*
Y767717D1*
X2974651Y1937402D2*
X3174651D1*
Y2157087D1*
X2974651D1*
Y1937402D1*
X5096850Y767717D2*
X5696850D1*
Y440945D1*
X5096850D1*
Y767717D1*
X2738186Y4468454D2*
X2713386D1*
X2738186Y4568554D2*
Y4468454D1*
Y4568554D2*
X2713386D1*
X3513386Y4468454D2*
X3488586D1*
Y4568554D2*
Y4468454D1*
X3513386Y4568554D2*
X3488586D1*
X2713386Y4693504D2*
Y4343504D1*
X3513386Y4693504D2*
Y4343504D1*
Y4693504D2*
X2713386D1*
X3033386Y4373604D2*
Y4343504D1*
X3193386Y4373604D2*
X3033386D1*
X3193386D2*
Y4343504D1*
X3033386D2*
X2713386D1*
X3513386D2*
X3193386D1*
X4320813Y3810912D2*
D176*
X4318912Y3814715D1*
X4315065Y3818562D1*
X4311263Y3820463D1*
X4303613D1*
X4299767Y3818562D1*
X4295964Y3814715D1*
X4294019Y3810912D1*
X4292117Y3805164D1*
Y3795569D1*
X4294019Y3789866D1*
X4295964Y3786019D1*
X4299767Y3782216D1*
X4303613Y3780271D1*
X4311263D1*
X4315065Y3782216D1*
X4318912Y3786019D1*
X4320813Y3789866D1*
X4333165Y3812769D2*
X4337011Y3814715D1*
X4342759Y3820419D1*
Y3780271D1*
X4965247Y4206508D2*
X4963346Y4210311D1*
X4959499Y4214158D1*
X4955697Y4216059D1*
X4948047D1*
X4944201Y4214158D1*
X4940398Y4210311D1*
X4938453Y4206508D1*
X4936551Y4200760D1*
Y4191165D1*
X4938453Y4185462D1*
X4940398Y4181615D1*
X4944201Y4177812D1*
X4948047Y4175867D1*
X4955697D1*
X4959499Y4177812D1*
X4963346Y4181615D1*
X4965247Y4185462D1*
X4979544Y4206464D2*
Y4208365D1*
X4981446Y4212212D1*
X4983347Y4214113D1*
X4987194Y4216015D1*
X4994843D1*
X4998645Y4214113D1*
X5000547Y4212212D1*
X5002492Y4208365D1*
Y4204563D1*
X5000547Y4200716D1*
X4996744Y4195012D1*
X4977599Y4175867D1*
X5004393D1*
X3787064Y3241941D2*
X3785163Y3245744D1*
X3781316Y3249591D1*
X3777514Y3251492D1*
X3769864D1*
X3766018Y3249591D1*
X3762215Y3245744D1*
X3760269Y3241941D1*
X3758368Y3236193D1*
Y3226598D1*
X3760269Y3220895D1*
X3762215Y3217048D1*
X3766018Y3213245D1*
X3769864Y3211300D1*
X3777514D1*
X3781316Y3213245D1*
X3785163Y3217048D1*
X3787064Y3220895D1*
X3824309Y3238095D2*
X3822363Y3232346D1*
X3818561Y3228500D1*
X3812813Y3226598D1*
X3810912D1*
X3805164Y3228500D1*
X3801361Y3232346D1*
X3799416Y3238095D1*
Y3239996D1*
X3801361Y3245744D1*
X3805164Y3249546D1*
X3810912Y3251448D1*
X3812813D1*
X3818561Y3249546D1*
X3822363Y3245744D1*
X3824309Y3238095D1*
Y3228500D1*
X3822363Y3218949D1*
X3818561Y3213201D1*
X3812813Y3211300D1*
X3809010D1*
X3803262Y3213201D1*
X3801361Y3217048D1*
X3775140Y3387611D2*
X3773239Y3391413D1*
X3769392Y3395260D1*
X3765590Y3397161D1*
X3757941D1*
X3754094Y3395260D1*
X3750291Y3391413D1*
X3748346Y3387611D1*
X3746444Y3381863D1*
Y3372268D1*
X3748346Y3366564D1*
X3750291Y3362717D1*
X3754094Y3358915D1*
X3757941Y3356969D1*
X3765590D1*
X3769392Y3358915D1*
X3773239Y3362717D1*
X3775140Y3366564D1*
X3787492Y3389468D2*
X3791339Y3391413D1*
X3797087Y3397117D1*
Y3356969D1*
X3811383Y3387566D2*
Y3389468D1*
X3813285Y3393314D1*
X3815186Y3395216D1*
X3819033Y3397117D1*
X3826682D1*
X3830485Y3395216D1*
X3832386Y3393314D1*
X3834331Y3389468D1*
Y3385665D1*
X3832386Y3381818D1*
X3828583Y3376114D1*
X3809438Y3356969D1*
X3836233D1*
X4426715Y3895485D2*
X4424814Y3899287D1*
X4420967Y3903134D1*
X4417165Y3905035D1*
X4409515D1*
X4405669Y3903134D1*
X4401866Y3899287D1*
X4399921Y3895485D1*
X4398019Y3889737D1*
Y3880142D1*
X4399921Y3874438D1*
X4401866Y3870591D1*
X4405669Y3866789D1*
X4409515Y3864843D1*
X4417165D1*
X4420967Y3866789D1*
X4424814Y3870591D1*
X4426715Y3874438D1*
X4439067Y3897342D2*
X4442913Y3899287D1*
X4448661Y3904991D1*
Y3864843D1*
X4464860Y3904991D2*
X4485862D1*
X4474410Y3889692D1*
X4480158D1*
X4483961Y3887791D1*
X4485862Y3885890D1*
X4487807Y3880142D1*
Y3876339D1*
X4485862Y3870591D1*
X4482059Y3866744D1*
X4476311Y3864843D1*
X4470563D1*
X4464860Y3866744D1*
X4462958Y3868690D1*
X4461013Y3872492D1*
X5041523Y4325371D2*
X5037721Y4323470D1*
X5033874Y4319623D1*
X5031973Y4315820D1*
Y4308171D1*
X5033874Y4304324D1*
X5037721Y4300522D1*
X5041523Y4298576D1*
X5047271Y4296675D1*
X5056866D1*
X5062570Y4298576D1*
X5066417Y4300522D1*
X5070219Y4304324D1*
X5072165Y4308171D1*
Y4315820D1*
X5070219Y4319623D1*
X5066417Y4323470D1*
X5062570Y4325371D1*
X5039666Y4337722D2*
X5037721Y4341569D1*
X5032017Y4347317D1*
X5072165D1*
Y4378814D2*
X5032017D1*
X5058767Y4359669D1*
Y4388364D1*
X3683256Y3542857D2*
X3679453Y3540956D1*
X3675606Y3537109D1*
X3673705Y3533307D1*
Y3525657D1*
X3675606Y3521810D1*
X3679453Y3518008D1*
X3683256Y3516062D1*
X3689004Y3514161D1*
X3698598D1*
X3704302Y3516062D1*
X3708149Y3518008D1*
X3711952Y3521810D1*
X3713897Y3525657D1*
Y3533306D1*
X3711952Y3537109D1*
X3708149Y3540956D1*
X3704302Y3542857D1*
X3681399Y3555208D2*
X3679453Y3559055D1*
X3673749Y3564803D1*
X3713897D1*
Y3584804D2*
X3673749Y3603949D1*
Y3577155D1*
X4500792Y4127768D2*
X4498891Y4131571D1*
X4495044Y4135417D1*
X4491242Y4137319D1*
X4483593D1*
X4479746Y4135417D1*
X4475943Y4131571D1*
X4473998Y4127768D1*
X4472097Y4122020D1*
Y4112425D1*
X4473998Y4106721D1*
X4475943Y4102875D1*
X4479746Y4099072D1*
X4483593Y4097127D1*
X4491242D1*
X4495044Y4099072D1*
X4498891Y4102875D1*
X4500792Y4106721D1*
X4515089Y4127724D2*
Y4129625D1*
X4516991Y4133472D1*
X4518892Y4135373D1*
X4522739Y4137274D1*
X4530388D1*
X4534190Y4135373D1*
X4536092Y4133472D1*
X4538037Y4129625D1*
Y4125823D1*
X4536092Y4121976D1*
X4532289Y4116272D1*
X4513144Y4097127D1*
X4539939D1*
X4575238Y4137274D2*
X4556137D1*
X4554235Y4120075D1*
X4556137Y4121976D1*
X4561885Y4123921D1*
X4567589D1*
X4573337Y4121976D1*
X4577183Y4118173D1*
X4579085Y4112425D1*
Y4108623D1*
X4577183Y4102875D1*
X4573337Y4099028D1*
X4567589Y4097127D1*
X4561885D1*
X4556137Y4099028D1*
X4554235Y4100973D1*
X4552290Y4104776D1*
X5265812Y3072618D2*
X5263911Y3076420D1*
X5260064Y3080267D1*
X5256261Y3082168D1*
X5248612D1*
X5244765Y3080267D1*
X5240963Y3076420D1*
X5239017Y3072618D1*
X5237116Y3066870D1*
Y3057275D1*
X5239017Y3051571D1*
X5240963Y3047724D1*
X5244765Y3043922D1*
X5248612Y3041976D1*
X5256261D1*
X5260064Y3043922D1*
X5263911Y3047724D1*
X5265812Y3051571D1*
X5280109Y3072574D2*
Y3074475D1*
X5282010Y3078322D1*
X5283911Y3080223D1*
X5287758Y3082124D1*
X5295407D1*
X5299210Y3080223D1*
X5301111Y3078322D1*
X5303057Y3074475D1*
Y3070672D1*
X5301111Y3066825D1*
X5297309Y3061122D1*
X5278163Y3041976D1*
X5304958D1*
X5326860Y3082124D2*
X5321156Y3080223D1*
X5319211Y3076420D1*
Y3072574D1*
X5321156Y3068771D1*
X5324959Y3066825D1*
X5332608Y3064924D1*
X5338356Y3063023D1*
X5342159Y3059176D1*
X5344060Y3055374D1*
Y3049626D1*
X5342159Y3045823D1*
X5340257Y3043878D1*
X5334509Y3041976D1*
X5326860D1*
X5321156Y3043878D1*
X5319211Y3045823D1*
X5317309Y3049626D1*
Y3055374D1*
X5319211Y3059176D1*
X5323057Y3063023D1*
X5328761Y3064924D1*
X5336411Y3066825D1*
X5340257Y3068771D1*
X5342159Y3072574D1*
Y3076420D1*
X5340257Y3080223D1*
X5334509Y3082124D1*
X5326860D1*
X901349Y3690756D2*
X899448Y3694559D1*
X895601Y3698406D1*
X891799Y3700307D1*
X884150D1*
X880303Y3698406D1*
X876500Y3694559D1*
X874555Y3690756D1*
X872653Y3685008D1*
Y3675413D1*
X874555Y3669710D1*
X876500Y3665863D1*
X880303Y3662060D1*
X884150Y3660115D1*
X891799D1*
X895601Y3662060D1*
X899448Y3665863D1*
X901349Y3669710D1*
X915646Y3690712D2*
Y3692613D1*
X917548Y3696460D1*
X919449Y3698361D1*
X923296Y3700263D1*
X930945D1*
X934747Y3698361D1*
X936649Y3696460D1*
X938594Y3692613D1*
Y3688811D1*
X936649Y3684964D1*
X932846Y3679260D1*
X913701Y3660115D1*
X940495D1*
X977740Y3686909D2*
X975795Y3681161D1*
X971992Y3677315D1*
X966244Y3675413D1*
X964343D1*
X958595Y3677315D1*
X954792Y3681161D1*
X952847Y3686909D1*
Y3688811D1*
X954792Y3694559D1*
X958595Y3698361D1*
X964343Y3700263D1*
X966244D1*
X971992Y3698361D1*
X975795Y3694559D1*
X977740Y3686909D1*
Y3677315D1*
X975795Y3667764D1*
X971992Y3662016D1*
X966244Y3660115D1*
X962442D1*
X956694Y3662016D1*
X954792Y3665863D1*
X1530320Y3976193D2*
X1528419Y3979996D1*
X1524572Y3983843D1*
X1520769Y3985744D1*
X1513120D1*
X1509273Y3983843D1*
X1505471Y3979996D1*
X1503525Y3976193D1*
X1501624Y3970445D1*
Y3960850D1*
X1503525Y3955147D1*
X1505471Y3951300D1*
X1509273Y3947497D1*
X1513120Y3945552D1*
X1520769D1*
X1524572Y3947497D1*
X1528419Y3951300D1*
X1530320Y3955147D1*
X1546518Y3985700D2*
X1567521D1*
X1556069Y3970401D1*
X1561817D1*
X1565619Y3968500D1*
X1567521Y3966598D1*
X1569466Y3960850D1*
Y3957048D1*
X1567521Y3951300D1*
X1563718Y3947453D1*
X1557970Y3945552D1*
X1552222D1*
X1546518Y3947453D1*
X1544617Y3949399D1*
X1542671Y3953201D1*
X1593314Y3985700D2*
X1587566Y3983798D1*
X1583719Y3978050D1*
X1581817Y3968500D1*
Y3962752D1*
X1583719Y3953201D1*
X1587566Y3947453D1*
X1593314Y3945552D1*
X1597116D1*
X1602864Y3947453D1*
X1606667Y3953201D1*
X1608612Y3962752D1*
Y3968500D1*
X1606667Y3978050D1*
X1602864Y3983798D1*
X1597116Y3985700D1*
X1593314D1*
X1606667Y3978050D2*
X1583719Y3953201D1*
X1781681Y4261361D2*
X1777878Y4259460D1*
X1774032Y4255613D1*
X1772130Y4251810D1*
Y4244161D1*
X1774031Y4240314D1*
X1777878Y4236512D1*
X1781681Y4234566D1*
X1787429Y4232665D1*
X1797024D1*
X1802727Y4234566D1*
X1806574Y4236512D1*
X1810377Y4240314D1*
X1812322Y4244161D1*
Y4251810D1*
X1810377Y4255613D1*
X1806574Y4259460D1*
X1802727Y4261361D1*
X1772174Y4277559D2*
Y4298562D1*
X1787473Y4287110D1*
Y4292858D1*
X1789374Y4296660D1*
X1791276Y4298562D1*
X1797024Y4300507D1*
X1800826D1*
X1806574Y4298561D1*
X1810421Y4294759D1*
X1812322Y4289011D1*
Y4283263D1*
X1810421Y4277559D1*
X1808475Y4275658D1*
X1804673Y4273712D1*
X1779824Y4312858D2*
X1777878Y4316705D1*
X1772174Y4322453D1*
X1812322D1*
X1923413Y4268509D2*
X1919611Y4266608D1*
X1915764Y4262761D1*
X1913863Y4258959D1*
Y4251309D1*
X1915764Y4247462D1*
X1919611Y4243660D1*
X1923413Y4241714D1*
X1929161Y4239813D1*
X1938756D1*
X1944460Y4241714D1*
X1948306Y4243660D1*
X1952109Y4247462D1*
X1954055Y4251309D1*
Y4258958D1*
X1952109Y4262761D1*
X1948307Y4266608D1*
X1944460Y4268509D1*
X1913907Y4284707D2*
Y4305710D1*
X1929205Y4294258D1*
Y4300006D1*
X1931107Y4303808D1*
X1933008Y4305710D1*
X1938756Y4307655D1*
X1942558D1*
X1948306Y4305710D1*
X1952153Y4301907D1*
X1954055Y4296159D1*
Y4290411D1*
X1952153Y4284707D1*
X1950208Y4282806D1*
X1946405Y4280860D1*
X1923457Y4321952D2*
X1921556D1*
X1917709Y4323853D1*
X1915808Y4325755D1*
X1913907Y4329601D1*
Y4337251D1*
X1915808Y4341053D1*
X1917709Y4342954D1*
X1921556Y4344900D1*
X1925359D1*
X1929205Y4342954D1*
X1934909Y4339152D1*
X1954055Y4320006D1*
Y4346801D1*
X2950972Y4009684D2*
X2947170Y4007783D1*
X2943323Y4003936D1*
X2941422Y4000134D1*
Y3992485D1*
X2943323Y3988638D1*
X2947170Y3984835D1*
X2950972Y3982890D1*
X2956720Y3980989D1*
X2966315D1*
X2972019Y3982890D1*
X2975866Y3984835D1*
X2979668Y3988638D1*
X2981614Y3992485D1*
Y4000134D1*
X2979668Y4003936D1*
X2975866Y4007783D1*
X2972019Y4009684D1*
X2941466Y4025883D2*
Y4046885D1*
X2956764Y4035433D1*
Y4041181D1*
X2958666Y4044984D1*
X2960567Y4046885D1*
X2966315Y4048830D1*
X2970118D1*
X2975866Y4046885D1*
X2979712Y4043082D1*
X2981614Y4037334D1*
Y4031586D1*
X2979712Y4025883D1*
X2977767Y4023981D1*
X2973964Y4022036D1*
X2981614Y4080327D2*
X2941466D1*
X2968216Y4061182D1*
Y4089878D1*
X3185224Y4013576D2*
X3181422Y4011675D1*
X3177575Y4007828D1*
X3175674Y4004026D1*
Y3996376D1*
X3177575Y3992530D1*
X3181422Y3988727D1*
X3185224Y3986782D1*
X3190972Y3984880D1*
X3200567D1*
X3206271Y3986782D1*
X3210118Y3988727D1*
X3213920Y3992530D1*
X3215866Y3996376D1*
Y4004026D1*
X3213920Y4007828D1*
X3210118Y4011675D1*
X3206271Y4013576D1*
X3175718Y4029774D2*
Y4050777D1*
X3191016Y4039325D1*
Y4045073D1*
X3192918Y4048876D1*
X3194819Y4050777D1*
X3200567Y4052722D1*
X3204369D1*
X3210118Y4050777D1*
X3213964Y4046974D1*
X3215866Y4041226D1*
Y4035478D1*
X3213964Y4029774D1*
X3212019Y4027873D1*
X3208216Y4025928D1*
X3181422Y4088022D2*
X3177619Y4086120D1*
X3175718Y4080372D1*
Y4076570D1*
X3177619Y4070822D1*
X3183367Y4066975D1*
X3192918Y4065074D1*
X3202468D1*
X3210118Y4066975D1*
X3213964Y4070822D1*
X3215866Y4076570D1*
Y4078471D1*
X3213964Y4084175D1*
X3210118Y4088022D1*
X3204369Y4089923D1*
X3202468D1*
X3196720Y4088022D1*
X3192918Y4084175D1*
X3191016Y4078471D1*
Y4076570D1*
X3192918Y4070822D1*
X3196720Y4066975D1*
X3202468Y4065074D1*
X3046029Y1801372D2*
X3044127Y1805174D1*
X3040281Y1809021D1*
X3036478Y1810922D1*
X3028829D1*
X3024982Y1809021D1*
X3021179Y1805174D1*
X3019234Y1801372D1*
X3017333Y1795624D1*
Y1786029D1*
X3019234Y1780325D1*
X3021179Y1776478D1*
X3024982Y1772676D1*
X3028829Y1770730D1*
X3036478D1*
X3040281Y1772676D1*
X3044127Y1776478D1*
X3046029Y1780325D1*
X3062227Y1810878D2*
X3083229D1*
X3071777Y1795579D1*
X3077525D1*
X3081328Y1793678D1*
X3083229Y1791777D1*
X3085175Y1786029D1*
Y1782226D1*
X3083229Y1776478D1*
X3079427Y1772632D1*
X3073679Y1770730D1*
X3067931D1*
X3062227Y1772632D1*
X3060326Y1774577D1*
X3058380Y1778380D1*
X3105175Y1770730D2*
X3124321Y1810878D1*
X3097526D1*
X3038521Y1612954D2*
X3036619Y1616757D1*
X3032773Y1620604D1*
X3028970Y1622505D1*
X3021321D1*
X3017474Y1620604D1*
X3013671Y1616757D1*
X3011726Y1612954D1*
X3009825Y1607206D1*
Y1597612D1*
X3011726Y1591908D1*
X3013671Y1588061D1*
X3017474Y1584258D1*
X3021321Y1582313D1*
X3028970D1*
X3032773Y1584258D1*
X3036619Y1588061D1*
X3038521Y1591908D1*
X3054719Y1622461D2*
X3075721D1*
X3064269Y1607162D1*
X3070017D1*
X3073820Y1605261D1*
X3075721Y1603360D1*
X3077667Y1597612D1*
Y1593809D1*
X3075721Y1588061D1*
X3071919Y1584214D1*
X3066171Y1582313D1*
X3060423D1*
X3054719Y1584214D1*
X3052817Y1586160D1*
X3050872Y1589962D1*
X3099569Y1622461D2*
X3093865Y1620559D1*
X3091919Y1616757D1*
Y1612910D1*
X3093865Y1609108D1*
X3097667Y1607162D1*
X3105317Y1605261D1*
X3111065Y1603360D1*
X3114867Y1599513D1*
X3116769Y1595710D1*
Y1589962D1*
X3114867Y1586160D1*
X3112966Y1584214D1*
X3107218Y1582313D1*
X3099569D1*
X3093865Y1584214D1*
X3091919Y1586160D1*
X3090018Y1589962D1*
Y1595710D1*
X3091919Y1599513D1*
X3095766Y1603360D1*
X3101470Y1605261D1*
X3109119Y1607162D1*
X3112966Y1609108D1*
X3114867Y1612910D1*
Y1616757D1*
X3112966Y1620559D1*
X3107218Y1622461D1*
X3099569D1*
X3045078Y1207684D2*
X3043177Y1211487D1*
X3039330Y1215333D1*
X3035527Y1217235D1*
X3027878D1*
X3024031Y1215333D1*
X3020229Y1211487D1*
X3018283Y1207684D1*
X3016382Y1201936D1*
Y1192341D1*
X3018283Y1186637D1*
X3020229Y1182791D1*
X3024031Y1178988D1*
X3027878Y1177043D1*
X3035527D1*
X3039330Y1178988D1*
X3043177Y1182791D1*
X3045078Y1186637D1*
X3076575Y1177043D2*
Y1217190D1*
X3057429Y1190440D1*
X3086125D1*
X3109973Y1217190D2*
X3104225Y1215289D1*
X3100378Y1209541D1*
X3098477Y1199991D1*
Y1194243D1*
X3100378Y1184692D1*
X3104225Y1178944D1*
X3109973Y1177043D1*
X3113775D1*
X3119523Y1178944D1*
X3123326Y1184692D1*
X3125271Y1194243D1*
Y1199991D1*
X3123326Y1209541D1*
X3119523Y1215289D1*
X3113775Y1217190D1*
X3109973D1*
X3123326Y1209541D2*
X3100378Y1184692D1*
X3039898Y1387978D2*
X3037997Y1391781D1*
X3034150Y1395627D1*
X3030348Y1397529D1*
X3022699D1*
X3018852Y1395627D1*
X3015049Y1391781D1*
X3013104Y1387978D1*
X3011203Y1382230D1*
Y1372635D1*
X3013104Y1366931D1*
X3015049Y1363085D1*
X3018852Y1359282D1*
X3022699Y1357337D1*
X3030348D1*
X3034150Y1359282D1*
X3037997Y1363085D1*
X3039898Y1366931D1*
X3071395Y1357337D2*
Y1397484D1*
X3052250Y1370734D1*
X3080946D1*
X3093297Y1389835D2*
X3097144Y1391781D1*
X3102892Y1397484D1*
Y1357337D1*
X2841566Y1612954D2*
X2839665Y1616757D1*
X2835818Y1620604D1*
X2832016Y1622505D1*
X2824366D1*
X2820520Y1620604D1*
X2816717Y1616757D1*
X2814772Y1612954D1*
X2812870Y1607206D1*
Y1597612D1*
X2814772Y1591908D1*
X2816717Y1588061D1*
X2820520Y1584258D1*
X2824366Y1582313D1*
X2832016D1*
X2835818Y1584258D1*
X2839665Y1588061D1*
X2841566Y1591908D1*
X2873063Y1582313D2*
Y1622461D1*
X2853918Y1595710D1*
X2882614D1*
X2896910Y1612910D2*
Y1614811D1*
X2898812Y1618658D1*
X2900713Y1620559D1*
X2904560Y1622461D1*
X2912209D1*
X2916012Y1620559D1*
X2917913Y1618658D1*
X2919858Y1614811D1*
Y1611009D1*
X2917913Y1607162D1*
X2914110Y1601458D1*
X2894965Y1582313D1*
X2921760D1*
X2847816Y1387978D2*
X2845914Y1391781D1*
X2842068Y1395627D1*
X2838265Y1397529D1*
X2830616D1*
X2826769Y1395627D1*
X2822966Y1391781D1*
X2821021Y1387978D1*
X2819120Y1382230D1*
Y1372635D1*
X2821021Y1366931D1*
X2822966Y1363085D1*
X2826769Y1359282D1*
X2830616Y1357337D1*
X2838265D1*
X2842068Y1359282D1*
X2845914Y1363085D1*
X2847816Y1366931D1*
X2879312Y1357337D2*
Y1397484D1*
X2860167Y1370734D1*
X2888863D1*
X2905061Y1397484D2*
X2926063D1*
X2914612Y1382186D1*
X2920360D1*
X2924162Y1380284D1*
X2926063Y1378383D1*
X2928009Y1372635D1*
Y1368833D1*
X2926063Y1363085D1*
X2922261Y1359238D1*
X2916513Y1357337D1*
X2910765D1*
X2905061Y1359238D1*
X2903160Y1361183D1*
X2901214Y1364986D1*
X3582868Y967886D2*
X3580966Y971689D1*
X3577120Y975535D1*
X3573317Y977437D1*
X3565668D1*
X3561821Y975535D1*
X3558018Y971689D1*
X3556073Y967886D1*
X3554172Y962138D1*
Y952543D1*
X3556073Y946840D1*
X3558018Y942993D1*
X3561821Y939190D1*
X3565668Y937245D1*
X3573317D1*
X3577120Y939190D1*
X3580966Y942993D1*
X3582868Y946840D1*
X3614364Y937245D2*
Y977393D1*
X3595219Y950642D1*
X3623915D1*
X3655412Y937245D2*
Y977393D1*
X3636266Y950642D1*
X3664962D1*
X3584921Y883004D2*
X3583019Y886807D1*
X3579173Y890654D1*
X3575370Y892555D1*
X3567721D1*
X3563874Y890654D1*
X3560071Y886807D1*
X3558126Y883004D1*
X3556225Y877256D1*
Y867661D1*
X3558126Y861958D1*
X3560071Y858111D1*
X3563874Y854308D1*
X3567721Y852363D1*
X3575370D1*
X3579173Y854308D1*
X3583019Y858111D1*
X3584921Y861958D1*
X3616417Y852363D2*
Y892511D1*
X3597272Y865760D1*
X3625968D1*
X3661267Y892511D2*
X3642166D1*
X3640265Y875311D1*
X3642166Y877212D1*
X3647914Y879158D1*
X3653618D1*
X3659366Y877212D1*
X3663213Y873409D1*
X3665114Y867661D1*
Y863859D1*
X3663213Y858111D1*
X3659366Y854264D1*
X3653618Y852363D1*
X3647914D1*
X3642166Y854264D1*
X3640265Y856210D1*
X3638319Y860012D1*
X3593334Y1069422D2*
X3591433Y1073224D1*
X3587586Y1077071D1*
X3583784Y1078972D1*
X3576134D1*
X3572288Y1077071D1*
X3568485Y1073224D1*
X3566540Y1069422D1*
X3564638Y1063674D1*
Y1054079D1*
X3566540Y1048375D1*
X3568485Y1044528D1*
X3572288Y1040726D1*
X3576134Y1038780D1*
X3583784D1*
X3587586Y1040726D1*
X3591433Y1044528D1*
X3593334Y1048375D1*
X3624831Y1038780D2*
Y1078928D1*
X3605686Y1052177D1*
X3634382D1*
X3669681Y1073224D2*
X3667780Y1077027D1*
X3662032Y1078928D1*
X3658229D1*
X3652481Y1077027D1*
X3648634Y1071279D1*
X3646733Y1061728D1*
Y1052177D1*
X3648634Y1044528D1*
X3652481Y1040681D1*
X3658229Y1038780D1*
X3660130D1*
X3665834Y1040681D1*
X3669681Y1044528D1*
X3671582Y1050276D1*
Y1052177D1*
X3669681Y1057926D1*
X3665834Y1061728D1*
X3660130Y1063629D1*
X3658229D1*
X3652481Y1061728D1*
X3648634Y1057926D1*
X3646733Y1052177D1*
X1228905Y1563338D2*
X1227004Y1567140D1*
X1223157Y1570987D1*
X1219355Y1572888D1*
X1211705D1*
X1207859Y1570987D1*
X1204056Y1567140D1*
X1202111Y1563338D1*
X1200209Y1557590D1*
Y1547995D1*
X1202111Y1542291D1*
X1204056Y1538444D1*
X1207859Y1534642D1*
X1211705Y1532696D1*
X1219355D1*
X1223157Y1534642D1*
X1227004Y1538444D1*
X1228905Y1542291D1*
X1260402Y1532696D2*
Y1572844D1*
X1241257Y1546094D1*
X1269953D1*
X1307197Y1559491D2*
X1305252Y1553743D1*
X1301449Y1549896D1*
X1295701Y1547995D1*
X1293800D1*
X1288052Y1549896D1*
X1284250Y1553743D1*
X1282304Y1559491D1*
Y1561392D1*
X1284250Y1567140D1*
X1288052Y1570943D1*
X1293800Y1572844D1*
X1295701D1*
X1301449Y1570943D1*
X1305252Y1567140D1*
X1307197Y1559491D1*
Y1549896D1*
X1305252Y1540345D1*
X1301449Y1534597D1*
X1295701Y1532696D1*
X1291899D1*
X1286151Y1534597D1*
X1284250Y1538444D1*
X1100578Y1692463D2*
X1096776Y1690562D1*
X1092929Y1686715D1*
X1091028Y1682913D1*
Y1675264D1*
X1092929Y1671417D1*
X1096776Y1667614D1*
X1100578Y1665669D1*
X1106326Y1663767D1*
X1115921D1*
X1121625Y1665669D1*
X1125472Y1667614D1*
X1129274Y1671417D1*
X1131220Y1675263D1*
Y1682913D1*
X1129274Y1686715D1*
X1125472Y1690562D1*
X1121625Y1692463D1*
X1091072Y1727763D2*
Y1708661D1*
X1108272Y1706760D1*
X1106371Y1708661D1*
X1104425Y1714410D1*
Y1720113D1*
X1106371Y1725861D1*
X1110173Y1729708D1*
X1115921Y1731609D1*
X1119724D1*
X1125472Y1729708D1*
X1129319Y1725861D1*
X1131220Y1720113D1*
Y1714409D1*
X1129319Y1708661D1*
X1127373Y1706760D1*
X1123571Y1704815D1*
X1098721Y1743961D2*
X1096776Y1747808D1*
X1091072Y1753556D1*
X1131220D1*
X2102863Y1551398D2*
X2100962Y1555201D1*
X2097115Y1559047D1*
X2093312Y1560949D1*
X2085663D1*
X2081816Y1559047D1*
X2078014Y1555201D1*
X2076068Y1551398D1*
X2074167Y1545650D1*
Y1536055D1*
X2076068Y1530351D1*
X2078014Y1526505D1*
X2081816Y1522702D1*
X2085663Y1520757D1*
X2093312D1*
X2097115Y1522702D1*
X2100962Y1526505D1*
X2102863Y1530351D1*
X2138162Y1560904D2*
X2119061D1*
X2117160Y1543704D1*
X2119061Y1545606D1*
X2124809Y1547551D1*
X2130513D1*
X2136261Y1545606D1*
X2140108Y1541803D1*
X2142009Y1536055D1*
Y1532253D1*
X2140108Y1526505D1*
X2136261Y1522658D1*
X2130513Y1520757D1*
X2124809D1*
X2119061Y1522658D1*
X2117160Y1524603D1*
X2115214Y1528406D1*
X2173506Y1520757D2*
Y1560904D1*
X2154360Y1534154D1*
X2183056D1*
X4559397Y865241D2*
X4555595Y863340D1*
X4551748Y859493D1*
X4549847Y855691D1*
Y848042D1*
X4551748Y844195D1*
X4555595Y840392D1*
X4559397Y838447D1*
X4565145Y836545D1*
X4574740D1*
X4580444Y838447D1*
X4584291Y840392D1*
X4588093Y844195D1*
X4590039Y848041D1*
Y855691D1*
X4588093Y859493D1*
X4584291Y863340D1*
X4580444Y865241D1*
X4549891Y900541D2*
Y881440D1*
X4567091Y879538D1*
X4565190Y881439D1*
X4563244Y887188D1*
Y892891D1*
X4565190Y898639D1*
X4568992Y902486D1*
X4574740Y904387D1*
X4578543D1*
X4584291Y902486D1*
X4588138Y898639D1*
X4590039Y892891D1*
Y887187D1*
X4588138Y881439D1*
X4586192Y879538D1*
X4582389Y877593D1*
X4549891Y939687D2*
Y920586D1*
X4567091Y918684D1*
X4565190Y920586D1*
X4563244Y926334D1*
Y932037D1*
X4565190Y937785D1*
X4568992Y941632D1*
X4574740Y943533D1*
X4578543D1*
X4584291Y941632D1*
X4588137Y937785D1*
X4590039Y932037D1*
Y926334D1*
X4588137Y920586D1*
X4586192Y918684D1*
X4582389Y916739D1*
X4848830Y866028D2*
X4845028Y864126D1*
X4841181Y860280D1*
X4839280Y856477D1*
Y848828D1*
X4841181Y844981D1*
X4845028Y841179D1*
X4848830Y839233D1*
X4854578Y837332D1*
X4864173D1*
X4869877Y839233D1*
X4873724Y841179D1*
X4877526Y844981D1*
X4879472Y848828D1*
Y856477D1*
X4877526Y860280D1*
X4873724Y864126D1*
X4869877Y866028D1*
X4839324Y901327D2*
Y882226D1*
X4856524Y880325D1*
X4854623Y882226D1*
X4852677Y887974D1*
Y893678D1*
X4854623Y899426D1*
X4858425Y903272D1*
X4864173Y905174D1*
X4867976D1*
X4873724Y903272D1*
X4877571Y899426D1*
X4879472Y893678D1*
Y887974D1*
X4877571Y882226D1*
X4875625Y880325D1*
X4871823Y878379D1*
X4845028Y940473D2*
X4841225Y938572D1*
X4839324Y932824D1*
Y929021D1*
X4841225Y923273D1*
X4846973Y919426D1*
X4856524Y917525D1*
X4866075D1*
X4873724Y919426D1*
X4877571Y923273D1*
X4879472Y929021D1*
Y930922D1*
X4877571Y936626D1*
X4873724Y940473D1*
X4867976Y942374D1*
X4866075D1*
X4860326Y940473D1*
X4856524Y936626D1*
X4854623Y930922D1*
Y929021D1*
X4856524Y923273D1*
X4860326Y919426D1*
X4866075Y917525D1*
X1975224Y1714382D2*
X1973323Y1718185D1*
X1969476Y1722032D1*
X1965673Y1723933D1*
X1958024D1*
X1954177Y1722032D1*
X1950375Y1718185D1*
X1948429Y1714382D1*
X1946528Y1708634D1*
Y1699039D1*
X1948429Y1693336D1*
X1950375Y1689489D1*
X1954177Y1685686D1*
X1958024Y1683741D1*
X1965673D1*
X1969476Y1685686D1*
X1973323Y1689489D1*
X1975224Y1693336D1*
X2010523Y1723889D2*
X1991422D1*
X1989521Y1706689D1*
X1991422Y1708590D1*
X1997170Y1710535D1*
X2002874D1*
X2008622Y1708590D1*
X2012469Y1704787D1*
X2014370Y1699039D1*
Y1695237D1*
X2012469Y1689489D1*
X2008622Y1685642D1*
X2002874Y1683741D1*
X1997170D1*
X1991422Y1685642D1*
X1989521Y1687588D1*
X1987575Y1691390D1*
X2036272Y1723889D2*
X2030568Y1721987D1*
X2028623Y1718185D1*
Y1714338D1*
X2030568Y1710535D1*
X2034371Y1708590D1*
X2042020Y1706689D1*
X2047768Y1704787D1*
X2051571Y1700941D1*
X2053472Y1697138D1*
Y1691390D1*
X2051571Y1687588D1*
X2049669Y1685642D1*
X2043921Y1683741D1*
X2036272D1*
X2030568Y1685642D1*
X2028623Y1687588D1*
X2026721Y1691390D1*
Y1697138D1*
X2028623Y1700941D1*
X2032470Y1704787D1*
X2038173Y1706689D1*
X2045823Y1708590D1*
X2049669Y1710535D1*
X2051571Y1714338D1*
Y1718185D1*
X2049669Y1721987D1*
X2043921Y1723889D1*
X2036272D1*
X1974370Y2605534D2*
X1972469Y2609337D1*
X1968622Y2613184D1*
X1964820Y2615085D1*
X1957171D1*
X1953324Y2613184D1*
X1949521Y2609337D1*
X1947576Y2605534D1*
X1945674Y2599786D1*
Y2590192D1*
X1947576Y2584488D1*
X1949521Y2580641D1*
X1953324Y2576839D1*
X1957171Y2574893D1*
X1964820D1*
X1968622Y2576839D1*
X1972469Y2580641D1*
X1974370Y2584488D1*
X2009670Y2615041D2*
X1990569D1*
X1988667Y2597841D1*
X1990569Y2599742D1*
X1996317Y2601688D1*
X2002020D1*
X2007768Y2599742D1*
X2011615Y2595940D1*
X2013516Y2590192D1*
Y2586389D1*
X2011615Y2580641D1*
X2007768Y2576794D1*
X2002020Y2574893D1*
X1996317D1*
X1990569Y2576794D1*
X1988667Y2578740D1*
X1986722Y2582542D1*
X2050761Y2601688D2*
X2048816Y2595940D1*
X2045013Y2592093D1*
X2039265Y2590192D1*
X2037364D1*
X2031616Y2592093D1*
X2027813Y2595940D1*
X2025868Y2601688D1*
Y2603589D1*
X2027813Y2609337D1*
X2031616Y2613140D1*
X2037364Y2615041D1*
X2039265D1*
X2045013Y2613140D1*
X2048816Y2609337D1*
X2050761Y2601688D1*
Y2592093D1*
X2048816Y2582542D1*
X2045013Y2576794D1*
X2039265Y2574893D1*
X2035463D1*
X2029715Y2576794D1*
X2027813Y2580641D1*
X1332277Y3001784D2*
X1330376Y3005586D1*
X1326529Y3009433D1*
X1322726Y3011334D1*
X1315077D1*
X1311230Y3009433D1*
X1307428Y3005586D1*
X1305482Y3001784D1*
X1303581Y2996036D1*
Y2986441D1*
X1305482Y2980737D1*
X1307428Y2976890D1*
X1311230Y2973088D1*
X1315077Y2971142D1*
X1322726D1*
X1326529Y2973088D1*
X1330376Y2976890D1*
X1332277Y2980737D1*
X1367576Y3005586D2*
X1365675Y3009389D1*
X1359927Y3011290D1*
X1356124D1*
X1350376Y3009389D1*
X1346530Y3003641D1*
X1344628Y2994090D1*
Y2984540D1*
X1346530Y2976890D1*
X1350376Y2973044D1*
X1356124Y2971142D1*
X1358026D1*
X1363730Y2973044D1*
X1367576Y2976890D1*
X1369478Y2982638D1*
Y2984540D1*
X1367576Y2990288D1*
X1363730Y2994090D1*
X1358026Y2995992D1*
X1356124D1*
X1350376Y2994090D1*
X1346530Y2990288D1*
X1344628Y2984540D1*
X1393325Y3011290D2*
X1387577Y3009389D1*
X1383730Y3003641D1*
X1381829Y2994090D1*
Y2988342D1*
X1383730Y2978792D1*
X1387577Y2973044D1*
X1393325Y2971142D1*
X1397128D1*
X1402876Y2973044D1*
X1406678Y2978792D1*
X1408624Y2988342D1*
Y2994090D1*
X1406678Y3003641D1*
X1402876Y3009389D1*
X1397128Y3011290D1*
X1393325D1*
X1406678Y3003641D2*
X1383730Y2978792D1*
X1015916Y3001784D2*
X1014015Y3005586D1*
X1010168Y3009433D1*
X1006366Y3011334D1*
X998716D1*
X994870Y3009433D1*
X991067Y3005586D1*
X989122Y3001784D1*
X987220Y2996036D1*
Y2986441D1*
X989122Y2980737D1*
X991067Y2976890D1*
X994870Y2973088D1*
X998716Y2971142D1*
X1006366D1*
X1010168Y2973088D1*
X1014015Y2976890D1*
X1015916Y2980737D1*
X1051216Y3005586D2*
X1049314Y3009389D1*
X1043566Y3011290D1*
X1039764D1*
X1034016Y3009389D1*
X1030169Y3003641D1*
X1028268Y2994090D1*
Y2984540D1*
X1030169Y2976890D1*
X1034016Y2973044D1*
X1039764Y2971142D1*
X1041665D1*
X1047369Y2973044D1*
X1051216Y2976890D1*
X1053117Y2982638D1*
Y2984540D1*
X1051216Y2990288D1*
X1047369Y2994090D1*
X1041665Y2995992D1*
X1039764D1*
X1034016Y2994090D1*
X1030169Y2990288D1*
X1028268Y2984540D1*
X1065468Y3003641D2*
X1069315Y3005586D1*
X1075063Y3011290D1*
Y2971142D1*
X644844Y3375800D2*
X642943Y3379602D1*
X639096Y3383449D1*
X635293Y3385350D1*
X627644D1*
X623797Y3383449D1*
X619995Y3379602D1*
X618049Y3375800D1*
X616148Y3370052D1*
Y3360457D1*
X618049Y3354753D1*
X619995Y3350906D1*
X623797Y3347104D1*
X627644Y3345158D1*
X635293D1*
X639096Y3347104D1*
X642943Y3350906D1*
X644844Y3354753D1*
X680143Y3379602D2*
X678242Y3383405D1*
X672494Y3385306D1*
X668691D1*
X662943Y3383405D1*
X659097Y3377657D1*
X657195Y3368106D1*
Y3358555D1*
X659097Y3350906D1*
X662943Y3347059D1*
X668691Y3345158D1*
X670593D1*
X676296Y3347059D1*
X680143Y3350906D1*
X682045Y3356654D1*
Y3358555D1*
X680143Y3364303D1*
X676296Y3368106D1*
X670593Y3370007D1*
X668691D1*
X662943Y3368106D1*
X659097Y3364303D1*
X657195Y3358555D1*
X696341Y3375755D2*
Y3377657D1*
X698243Y3381503D1*
X700144Y3383405D1*
X703991Y3385306D1*
X711640D1*
X715443Y3383405D1*
X717344Y3381503D1*
X719289Y3377657D1*
Y3373854D1*
X717344Y3370007D1*
X713541Y3364303D1*
X694396Y3345158D1*
X721191D1*
X884214Y3375800D2*
X882313Y3379602D1*
X878466Y3383449D1*
X874663Y3385350D1*
X867014D1*
X863167Y3383449D1*
X859365Y3379602D1*
X857419Y3375800D1*
X855518Y3370052D1*
Y3360457D1*
X857419Y3354753D1*
X859365Y3350906D1*
X863167Y3347104D1*
X867014Y3345158D1*
X874663D1*
X878466Y3347104D1*
X882313Y3350906D1*
X884214Y3354753D1*
X919513Y3379602D2*
X917612Y3383405D1*
X911864Y3385306D1*
X908061D1*
X902313Y3383405D1*
X898467Y3377657D1*
X896565Y3368106D1*
Y3358555D1*
X898467Y3350906D1*
X902313Y3347059D1*
X908061Y3345158D1*
X909963D1*
X915667Y3347059D1*
X919513Y3350906D1*
X921415Y3356654D1*
Y3358555D1*
X919513Y3364303D1*
X915667Y3368106D1*
X909963Y3370007D1*
X908061D1*
X902313Y3368106D1*
X898467Y3364303D1*
X896565Y3358555D1*
X937613Y3385306D2*
X958615D1*
X947163Y3370007D1*
X952911D1*
X956714Y3368106D1*
X958615Y3366205D1*
X960561Y3360457D1*
Y3356654D1*
X958615Y3350906D1*
X954813Y3347059D1*
X949065Y3345158D1*
X943317D1*
X937613Y3347059D1*
X935711Y3349005D1*
X933766Y3352807D1*
X5156873Y1775936D2*
X5154972Y1779739D1*
X5151125Y1783585D1*
X5147322Y1785487D1*
X5139673D1*
X5135826Y1783585D1*
X5132024Y1779739D1*
X5130078Y1775936D1*
X5128177Y1770188D1*
Y1760593D1*
X5130078Y1754889D1*
X5132024Y1751043D1*
X5135826Y1747240D1*
X5139673Y1745295D1*
X5147322D1*
X5151125Y1747240D1*
X5154972Y1751043D1*
X5156873Y1754889D1*
X5192172Y1779739D2*
X5190271Y1783541D1*
X5184523Y1785442D1*
X5180720D1*
X5174972Y1783541D1*
X5171125Y1777793D1*
X5169224Y1768243D1*
Y1758692D1*
X5171125Y1751043D1*
X5174972Y1747196D1*
X5180720Y1745295D1*
X5182622D1*
X5188325Y1747196D1*
X5192172Y1751043D1*
X5194073Y1756791D1*
Y1758692D1*
X5192172Y1764440D1*
X5188325Y1768243D1*
X5182622Y1770144D1*
X5180720D1*
X5174972Y1768243D1*
X5171125Y1764440D1*
X5169224Y1758692D1*
X5229373Y1785442D2*
X5210272D1*
X5208370Y1768243D1*
X5210272Y1770144D1*
X5216020Y1772089D1*
X5221723D1*
X5227471Y1770144D1*
X5231318Y1766341D1*
X5233219Y1760593D1*
Y1756791D1*
X5231318Y1751043D1*
X5227471Y1747196D1*
X5221723Y1745295D1*
X5216020D1*
X5210272Y1747196D1*
X5208370Y1749141D1*
X5206425Y1752944D1*
X5157846Y1294737D2*
X5155944Y1298539D1*
X5152098Y1302386D1*
X5148295Y1304287D1*
X5140646D1*
X5136799Y1302386D1*
X5132996Y1298539D1*
X5131051Y1294737D1*
X5129150Y1288989D1*
Y1279394D1*
X5131051Y1273690D1*
X5132996Y1269843D1*
X5136799Y1266041D1*
X5140646Y1264095D1*
X5148295D1*
X5152098Y1266041D1*
X5155944Y1269843D1*
X5157846Y1273690D1*
X5193145Y1298539D2*
X5191244Y1302342D1*
X5185496Y1304243D1*
X5181693D1*
X5175945Y1302342D1*
X5172098Y1296594D1*
X5170197Y1287043D1*
Y1277492D1*
X5172098Y1269843D1*
X5175945Y1265996D1*
X5181693Y1264095D1*
X5183594D1*
X5189298Y1265996D1*
X5193145Y1269843D1*
X5195046Y1275591D1*
Y1277492D1*
X5193145Y1283240D1*
X5189298Y1287043D1*
X5183594Y1288944D1*
X5181693D1*
X5175945Y1287043D1*
X5172098Y1283240D1*
X5170197Y1277492D1*
X5230345Y1298539D2*
X5228444Y1302342D1*
X5222696Y1304243D1*
X5218894D1*
X5213146Y1302342D1*
X5209299Y1296594D1*
X5207398Y1287043D1*
Y1277492D1*
X5209299Y1269843D1*
X5213146Y1265996D1*
X5218894Y1264095D1*
X5220795D1*
X5226499Y1265996D1*
X5230345Y1269843D1*
X5232247Y1275591D1*
Y1277492D1*
X5230345Y1283240D1*
X5226499Y1287043D1*
X5220795Y1288944D1*
X5218894D1*
X5213146Y1287043D1*
X5209299Y1283240D1*
X5207398Y1277492D1*
X2819927Y4220550D2*
Y4180358D1*
X2833324D1*
X2839072Y4182303D1*
X2842919Y4186106D1*
X2844820Y4189952D1*
X2846722Y4195656D1*
Y4205251D1*
X2844820Y4210999D1*
X2842919Y4214802D1*
X2839072Y4218648D1*
X2833324Y4220550D1*
X2819927D1*
X2889714Y4180358D2*
X2874372Y4220550D1*
X2859073Y4180358D1*
X2864821Y4193755D2*
X2883966D1*
X2905913Y4220505D2*
X2926915D1*
X2915463Y4205207D1*
X2921211D1*
X2925014Y4203305D1*
X2926915Y4201404D1*
X2928860Y4195656D1*
Y4191854D1*
X2926915Y4186106D1*
X2923112Y4182259D1*
X2917364Y4180358D1*
X2911616D1*
X2905913Y4182259D1*
X2904011Y4184204D1*
X2902066Y4188007D1*
X1532836Y1659711D2*
Y1619519D1*
X1546234D1*
X1551982Y1621464D1*
X1555828Y1625267D1*
X1557730Y1629114D1*
X1559631Y1634818D1*
Y1644412D1*
X1557730Y1650160D1*
X1555828Y1653963D1*
X1551982Y1657810D1*
X1546234Y1659711D1*
X1532836D1*
X1602624Y1619519D2*
X1587281Y1659711D1*
X1571982Y1619519D1*
X1577730Y1632916D2*
X1596876D1*
X1637923Y1659667D2*
X1618822D1*
X1616921Y1642467D1*
X1618822Y1644368D1*
X1624570Y1646314D1*
X1630274D1*
X1636022Y1644368D1*
X1639869Y1640566D1*
X1641770Y1634818D1*
Y1631015D1*
X1639869Y1625267D1*
X1636022Y1621420D1*
X1630274Y1619519D1*
X1624570D1*
X1618822Y1621420D1*
X1616921Y1623366D1*
X1614975Y1627168D1*
X1309516Y1410841D2*
Y1370649D1*
X1322914D1*
X1328662Y1372594D1*
X1332509Y1376397D1*
X1334410Y1380244D1*
X1336311Y1385948D1*
Y1395542D1*
X1334410Y1401290D1*
X1332509Y1405093D1*
X1328662Y1408940D1*
X1322914Y1410841D1*
X1309516D1*
X1379304Y1370649D2*
X1363961Y1410841D1*
X1348663Y1370649D1*
X1354411Y1384046D2*
X1373556D1*
X1414603Y1405093D2*
X1412702Y1408895D1*
X1406954Y1410797D1*
X1403151D1*
X1397403Y1408895D1*
X1393557Y1403147D1*
X1391655Y1393597D1*
Y1384046D1*
X1393557Y1376397D1*
X1397403Y1372550D1*
X1403151Y1370649D1*
X1405053D1*
X1410757Y1372550D1*
X1414603Y1376397D1*
X1416505Y1382145D1*
Y1384046D1*
X1414603Y1389794D1*
X1410757Y1393597D1*
X1405053Y1395498D1*
X1403151D1*
X1397403Y1393597D1*
X1393557Y1389794D1*
X1391655Y1384046D1*
X2407836Y1665960D2*
Y1625768D1*
X2421234D1*
X2426982Y1627714D1*
X2430828Y1631516D1*
X2432730Y1635363D1*
X2434631Y1641067D1*
Y1650662D1*
X2432730Y1656410D1*
X2430828Y1660212D1*
X2426982Y1664059D1*
X2421234Y1665960D1*
X2407836D1*
X2477624Y1625768D2*
X2462281Y1665960D1*
X2446982Y1625768D1*
X2452730Y1639166D2*
X2471876D1*
X2497625Y1625768D2*
X2516770Y1665916D1*
X2489975D1*
X2183474Y1395870D2*
Y1355678D1*
X2196871D1*
X2202619Y1357623D1*
X2206466Y1361426D1*
X2208367Y1365273D1*
X2210269Y1370976D1*
Y1380571D1*
X2208367Y1386319D1*
X2206466Y1390122D1*
X2202619Y1393969D1*
X2196871Y1395870D1*
X2183474D1*
X2253261Y1355678D2*
X2237919Y1395870D1*
X2222620Y1355678D1*
X2228368Y1369075D2*
X2247513D1*
X2275163Y1395826D2*
X2269460Y1393924D1*
X2267514Y1390122D1*
Y1386275D1*
X2269460Y1382472D1*
X2273262Y1380527D1*
X2280911Y1378626D1*
X2286659Y1376724D1*
X2290462Y1372878D1*
X2292363Y1369075D1*
Y1363327D1*
X2290462Y1359525D1*
X2288561Y1357579D1*
X2282813Y1355678D1*
X2275163D1*
X2269460Y1357579D1*
X2267514Y1359525D1*
X2265613Y1363327D1*
Y1369075D1*
X2267514Y1372878D1*
X2271361Y1376724D1*
X2277065Y1378626D1*
X2284714Y1380527D1*
X2288561Y1382472D1*
X2290462Y1386275D1*
Y1390122D1*
X2288561Y1393924D1*
X2282813Y1395826D1*
X2275163D1*
X2067626Y3917867D2*
Y3877675D1*
X2081023D1*
X2086771Y3879621D1*
X2090618Y3883423D1*
X2092519Y3887270D1*
X2094420Y3892974D1*
Y3902569D1*
X2092519Y3908317D1*
X2090618Y3912119D1*
X2086771Y3915966D1*
X2081023Y3917867D1*
X2067626D1*
X2137413Y3877675D2*
X2122070Y3917867D1*
X2106772Y3877675D1*
X2112520Y3891073D2*
X2131665D1*
X2174658Y3904470D2*
X2172712Y3898722D1*
X2168910Y3894875D1*
X2163162Y3892974D1*
X2161261D1*
X2155513Y3894875D1*
X2151710Y3898722D1*
X2149764Y3904470D1*
Y3906371D1*
X2151710Y3912119D1*
X2155513Y3915922D1*
X2161261Y3917823D1*
X2163162D1*
X2168910Y3915922D1*
X2172712Y3912119D1*
X2174658Y3904470D1*
Y3894875D1*
X2172712Y3885324D1*
X2168910Y3879576D1*
X2163162Y3877675D1*
X2159359D1*
X2153611Y3879576D1*
X2151710Y3883423D1*
X2915466Y1152870D2*
Y1112678D1*
X2928863D1*
X2934611Y1114623D1*
X2938458Y1118426D1*
X2940359Y1122273D1*
X2942260Y1127976D1*
Y1137571D1*
X2940359Y1143319D1*
X2938458Y1147122D1*
X2934611Y1150969D1*
X2928863Y1152870D1*
X2915466D1*
X2985253Y1112678D2*
X2969910Y1152870D1*
X2954612Y1112678D1*
X2960360Y1126075D2*
X2979505D1*
X2997605Y1152870D2*
X3024399Y1112678D1*
Y1152870D2*
X2997605Y1112678D1*
X3036751Y1145176D2*
X3040597Y1147122D1*
X3046345Y1152826D1*
Y1112678D1*
X5363192Y3979691D2*
Y3939499D1*
X5376589D1*
X5382337Y3941445D1*
X5386184Y3945247D1*
X5388085Y3949094D1*
X5389986Y3954798D1*
Y3964393D1*
X5388085Y3970141D1*
X5386184Y3973943D1*
X5382337Y3977790D1*
X5376589Y3979691D1*
X5363192D1*
X5402338D2*
Y3939499D1*
X5415735D1*
X5421483Y3941445D1*
X5425330Y3945247D1*
X5427231Y3949094D1*
X5429132Y3954798D1*
Y3964393D1*
X5427231Y3970141D1*
X5425330Y3973943D1*
X5421483Y3977790D1*
X5415735Y3979691D1*
X5402338D1*
X5441484Y3971998D2*
X5445331Y3973943D1*
X5451079Y3979647D1*
Y3939499D1*
X1197378Y1110552D2*
Y1070360D1*
X1210775D1*
X1216523Y1072305D1*
X1220370Y1076108D1*
X1222271Y1079954D1*
X1224173Y1085658D1*
Y1095253D1*
X1222271Y1101001D1*
X1220370Y1104804D1*
X1216523Y1108650D1*
X1210775Y1110552D1*
X1197378D1*
X1236524D2*
Y1070360D1*
X1249921D1*
X1255669Y1072305D1*
X1259516Y1076108D1*
X1261417Y1079954D1*
X1263319Y1085658D1*
Y1095253D1*
X1261417Y1101001D1*
X1259516Y1104804D1*
X1255669Y1108650D1*
X1249921Y1110552D1*
X1236524D1*
X1298618Y1110507D2*
X1279517D1*
X1277615Y1093307D1*
X1279517Y1095209D1*
X1285265Y1097154D1*
X1290969D1*
X1296717Y1095209D1*
X1300563Y1091406D1*
X1302465Y1085658D1*
Y1081856D1*
X1300563Y1076108D1*
X1296717Y1072261D1*
X1290969Y1070360D1*
X1285265D1*
X1279517Y1072261D1*
X1277615Y1074206D1*
X1275670Y1078009D1*
X2078535Y1116801D2*
Y1076609D1*
X2091933D1*
X2097681Y1078554D1*
X2101527Y1082357D1*
X2103429Y1086204D1*
X2105330Y1091908D1*
Y1101502D1*
X2103429Y1107250D1*
X2101527Y1111053D1*
X2097681Y1114900D1*
X2091933Y1116801D1*
X2078535D1*
X2117681D2*
Y1076609D1*
X2131079D1*
X2136827Y1078554D1*
X2140674Y1082357D1*
X2142575Y1086204D1*
X2144476Y1091908D1*
Y1101502D1*
X2142575Y1107250D1*
X2140674Y1111053D1*
X2136827Y1114900D1*
X2131079Y1116801D1*
X2117681D1*
X2164477Y1076609D2*
X2183622Y1116757D1*
X2156827D1*
X4860865Y4589878D2*
Y4549686D1*
X4874262D1*
X4880010Y4551631D1*
X4883857Y4555434D1*
X4885758Y4559280D1*
X4887659Y4564984D1*
Y4574579D1*
X4885758Y4580327D1*
X4883857Y4584130D1*
X4880010Y4587976D1*
X4874262Y4589878D1*
X4860865D1*
X4900011D2*
Y4549686D1*
X4913408D1*
X4919156Y4551631D1*
X4923003Y4555434D1*
X4924904Y4559280D1*
X4926805Y4564984D1*
Y4574579D1*
X4924904Y4580327D1*
X4923003Y4584130D1*
X4919156Y4587976D1*
X4913408Y4589878D1*
X4900011D1*
X4948707Y4589833D2*
X4943003Y4587932D1*
X4941058Y4584130D1*
Y4580283D1*
X4943003Y4576480D1*
X4946806Y4574535D1*
X4954455Y4572634D1*
X4960203Y4570732D1*
X4964006Y4566886D1*
X4965907Y4563083D1*
Y4557335D1*
X4964006Y4553532D1*
X4962105Y4551587D1*
X4956357Y4549686D1*
X4948707D1*
X4943003Y4551587D1*
X4941058Y4553532D1*
X4939157Y4557335D1*
Y4563083D1*
X4941058Y4566886D1*
X4944905Y4570732D1*
X4950609Y4572634D1*
X4958258Y4574535D1*
X4962105Y4576480D1*
X4964006Y4580283D1*
Y4584130D1*
X4962105Y4587932D1*
X4956357Y4589833D1*
X4948707D1*
X3314247Y3408751D2*
X3289398D1*
Y3368559D1*
X3314247D1*
X3289398Y3389606D2*
X3304696D1*
X3326598Y3401058D2*
X3330445Y3403003D1*
X3336193Y3408707D1*
Y3368559D1*
X5606347Y1893343D2*
X5581453D1*
Y1853151D1*
Y1874198D2*
X5596752D1*
X5618698Y1893343D2*
Y1864647D1*
X5620599Y1858899D1*
X5624446Y1855096D1*
X5630194Y1853151D1*
X5633997D1*
X5639745Y1855096D1*
X5643592Y1858899D1*
X5645493Y1864647D1*
Y1893343D1*
X5657844Y1885649D2*
X5661691Y1887595D1*
X5667439Y1893299D1*
Y1853151D1*
X4035240Y4205739D2*
Y4175141D1*
X4033339Y4169393D1*
X4031393Y4167492D1*
X4027591Y4165547D1*
X4023744D1*
X4019941Y4167492D1*
X4018040Y4169393D1*
X4016095Y4175141D1*
Y4178944D1*
X4047591Y4198045D2*
X4051438Y4199991D1*
X4057186Y4205694D1*
Y4165547D1*
X4319330Y4618027D2*
Y4587430D1*
X4317429Y4581682D1*
X4315484Y4579781D1*
X4311681Y4577835D1*
X4307834D1*
X4304032Y4579781D1*
X4302130Y4581682D1*
X4300185Y4587430D1*
Y4591233D1*
X4333627Y4608432D2*
Y4610334D1*
X4335529Y4614181D1*
X4337430Y4616082D1*
X4341277Y4617983D1*
X4348926D1*
X4352728Y4616082D1*
X4354630Y4614181D1*
X4356575Y4610334D1*
Y4606531D1*
X4354630Y4602684D1*
X4350827Y4596981D1*
X4331682Y4577835D1*
X4358476D1*
X2809488Y3722358D2*
Y3691761D1*
X2807587Y3686013D1*
X2805641Y3684111D1*
X2801839Y3682166D1*
X2797992D1*
X2794189Y3684111D1*
X2792288Y3686013D1*
X2790342Y3691761D1*
Y3695563D1*
X2825686Y3722314D2*
X2846688D1*
X2835237Y3707015D1*
X2840985D1*
X2844787Y3705114D1*
X2846688Y3703213D1*
X2848634Y3697465D1*
Y3693662D1*
X2846688Y3687914D1*
X2842886Y3684067D1*
X2837138Y3682166D1*
X2831390D1*
X2825686Y3684067D1*
X2823785Y3686013D1*
X2821839Y3689815D1*
X1909128Y4627082D2*
Y4596485D1*
X1907226Y4590737D1*
X1905281Y4588836D1*
X1901478Y4586890D1*
X1897632D1*
X1893829Y4588836D1*
X1891928Y4590737D1*
X1889982Y4596485D1*
Y4600288D1*
X1940625Y4586890D2*
Y4627038D1*
X1921479Y4600288D1*
X1950175D1*
X889895Y882786D2*
Y852189D1*
X887993Y846441D1*
X886048Y844539D1*
X882245Y842594D1*
X878399D1*
X874596Y844539D1*
X872695Y846441D1*
X870749Y852189D1*
Y855991D1*
X925194Y882742D2*
X906093D1*
X904192Y865542D1*
X906093Y867443D1*
X911841Y869388D1*
X917545D1*
X923293Y867443D1*
X927139Y863640D1*
X929041Y857892D1*
Y854090D1*
X927139Y848342D1*
X923293Y844495D1*
X917545Y842594D1*
X911841D1*
X906093Y844495D1*
X904192Y846441D1*
X902246Y850243D1*
X1640794Y782786D2*
Y752189D1*
X1638893Y746441D1*
X1636947Y744539D1*
X1633145Y742594D1*
X1629298D1*
X1625495Y744539D1*
X1623594Y746441D1*
X1621649Y752189D1*
Y755991D1*
X1676093Y777038D2*
X1674192Y780840D1*
X1668444Y782742D1*
X1664641D1*
X1658893Y780840D1*
X1655047Y775092D1*
X1653145Y765542D1*
Y755991D1*
X1655047Y748342D1*
X1658893Y744495D1*
X1664641Y742594D1*
X1666543D1*
X1672246Y744495D1*
X1676093Y748342D1*
X1677994Y754090D1*
Y755991D1*
X1676093Y761739D1*
X1672246Y765542D1*
X1666543Y767443D1*
X1664641D1*
X1658893Y765542D1*
X1655047Y761739D1*
X1653145Y755991D1*
X1764803Y895284D2*
Y864687D1*
X1762902Y858939D1*
X1760956Y857038D1*
X1757153Y855092D1*
X1753307D1*
X1749504Y857038D1*
X1747603Y858939D1*
X1745657Y864687D1*
Y868490D1*
X1784803Y855092D2*
X1803949Y895240D1*
X1777154D1*
X2496003Y782786D2*
Y752189D1*
X2494102Y746441D1*
X2492157Y744539D1*
X2488354Y742594D1*
X2484507D1*
X2480705Y744539D1*
X2478804Y746441D1*
X2476858Y752189D1*
Y755991D1*
X2517905Y782742D2*
X2512202Y780840D1*
X2510256Y777038D1*
Y773191D1*
X2512202Y769388D1*
X2516004Y767443D1*
X2523653Y765542D1*
X2529401Y763640D1*
X2533204Y759794D1*
X2535105Y755991D1*
Y750243D1*
X2533204Y746441D1*
X2531303Y744495D1*
X2525555Y742594D1*
X2517905D1*
X2512202Y744495D1*
X2510256Y746441D1*
X2508355Y750243D1*
Y755991D1*
X2510256Y759794D1*
X2514103Y763640D1*
X2519807Y765542D1*
X2527456Y767443D1*
X2531303Y769388D1*
X2533204Y773191D1*
Y777038D1*
X2531303Y780840D1*
X2525555Y782742D1*
X2517905D1*
X803354Y2682597D2*
Y2652000D1*
X801453Y2646252D1*
X799508Y2644350D1*
X795705Y2642405D1*
X791858D1*
X788056Y2644350D1*
X786155Y2646252D1*
X784209Y2652000D1*
Y2655802D1*
X840599Y2669199D2*
X838654Y2663451D1*
X834851Y2659605D1*
X829103Y2657703D1*
X827202D1*
X821454Y2659605D1*
X817651Y2663451D1*
X815706Y2669199D1*
Y2671101D1*
X817651Y2676849D1*
X821454Y2680651D1*
X827202Y2682553D1*
X829103D1*
X834851Y2680651D1*
X838654Y2676849D1*
X840599Y2669199D1*
Y2659605D1*
X838654Y2650054D1*
X834851Y2644306D1*
X829103Y2642405D1*
X825301D1*
X819553Y2644306D1*
X817651Y2648153D1*
X6123222Y2725901D2*
Y2685709D1*
X6146170D1*
X6158522Y2718208D2*
X6162368Y2720153D1*
X6168116Y2725857D1*
Y2685709D1*
X3345479Y3886235D2*
Y3846043D1*
X3368427D1*
X3384625Y3886190D2*
X3405628D1*
X3394176Y3870892D1*
X3399924D1*
X3403726Y3868991D1*
X3405628Y3867089D1*
X3407573Y3861341D1*
Y3857539D1*
X3405628Y3851791D1*
X3401825Y3847944D1*
X3396077Y3846043D1*
X3390329D1*
X3384625Y3847944D1*
X3382724Y3849889D1*
X3380779Y3853692D1*
X1208160Y3946374D2*
Y3906182D1*
X1231108D1*
X1262605D2*
Y3946330D1*
X1243459Y3919579D1*
X1272155D1*
X3278314Y1196193D2*
X3318506D1*
Y1219140D1*
X3286008Y1231492D2*
X3284062Y1235339D1*
X3278358Y1241087D1*
X3318506D1*
X3278358Y1264934D2*
X3280259Y1259186D1*
X3286008Y1255339D1*
X3295558Y1253438D1*
X3301306D1*
X3310857Y1255339D1*
X3316605Y1259186D1*
X3318506Y1264934D1*
Y1268737D1*
X3316605Y1274485D1*
X3310857Y1278287D1*
X3301306Y1280233D1*
X3295558D1*
X3286008Y1278287D1*
X3280259Y1274485D1*
X3278358Y1268737D1*
Y1264934D1*
X3286008Y1278287D2*
X3310857Y1255339D1*
X2671736Y1996108D2*
X2711929D1*
Y2019055D1*
X2679430Y2031407D2*
X2677485Y2035254D1*
X2671781Y2041002D1*
X2711929D1*
X2679430Y2053353D2*
X2677485Y2057200D1*
X2671781Y2062948D1*
X2711929D1*
X2818311Y1995455D2*
X2858503D1*
Y2018402D1*
X2826005Y2030754D2*
X2824059Y2034601D1*
X2818356Y2040349D1*
X2858503D1*
Y2071845D2*
X2818356D1*
X2845106Y2052700D1*
Y2081396D1*
X3717091Y952114D2*
X3757283D1*
Y975062D1*
X3724784Y987413D2*
X3722839Y991260D1*
X3717135Y997008D1*
X3757283D1*
X3717135Y1032307D2*
Y1013206D1*
X3734335Y1011305D1*
X3732434Y1013206D1*
X3730488Y1018954D1*
Y1024658D1*
X3732434Y1030406D1*
X3736236Y1034253D1*
X3741984Y1036154D1*
X3745787D1*
X3751535Y1034253D1*
X3755382Y1030406D1*
X3757283Y1024658D1*
Y1018954D1*
X3755382Y1013206D1*
X3753436Y1011305D1*
X3749634Y1009359D1*
X1539043Y2607791D2*
Y2567599D1*
X1561991D1*
X1574342Y2600098D2*
X1578189Y2602043D1*
X1583937Y2607747D1*
Y2567599D1*
X1603938D2*
X1623083Y2607747D1*
X1596288D1*
X1126624Y2607791D2*
Y2567599D1*
X1149572D1*
X1161923Y2600098D2*
X1165770Y2602043D1*
X1171518Y2607747D1*
Y2567599D1*
X1193420Y2607747D2*
X1187716Y2605846D1*
X1185771Y2602043D1*
Y2598196D1*
X1187716Y2594394D1*
X1191519Y2592448D1*
X1199168Y2590547D1*
X1204916Y2588646D1*
X1208719Y2584799D1*
X1210620Y2580996D1*
Y2575248D1*
X1208719Y2571446D1*
X1206817Y2569500D1*
X1201069Y2567599D1*
X1193420D1*
X1187716Y2569500D1*
X1185771Y2571446D1*
X1183870Y2575248D1*
Y2580996D1*
X1185771Y2584799D1*
X1189618Y2588646D1*
X1195321Y2590547D1*
X1202971Y2592448D1*
X1206817Y2594394D1*
X1208719Y2598196D1*
Y2602043D1*
X1206817Y2605846D1*
X1201069Y2607747D1*
X1193420D1*
X1199088Y3473933D2*
Y3433741D1*
X1222036D1*
X1234387Y3466239D2*
X1238234Y3468185D1*
X1243982Y3473889D1*
Y3433741D1*
X1281227Y3460535D2*
X1279281Y3454787D1*
X1275479Y3450941D1*
X1269731Y3449039D1*
X1267830D1*
X1262082Y3450941D1*
X1258279Y3454787D1*
X1256334Y3460535D1*
Y3462437D1*
X1258279Y3468185D1*
X1262082Y3471987D1*
X1267830Y3473889D1*
X1269731D1*
X1275479Y3471987D1*
X1279281Y3468185D1*
X1281227Y3460535D1*
Y3450941D1*
X1279281Y3441390D1*
X1275479Y3435642D1*
X1269731Y3433741D1*
X1265928D1*
X1260180Y3435642D1*
X1258279Y3439489D1*
X4115393Y3960693D2*
X4132593D1*
X4138341Y3962638D1*
X4140287Y3964540D1*
X4142188Y3968342D1*
Y3972189D1*
X4140287Y3975992D1*
X4138341Y3977937D1*
X4132593Y3979838D1*
X4115393D1*
Y3939646D1*
X4128791Y3960693D2*
X4142188Y3939646D1*
X4154539Y3972145D2*
X4158386Y3974090D1*
X4164134Y3979794D1*
Y3939646D1*
X4673165Y4409943D2*
Y4427143D1*
X4671220Y4432891D1*
X4669319Y4434837D1*
X4665516Y4436738D1*
X4661669D1*
X4657867Y4434837D1*
X4655921Y4432891D1*
X4654020Y4427143D1*
Y4409943D1*
X4694212D1*
X4673165Y4423340D2*
X4694212Y4436738D1*
X4663615Y4451035D2*
X4661714D1*
X4657867Y4452936D1*
X4655966Y4454837D1*
X4654064Y4458684D1*
Y4466333D1*
X4655966Y4470136D1*
X4657867Y4472037D1*
X4661714Y4473983D1*
X4665516D1*
X4669363Y4472037D1*
X4675067Y4468234D1*
X4694212Y4449089D1*
Y4475884D1*
X5051118Y4518211D2*
Y4535411D1*
X5049173Y4541159D1*
X5047271Y4543104D1*
X5043469Y4545005D1*
X5039622Y4545006D1*
X5035820Y4543104D1*
X5033874Y4541159D1*
X5031973Y4535411D1*
Y4518211D1*
X5072165D1*
X5051118Y4531608D2*
X5072165Y4545005D1*
X5032017Y4580305D2*
Y4561204D1*
X5049217Y4559302D1*
X5047316Y4561204D1*
X5045370Y4566952D1*
Y4572655D1*
X5047316Y4578403D1*
X5051118Y4582250D1*
X5056866Y4584151D1*
X5060669D1*
X5066417Y4582250D1*
X5070263Y4578403D1*
X5072165Y4572655D1*
Y4566952D1*
X5070263Y4561204D1*
X5068318Y4559302D1*
X5064515Y4557357D1*
X1541276Y4083194D2*
Y4100393D1*
X1539330Y4106141D1*
X1537429Y4108087D1*
X1533626Y4109988D1*
X1529780D1*
X1525977Y4108087D1*
X1524032Y4106141D1*
X1522130Y4100393D1*
Y4083194D1*
X1562322D1*
X1541276Y4096591D2*
X1562322Y4109988D1*
X1522174Y4131890D2*
X1524076Y4126186D1*
X1527878Y4124241D1*
X1531725D1*
X1535528Y4126186D1*
X1537473Y4129989D1*
X1539374Y4137638D1*
X1541276Y4143386D1*
X1545122Y4147189D1*
X1548925Y4149090D1*
X1554673D1*
X1558475Y4147189D1*
X1560421Y4145287D1*
X1562322Y4139539D1*
Y4131890D1*
X1560421Y4126186D1*
X1558475Y4124241D1*
X1554673Y4122340D1*
X1548925D1*
X1545122Y4124241D1*
X1541276Y4128088D1*
X1539374Y4133791D1*
X1537473Y4141441D1*
X1535528Y4145287D1*
X1531725Y4147189D1*
X1527878D1*
X1524076Y4145288D1*
X1522174Y4139539D1*
Y4131890D1*
X3519049Y1722504D2*
X3536249D1*
X3541997Y1724449D1*
X3543942Y1726351D1*
X3545843Y1730153D1*
Y1734000D1*
X3543942Y1737803D1*
X3541997Y1739748D1*
X3536249Y1741649D1*
X3519049D1*
Y1701457D1*
X3532446Y1722504D2*
X3545843Y1701457D1*
X3560140Y1732055D2*
Y1733956D1*
X3562041Y1737803D1*
X3563943Y1739704D1*
X3567790Y1741605D1*
X3575439D1*
X3579241Y1739704D1*
X3581143Y1737803D1*
X3583088Y1733956D1*
Y1730153D1*
X3581143Y1726307D1*
X3577340Y1720603D1*
X3558195Y1701457D1*
X3584989D1*
X3597341Y1733956D2*
X3601188Y1735901D1*
X3606936Y1741605D1*
Y1701457D1*
X3510449Y1859990D2*
X3527649D1*
X3533397Y1861935D1*
X3535342Y1863836D1*
X3537243Y1867639D1*
Y1871486D1*
X3535342Y1875288D1*
X3533397Y1877234D1*
X3527649Y1879135D1*
X3510449D1*
Y1838943D1*
X3523846Y1859990D2*
X3537243Y1838943D1*
X3551540Y1869540D2*
Y1871441D1*
X3553442Y1875288D1*
X3555343Y1877189D1*
X3559190Y1879091D1*
X3566839D1*
X3570641Y1877189D1*
X3572543Y1875288D1*
X3574488Y1871441D1*
Y1867639D1*
X3572543Y1863792D1*
X3568740Y1858088D1*
X3549595Y1838943D1*
X3576389D1*
X3590686Y1869540D2*
Y1871441D1*
X3592588Y1875288D1*
X3594489Y1877189D1*
X3598336Y1879091D1*
X3605985D1*
X3609787Y1877189D1*
X3611689Y1875288D1*
X3613634Y1871441D1*
Y1867639D1*
X3611689Y1863792D1*
X3607886Y1858088D1*
X3588741Y1838943D1*
X3615536D1*
X3509498Y1585018D2*
X3526698D1*
X3532446Y1586964D1*
X3534391Y1588865D1*
X3536293Y1592668D1*
Y1596514D1*
X3534391Y1600317D1*
X3532446Y1602262D1*
X3526698Y1604164D1*
X3509498D1*
Y1563972D1*
X3522895Y1585018D2*
X3536293Y1563972D1*
X3550590Y1594569D2*
Y1596470D1*
X3552491Y1600317D1*
X3554392Y1602218D1*
X3558239Y1604120D1*
X3565888D1*
X3569691Y1602218D1*
X3571592Y1600317D1*
X3573538Y1596470D1*
Y1592668D1*
X3571592Y1588821D1*
X3567790Y1583117D1*
X3548644Y1563972D1*
X3575439D1*
X3606936D2*
Y1604120D1*
X3587790Y1577369D1*
X3616486D1*
X2557693Y4126047D2*
X2574893D1*
X2580641Y4127993D1*
X2582586Y4129894D1*
X2584487Y4133697D1*
Y4137543D1*
X2582586Y4141346D1*
X2580641Y4143291D1*
X2574893Y4145193D1*
X2557693D1*
Y4105001D1*
X2571090Y4126047D2*
X2584487Y4105001D1*
X2598784Y4135598D2*
Y4137499D1*
X2600686Y4141346D1*
X2602587Y4143247D1*
X2606434Y4145148D1*
X2614083D1*
X2617886Y4143247D1*
X2619787Y4141346D1*
X2621732Y4137499D1*
Y4133697D1*
X2619787Y4129850D1*
X2615984Y4124146D1*
X2596839Y4105001D1*
X2623634D1*
X2658933Y4145148D2*
X2639832D1*
X2637930Y4127949D1*
X2639832Y4129850D1*
X2645580Y4131795D1*
X2651284D1*
X2657032Y4129850D1*
X2660878Y4126047D1*
X2662780Y4120299D1*
Y4116497D1*
X2660878Y4110749D1*
X2657032Y4106902D1*
X2651284Y4105001D1*
X2645580D1*
X2639832Y4106902D1*
X2637930Y4108847D1*
X2635985Y4112650D1*
X2821972Y1222150D2*
X2839171D1*
X2844919Y1224095D1*
X2846865Y1225996D1*
X2848766Y1229799D1*
Y1233646D1*
X2846865Y1237448D1*
X2844919Y1239394D1*
X2839171Y1241295D1*
X2821972D1*
Y1201103D1*
X2835369Y1222150D2*
X2848766Y1201103D1*
X2863063Y1231700D2*
Y1233601D1*
X2864964Y1237448D1*
X2866866Y1239350D1*
X2870712Y1241251D1*
X2878362D1*
X2882164Y1239350D1*
X2884066Y1237448D1*
X2886011Y1233601D1*
Y1229799D1*
X2884066Y1225952D1*
X2880263Y1220248D1*
X2861118Y1201103D1*
X2887912D1*
X2925157Y1227898D2*
X2923212Y1222150D1*
X2919409Y1218303D1*
X2913661Y1216402D1*
X2911760D1*
X2906012Y1218303D1*
X2902209Y1222150D1*
X2900264Y1227898D1*
Y1229799D1*
X2902209Y1235547D1*
X2906012Y1239350D1*
X2911760Y1241251D1*
X2913661D1*
X2919409Y1239350D1*
X2923212Y1235547D1*
X2925157Y1227898D1*
Y1218303D1*
X2923212Y1208752D1*
X2919409Y1203004D1*
X2913661Y1201103D1*
X2909858D1*
X2904110Y1203004D1*
X2902209Y1206851D1*
X2823273Y1765843D2*
X2840473D1*
X2846221Y1767788D1*
X2848166Y1769689D1*
X2850068Y1773492D1*
Y1777339D1*
X2848166Y1781141D1*
X2846221Y1783087D1*
X2840473Y1784988D1*
X2823273D1*
Y1744796D1*
X2836670Y1765843D2*
X2850068Y1744796D1*
X2866266Y1784944D2*
X2887268D1*
X2875816Y1769645D1*
X2881564D1*
X2885367Y1767744D1*
X2887268Y1765843D1*
X2889214Y1760095D1*
Y1756292D1*
X2887268Y1750544D1*
X2883466Y1746697D1*
X2877718Y1744796D1*
X2871970D1*
X2866266Y1746697D1*
X2864364Y1748643D1*
X2862419Y1752445D1*
X2903510Y1775393D2*
Y1777294D1*
X2905412Y1781141D1*
X2907313Y1783042D1*
X2911160Y1784944D1*
X2918809D1*
X2922612Y1783042D1*
X2924513Y1781141D1*
X2926458Y1777294D1*
Y1773492D1*
X2924513Y1769645D1*
X2920710Y1763941D1*
X2901565Y1744796D1*
X2928360D1*
X1091866Y1234622D2*
Y1251822D1*
X1089921Y1257570D1*
X1088019Y1259515D1*
X1084217Y1261417D1*
X1080370D1*
X1076568Y1259515D1*
X1074622Y1257570D1*
X1072721Y1251822D1*
Y1234622D1*
X1112913D1*
X1091866Y1248019D2*
X1112913Y1261417D1*
X1072765Y1277615D2*
Y1298617D1*
X1088064Y1287165D1*
Y1292913D1*
X1089965Y1296716D1*
X1091866Y1298617D1*
X1097614Y1300563D1*
X1101417D1*
X1107165Y1298617D1*
X1111012Y1294815D1*
X1112913Y1289067D1*
Y1283319D1*
X1111012Y1277615D1*
X1109066Y1275714D1*
X1105264Y1273768D1*
X1112913Y1320563D2*
X1072765Y1339709D1*
Y1312914D1*
X1968661Y1212352D2*
Y1229552D1*
X1966716Y1235300D1*
X1964815Y1237245D1*
X1961012Y1239146D1*
X1957165D1*
X1953363Y1237245D1*
X1951417Y1235300D1*
X1949516Y1229552D1*
Y1212352D1*
X1989708D1*
X1968661Y1225749D2*
X1989708Y1239146D1*
X1949560Y1274446D2*
Y1255345D1*
X1966760Y1253443D1*
X1964859Y1255344D1*
X1962913Y1261093D1*
Y1266796D1*
X1964859Y1272544D1*
X1968661Y1276391D1*
X1974409Y1278292D1*
X1978212D1*
X1983960Y1276391D1*
X1987807Y1272544D1*
X1989708Y1266796D1*
Y1261092D1*
X1987807Y1255344D1*
X1985861Y1253443D1*
X1982059Y1251498D1*
X1989708Y1298293D2*
X1949560Y1317438D1*
Y1290644D1*
X1694819Y2592130D2*
Y2609330D1*
X1692873Y2615078D1*
X1690972Y2617024D1*
X1687170Y2618925D1*
X1683323D1*
X1679520Y2617024D1*
X1677575Y2615078D1*
X1675674Y2609330D1*
Y2592130D1*
X1715866D1*
X1694819Y2605528D2*
X1715866Y2618925D1*
X1681422Y2654224D2*
X1677619Y2652323D1*
X1675718Y2646575D1*
Y2642772D1*
X1677619Y2637024D1*
X1683367Y2633178D1*
X1692918Y2631276D1*
X1702468D1*
X1710118Y2633177D1*
X1713964Y2637024D1*
X1715866Y2642772D1*
Y2644674D1*
X1713964Y2650377D1*
X1710118Y2654224D1*
X1704369Y2656125D1*
X1702468D1*
X1696720Y2654224D1*
X1692918Y2650377D1*
X1691016Y2644674D1*
Y2642772D1*
X1692918Y2637024D1*
X1696720Y2633178D1*
X1702468Y2631276D1*
X1675718Y2672324D2*
Y2693326D1*
X1691016Y2681874D1*
Y2687622D1*
X1692918Y2691425D1*
X1694819Y2693326D1*
X1700567Y2695271D1*
X1704369D1*
X1710118Y2693326D1*
X1713964Y2689523D1*
X1715866Y2683775D1*
Y2678027D1*
X1713964Y2672324D1*
X1712019Y2670422D1*
X1708216Y2668477D1*
X623953Y2437636D2*
Y2454836D1*
X622007Y2460584D1*
X620106Y2462530D1*
X616303Y2464431D1*
X612457D1*
X608654Y2462530D1*
X606709Y2460584D1*
X604807Y2454836D1*
Y2437636D1*
X644999D1*
X623953Y2451034D2*
X644999Y2464431D1*
X610555Y2499730D2*
X606753Y2497829D1*
X604852Y2492081D1*
Y2488278D1*
X606753Y2482530D1*
X612501Y2478684D1*
X622052Y2476782D1*
X631602D1*
X639251Y2478684D1*
X643098Y2482530D1*
X644999Y2488278D1*
Y2490180D1*
X643098Y2495883D1*
X639251Y2499730D1*
X633503Y2501631D1*
X631602D1*
X625854Y2499730D1*
X622052Y2495883D1*
X620150Y2490180D1*
Y2488278D1*
X622052Y2482530D1*
X625854Y2478684D1*
X631602Y2476782D1*
X644999Y2533128D2*
X604852D1*
X631602Y2513983D1*
Y2542679D1*
X3957542Y3814445D2*
X3953740Y3818291D1*
X3947992Y3820193D1*
X3940342D1*
X3934594Y3818291D1*
X3930748Y3814445D1*
Y3810642D1*
X3932693Y3806795D1*
X3934594Y3804894D1*
X3938397Y3802993D1*
X3949893Y3799146D1*
X3953740Y3797245D1*
X3955641Y3795299D1*
X3957542Y3791497D1*
Y3785749D1*
X3953740Y3781946D1*
X3947992Y3780001D1*
X3940342D1*
X3934594Y3781946D1*
X3930748Y3785749D1*
X3969894Y3812499D2*
X3973741Y3814445D1*
X3979489Y3820148D1*
Y3780001D1*
X1513210Y4430626D2*
X1528509Y4390434D1*
X1543808Y4430626D1*
X1556159D2*
Y4390434D1*
X1569556D1*
X1575304Y4392379D1*
X1579151Y4396182D1*
X1581052Y4400028D1*
X1582954Y4405732D1*
Y4415327D1*
X1581052Y4421075D1*
X1579151Y4424878D1*
X1575304Y4428724D1*
X1569556Y4430626D1*
X1556159D1*
X1595305Y4422932D2*
X1599152Y4424878D1*
X1604900Y4430581D1*
Y4390434D1*
X2412189Y4462338D2*
X2452381Y4477636D1*
X2412189Y4492935D1*
Y4505286D2*
X2452381D1*
Y4518683D1*
X2450436Y4524431D1*
X2446633Y4528278D1*
X2442787Y4530180D1*
X2437083Y4532081D1*
X2427488D1*
X2421740Y4530180D1*
X2417937Y4528278D1*
X2414091Y4524432D1*
X2412189Y4518683D1*
Y4505286D1*
X2421784Y4546378D2*
X2419883D1*
X2416036Y4548279D1*
X2414135Y4550180D1*
X2412234Y4554027D1*
Y4561676D1*
X2414135Y4565479D1*
X2416036Y4567380D1*
X2419883Y4569326D1*
X2423685D1*
X2427532Y4567380D1*
X2433236Y4563578D1*
X2452381Y4544432D1*
Y4571227D1*
X2713272Y3940468D2*
X2728570Y3900276D1*
X2743869Y3940468D1*
X2756220D2*
Y3900276D1*
X2769618D1*
X2775366Y3902222D1*
X2779213Y3906024D1*
X2781114Y3909871D1*
X2783015Y3915575D1*
Y3925170D1*
X2781114Y3930918D1*
X2779213Y3934720D1*
X2775366Y3938567D1*
X2769618Y3940468D1*
X2756220D1*
X2799213Y3940424D2*
X2820216D1*
X2808764Y3925125D1*
X2814512D1*
X2818314Y3923224D1*
X2820216Y3921323D1*
X2822161Y3915575D1*
Y3911772D1*
X2820216Y3906024D1*
X2816413Y3902177D1*
X2810665Y3900276D1*
X2804917D1*
X2799213Y3902177D1*
X2797312Y3904123D1*
X2795367Y3907926D1*
X949615Y1203613D2*
X964914Y1163421D1*
X980212Y1203613D1*
X992564D2*
Y1163421D1*
X1005961D1*
X1011709Y1165366D1*
X1015556Y1169169D1*
X1017457Y1173015D1*
X1019358Y1178719D1*
Y1188314D1*
X1017457Y1194062D1*
X1015556Y1197865D1*
X1011709Y1201711D1*
X1005961Y1203613D1*
X992564D1*
X1050855Y1163421D2*
Y1203568D1*
X1031710Y1176818D1*
X1060406D1*
X3849097Y828795D2*
X3864396Y788603D1*
X3879695Y828795D1*
X3892046D2*
Y788603D1*
X3905443D1*
X3911191Y790548D1*
X3915038Y794351D1*
X3916939Y798198D1*
X3918841Y803902D1*
Y813496D1*
X3916939Y819244D1*
X3915038Y823047D1*
X3911191Y826894D1*
X3905443Y828795D1*
X3892046D1*
X3954140Y828751D2*
X3935039D1*
X3933137Y811551D1*
X3935039Y813452D1*
X3940787Y815398D1*
X3946491D1*
X3952239Y813452D1*
X3956085Y809650D1*
X3957987Y803902D1*
Y800099D1*
X3956085Y794351D1*
X3952239Y790504D1*
X3946491Y788603D1*
X3940787D1*
X3935039Y790504D1*
X3933137Y792450D1*
X3931192Y796252D1*
X3653102Y822544D2*
X3668400Y782352D1*
X3683699Y822544D1*
X3696050D2*
Y782352D1*
X3709448D1*
X3715196Y784298D1*
X3719042Y788100D1*
X3720944Y791947D1*
X3722845Y797651D1*
Y807246D1*
X3720944Y812994D1*
X3719042Y816796D1*
X3715196Y820643D1*
X3709448Y822544D1*
X3696050D1*
X3758144Y816796D2*
X3756243Y820599D1*
X3750495Y822500D1*
X3746692D1*
X3740944Y820599D1*
X3737098Y814851D1*
X3735196Y805300D1*
Y795750D1*
X3737098Y788100D1*
X3740944Y784254D1*
X3746692Y782352D1*
X3748594D1*
X3754297Y784254D1*
X3758144Y788100D1*
X3760045Y793848D1*
Y795750D1*
X3758144Y801498D1*
X3754297Y805300D1*
X3748594Y807202D1*
X3746692D1*
X3740944Y805300D1*
X3737098Y801498D1*
X3735196Y795750D1*
X4125437Y834492D2*
X4165629Y849791D1*
X4125437Y865090D1*
Y877441D2*
X4165629D1*
Y890838D1*
X4163684Y896586D1*
X4159881Y900433D1*
X4156035Y902334D1*
X4150331Y904236D1*
X4140736D1*
X4134988Y902334D1*
X4131185Y900433D1*
X4127339Y896586D1*
X4125437Y890838D1*
Y877441D1*
X4165629Y924236D2*
X4125482Y943382D1*
Y916587D1*
X4267918Y834515D2*
X4308110Y849813D1*
X4267918Y865112D1*
Y877463D2*
X4308110D1*
Y890860D1*
X4306164Y896608D1*
X4302362Y900455D1*
X4298515Y902356D1*
X4292811Y904258D1*
X4283216D1*
X4277468Y902356D1*
X4273666Y900455D1*
X4269819Y896608D1*
X4267918Y890860D1*
Y877463D1*
X4267962Y926160D2*
X4269863Y920456D1*
X4273666Y918510D1*
X4277512D1*
X4281315Y920456D1*
X4283260Y924258D1*
X4285162Y931908D1*
X4287063Y937656D1*
X4290910Y941458D1*
X4294712Y943360D1*
X4300460D1*
X4304263Y941458D1*
X4306208Y939557D1*
X4308110Y933809D1*
Y926160D1*
X4306208Y920456D1*
X4304263Y918510D1*
X4300460Y916609D1*
X4294712D1*
X4290910Y918510D1*
X4287063Y922357D1*
X4285162Y928061D1*
X4283260Y935710D1*
X4281315Y939557D1*
X4277512Y941458D1*
X4273666D1*
X4269863Y939557D1*
X4267962Y933809D1*
Y926160D1*
X1826425Y1216298D2*
X1841723Y1176106D1*
X1857022Y1216298D1*
X1869373D2*
Y1176106D1*
X1882771D1*
X1888519Y1178051D1*
X1892365Y1181854D1*
X1894267Y1185700D1*
X1896168Y1191404D1*
Y1200999D1*
X1894267Y1206747D1*
X1892365Y1210550D1*
X1888519Y1214396D1*
X1882771Y1216298D1*
X1869373D1*
X1933413Y1202900D2*
X1931467Y1197152D1*
X1927665Y1193305D1*
X1921917Y1191404D1*
X1920015D1*
X1914267Y1193305D1*
X1910465Y1197152D1*
X1908519Y1202900D1*
Y1204802D1*
X1910465Y1210550D1*
X1914267Y1214352D1*
X1920015Y1216253D1*
X1921917D1*
X1927665Y1214352D1*
X1931467Y1210550D1*
X1933413Y1202900D1*
Y1193305D1*
X1931467Y1183755D1*
X1927665Y1178007D1*
X1921917Y1176106D1*
X1918114D1*
X1912366Y1178007D1*
X1910465Y1181854D1*
X4410398Y827653D2*
X4450590Y842952D1*
X4410398Y858250D1*
Y870602D2*
X4450590D1*
Y883999D1*
X4448644Y889747D1*
X4444842Y893594D1*
X4440995Y895495D1*
X4435291Y897396D1*
X4425697D1*
X4419949Y895495D1*
X4416146Y893594D1*
X4412299Y889747D1*
X4410398Y883999D1*
Y870602D1*
X4418091Y909748D2*
X4416146Y913595D1*
X4410442Y919343D1*
X4450590D1*
X4410442Y943190D2*
X4412343Y937442D1*
X4418091Y933595D1*
X4427642Y931694D1*
X4433390D1*
X4442941Y933595D1*
X4448689Y937442D1*
X4450590Y943190D1*
Y946993D1*
X4448689Y952741D1*
X4442941Y956543D1*
X4433390Y958489D1*
X4427642D1*
X4418091Y956543D1*
X4412343Y952741D1*
X4410442Y946993D1*
Y943190D1*
X4418091Y956543D2*
X4442941Y933595D1*
X4692327Y833222D2*
X4732519Y848520D1*
X4692327Y863819D1*
Y876170D2*
X4732519D1*
Y889567D1*
X4730574Y895316D1*
X4726771Y899162D1*
X4722924Y901064D1*
X4717220Y902965D1*
X4707626D1*
X4701878Y901064D1*
X4698075Y899162D1*
X4694228Y895316D1*
X4692327Y889568D1*
Y876170D1*
X4700021Y915316D2*
X4698075Y919163D1*
X4692371Y924911D1*
X4732519D1*
X4700021Y937262D2*
X4698075Y941109D1*
X4692371Y946857D1*
X4732519D1*
X604781Y2737942D2*
X644973Y2753240D1*
X604781Y2768539D1*
Y2780891D2*
X644973Y2780890D1*
Y2794288D1*
X643028Y2800036D1*
X639225Y2803883D1*
X635378Y2805784D1*
X629675Y2807685D1*
X620080D1*
X614332Y2805784D1*
X610529Y2803883D1*
X606682Y2800036D1*
X604781Y2794288D1*
Y2780891D1*
X612475Y2820037D2*
X610529Y2823883D1*
X604825Y2829631D1*
X644973D1*
X614376Y2843928D2*
X612475D1*
X608628Y2845829D1*
X606727Y2847731D1*
X604825Y2851577D1*
Y2859227D1*
X606727Y2863029D1*
X608628Y2864931D1*
X612475Y2866876D1*
X616277D1*
X620124Y2864931D1*
X625828Y2861128D1*
X644973Y2841983D1*
Y2868777D1*
X2904368Y4000508D2*
X2919666Y3960316D1*
X2934965Y4000508D1*
X2960714D2*
Y3960316D1*
X2947316Y4000508D2*
X2974111D1*
X2986463Y3992814D2*
X2990309Y3994760D1*
X2996057Y4000463D1*
Y3960316D1*
X6235108Y2424547D2*
X6261903Y2384355D1*
Y2424547D2*
X6235108Y2384355D1*
X6276200Y2414952D2*
Y2416853D1*
X6278101Y2420700D1*
X6280002Y2422601D1*
X6283849Y2424503D1*
X6291499D1*
X6295301Y2422601D1*
X6297202Y2420700D1*
X6299148Y2416853D1*
Y2413051D1*
X6297202Y2409204D1*
X6293400Y2403500D1*
X6274254Y2384355D1*
X6301049D1*
X5029038Y2205773D2*
X5055832Y2165581D1*
Y2205773D2*
X5029038Y2165581D1*
X5091131Y2205728D2*
X5072030D1*
X5070129Y2188529D1*
X5072030Y2190430D1*
X5077778Y2192375D1*
X5083482D1*
X5089230Y2190430D1*
X5093077Y2186627D1*
X5094978Y2180879D1*
Y2177077D1*
X5093077Y2171329D1*
X5089230Y2167482D1*
X5083482Y2165581D1*
X5077778D1*
X5072030Y2167482D1*
X5070129Y2169427D1*
X5068184Y2173230D1*
X1152254Y826295D2*
X1179049Y786103D1*
Y826295D2*
X1152254Y786103D1*
X1214348Y820547D2*
X1212447Y824350D1*
X1206699Y826251D1*
X1202896D1*
X1197148Y824350D1*
X1193302Y818601D1*
X1191400Y809051D1*
Y799500D1*
X1193302Y791851D1*
X1197148Y788004D1*
X1202896Y786103D1*
X1204798D1*
X1210502Y788004D1*
X1214348Y791851D1*
X1216250Y797599D1*
Y799500D1*
X1214348Y805248D1*
X1210502Y809051D1*
X1204798Y810952D1*
X1202896D1*
X1197148Y809051D1*
X1193302Y805248D1*
X1191400Y799500D1*
X3953496Y450577D2*
X3980290Y410385D1*
Y450577D2*
X3953496Y410385D1*
X4000291D2*
X4019436Y450533D1*
X3992642D1*
X3829125Y2205823D2*
X3855920Y2165631D1*
Y2205823D2*
X3829125Y2165631D1*
X3877822Y2205778D2*
X3872118Y2203877D1*
X3870173Y2200075D1*
Y2196228D1*
X3872118Y2192425D1*
X3875921Y2190480D1*
X3883570Y2188578D1*
X3889318Y2186677D1*
X3893120Y2182830D1*
X3895022Y2179028D1*
Y2173280D1*
X3893120Y2169477D1*
X3891219Y2167532D1*
X3885471Y2165631D1*
X3877822D1*
X3872118Y2167532D1*
X3870173Y2169477D1*
X3868271Y2173280D1*
Y2179028D1*
X3870173Y2182830D1*
X3874019Y2186677D1*
X3879723Y2188578D1*
X3887372Y2190480D1*
X3891219Y2192425D1*
X3893120Y2196228D1*
Y2200075D1*
X3891219Y2203877D1*
X3885471Y2205778D1*
X3877822D1*
X2018374Y826295D2*
X2045169Y786103D1*
Y826295D2*
X2018374Y786103D1*
X2082413Y812898D2*
X2080468Y807150D1*
X2076665Y803303D1*
X2070917Y801402D1*
X2069016D1*
X2063268Y803303D1*
X2059466Y807150D1*
X2057520Y812898D1*
Y814799D1*
X2059466Y820547D1*
X2063268Y824350D1*
X2069016Y826251D1*
X2070917D1*
X2076665Y824350D1*
X2080468Y820547D1*
X2082413Y812898D1*
Y803303D1*
X2080468Y793752D1*
X2076665Y788004D1*
X2070917Y786103D1*
X2067115D1*
X2061367Y788004D1*
X2059466Y791851D1*
X3030707Y2215665D2*
X3057502Y2175473D1*
Y2215665D2*
X3030707Y2175473D1*
X3069854Y2207972D2*
X3073700Y2209917D1*
X3079448Y2215621D1*
Y2175473D1*
X3103296Y2215621D2*
X3097548Y2213720D1*
X3093701Y2207972D1*
X3091800Y2198421D1*
Y2192673D1*
X3093701Y2183122D1*
X3097548Y2177374D1*
X3103296Y2175473D1*
X3107098D1*
X3112846Y2177374D1*
X3116649Y2183122D1*
X3118594Y2192673D1*
Y2198421D1*
X3116649Y2207972D1*
X3112846Y2213720D1*
X3107098Y2215621D1*
X3103296D1*
X3116649Y2207972D2*
X3093701Y2183122D1*
X5361507Y826295D2*
X5388302Y786103D1*
Y826295D2*
X5361507Y786103D1*
X5400653Y818601D2*
X5404500Y820547D1*
X5410248Y826251D1*
Y786103D1*
X5422599Y818601D2*
X5426446Y820547D1*
X5432194Y826251D1*
Y786103D1*
X3061343Y4752082D2*
X3088138Y4711890D1*
Y4752082D2*
X3061343Y4711890D1*
X3104336Y4752038D2*
X3125339D1*
X3113887Y4736740D1*
X3119635D1*
X3123437Y4734838D1*
X3125339Y4732937D1*
X3127284Y4727189D1*
Y4723386D1*
X3125339Y4717638D1*
X3121536Y4713792D1*
X3115788Y4711890D1*
X3110040D1*
X3104336Y4713792D1*
X3102435Y4715737D1*
X3100489Y4719540D1*
X3141537Y4715737D2*
X3139635Y4713792D1*
X3141537Y4711890D1*
X3143482Y4713792D1*
X3141537Y4715737D1*
X3155834Y4744389D2*
X3159680Y4746334D1*
X3165428Y4752038D1*
Y4711890D1*
M02*
