M48
INCH
T01C0.0191
T02C0.0315
T03C0.032
T04C0.0354
T05C0.038
T06C0.0394
T07C0.0402
T08C0.0433
T09C0.0472
T10C0.0551
T11C0.06
T12C0.126
T13C0.13
T14C0.1654
%
T02
X+009449Y+035433
X+008661Y+035433
T08
X+019982Y+024581
X+019982Y+022612
T04
X+013561Y+027264
X+013561Y+028642
X+010311Y+027264
X+010311Y+028642
T02
X+006687Y+031890
X+006687Y+032677
X+009080Y+031890
X+009080Y+032677
T08
X+051807Y+016285
X+051807Y+014316
X+051807Y+011473
X+051807Y+009504
T04
X+016562Y+015594
X+016562Y+014594
X+016562Y+012594
X+016562Y+011594
X+016562Y+010594
X+016562Y+009594
X+016562Y+008594
X+025312Y+015656
X+025312Y+014656
X+025312Y+012656
X+025312Y+011656
X+025312Y+010656
X+025312Y+009656
X+025312Y+008656
T08
X+019873Y+029533
X+020542Y+031132
X+021211Y+029533
X+021881Y+031132
X+022550Y+029533
T14
X+021211Y+037235
T07
X+027319Y+004763
X+031299Y+004763
X+028319Y+005263
X+032299Y+005263
T11
X+032919Y+007893
X+026699Y+007893
T07
X+028059Y+009193
X+029059Y+009193
X+030059Y+009193
X+031059Y+009193
X+028559Y+010193
X+029559Y+010193
X+030559Y+010193
X+031559Y+010193
T13
X+032059Y+006693
X+027559Y+006693
T08
X+037500Y+029035
X+029429Y+029035
T09
X+056182Y+017348
X+056182Y+015347
X+056182Y+011348
X+056182Y+009340
T12
X+007283Y+045472
X+009350Y+041339
X+061614Y+045472
X+059547Y+041339
X+007283Y+009646
X+061614Y+009646
X+009350Y+013583
X+059547Y+013583
T08
X+039366Y+040472
X+040366Y+040472
X+041366Y+040472
X+043543Y+043701
X+043543Y+044701
X+028445Y+034744
X+028445Y+035744
X+018701Y+044685
X+019701Y+044685
X+009999Y+008911
X+009999Y+009911
X+016248Y+006348
X+016248Y+005348
X+018748Y+009098
X+018748Y+010098
X+024810Y+006348
X+024810Y+005348
X+008374Y+024346
X+008374Y+025346
T06
X+034750Y+036406
X+032781Y+036406
X+011417Y+037008
X+013386Y+037008
X+015811Y+024606
X+015811Y+022638
X+012670Y+023622
X+010702Y+023622
X+012402Y+031299
X+012402Y+033268
X+040437Y+037281
X+038665Y+037281
X+038665Y+034722
X+040437Y+034722
T07
X+059055Y+025370
X+059055Y+026370
X+059055Y+027370
X+059055Y+028370
X+059055Y+029370
X+059055Y+030370
X+059055Y+031370
X+059055Y+032370
X+059055Y+033370
X+059055Y+034370
X+059055Y+035370
X+059055Y+036370
X+059055Y+037370
X+059055Y+038370
X+059055Y+039370
X+060055Y+039370
X+060055Y+038370
X+060055Y+037370
X+060055Y+036370
X+060055Y+035370
X+060055Y+034370
X+060055Y+033370
X+060055Y+032370
X+060055Y+031370
X+060055Y+030370
X+060055Y+029370
X+060055Y+028370
X+060055Y+027370
X+060055Y+026370
X+060055Y+025370
T05
X+062181Y+021660
X+063181Y+021660
X+063181Y+020660
X+062181Y+020660
X+063181Y+019660
X+062181Y+019660
X+063181Y+018660
X+062181Y+018660
X+062181Y+017660
X+063181Y+017660
T07
X+046120Y+019972
X+047120Y+019972
X+048120Y+019972
X+049120Y+019972
X+050120Y+019972
X+051120Y+019972
X+052120Y+019972
X+053120Y+019972
X+054120Y+019972
X+055120Y+019972
X+055120Y+020972
X+054120Y+020972
X+053120Y+020972
X+052120Y+020972
X+051120Y+020972
X+050120Y+020972
X+049120Y+020972
X+048120Y+020972
X+047120Y+020972
X+046120Y+020972
T10
X+009843Y+005906
X+011843Y+005906
X+013843Y+005906
X+041339Y+005906
X+043339Y+005906
X+045339Y+005906
X+047339Y+005906
X+049339Y+005906
T07
X+043121Y+020972
X+042121Y+020972
X+041121Y+020972
X+040121Y+020972
X+039121Y+020972
X+038121Y+020972
X+037121Y+020972
X+036121Y+020972
X+035121Y+020972
X+034121Y+020972
X+034121Y+019972
X+035121Y+019972
X+036121Y+019972
X+037121Y+019972
X+038121Y+019972
X+039121Y+019972
X+040121Y+019972
X+041121Y+019972
X+042121Y+019972
X+043121Y+019972
T10
X+018504Y+005906
X+020504Y+005906
X+022504Y+005906
T07
X+031247Y+019972
X+031247Y+020972
X+030247Y+020972
X+030247Y+019972
T10
X+051969Y+005906
X+053969Y+005906
X+055969Y+005906
T05
X+033134Y+045685
X+033134Y+044685
X+032134Y+044685
X+032134Y+045685
X+031134Y+044685
X+031134Y+045685
X+030134Y+044685
X+030134Y+045685
X+029134Y+045685
X+029134Y+044685
T03
X+039213Y+031870
X+039213Y+032870
T01
X+016158Y+017750
X+025000Y+017736
X+015906Y+033425
X+027087Y+042087
X+014331Y+025551
X+023248Y+017087
X+019216Y+017087
X+011091Y+017126
X+014547Y+017126
X+027618Y+020945
X+025591Y+040512
X+029439Y+024636
X+047480Y+044902
X+050492Y+027441
X+051437Y+027461
X+050472Y+026358
X+052244Y+027736
X+051398Y+027972
X+051949Y+027205
X+040098Y+045531
X+057657Y+045118
X+057657Y+043346
X+057303Y+034567
X+050610Y+025197
X+045276Y+025177
X+048209Y+035157
X+047835Y+036476
X+047224Y+036634
X+047421Y+037165
X+046949Y+037539
X+013819Y+019213
X+021122Y+020472
X+032146Y+022756
X+039173Y+028799
X+042736Y+038858
X+032913Y+021378
X+039252Y+026890
X+042638Y+037992
X+050650Y+029764
X+029701Y+014902
X+035051Y+008937
X+049319Y+010452
X+046439Y+010452
X+030551Y+013445
X+033287Y+012224
X+039469Y+012244
X+018622Y+027874
X+007912Y+032677
X+016142Y+038917
X+018701Y+042126
X+030394Y+025453
X+032264Y+019980
X+033687Y+033844
X+028687Y+043531
X+027559Y+040787
X+035669Y+025693
X+035984Y+035748
X+054980Y+042795
X+011850Y+016614
X+020551Y+016299
X+053209Y+032047
X+052854Y+035453
X+055276Y+036711
X+051555Y+038898
X+051772Y+040866
X+044646Y+040433
X+044016Y+037835
X+044646Y+034685
X+048386Y+037677
X+048563Y+038622
X+050256Y+041260
X+048819Y+031988
X+050846Y+032244
X+049547Y+034429
X+050669Y+035551
X+046496Y+034429
X+050039Y+036181
X+056654Y+032224
X+058346Y+030866
X+046439Y+008349
X+045728Y+015138
X+043012Y+023445
X+044213Y+029941
X+042815Y+033366
X+049319Y+008349
X+048583Y+015157
X+043484Y+023406
X+044744Y+029980
X+043386Y+033307
X+047205Y+035669
X+050531Y+026870
X+045256Y+026142
X+032677Y+015571
X+035044Y+013723
X+045354Y+023819
X+052028Y+024370
X+057264Y+030551
X+053976Y+030787
X+015089Y+010410
X+010539Y+007536
X+009121Y+010410
X+012999Y+007536
X+015125Y+008406
X+023672Y+010593
X+047028Y+031909
X+021748Y+007536
X+017625Y+009031
X+019177Y+007584
X+022937Y+010348
X+020248Y+010844
X+011546Y+010831
X+014093Y+010285
X+023812Y+008344
X+023000Y+008844
X+022062Y+013781
X+020375Y+012969
X+024278Y+009622
X+013244Y+013897
X+014250Y+008785
X+015426Y+009562
X+011667Y+013423
X+022125Y+010844
X+019812Y+008719
X+021125Y+012594
X+019562Y+012531
X+019437Y+010594
X+013365Y+010714
X+011000Y+008561
X+010606Y+010380
X+010812Y+012281
X+012334Y+012775
X+027559Y+039331
X+048878Y+041949
X+049705Y+040591
X+049488Y+038819
X+049469Y+038012
X+050335Y+037126
X+047175Y+034518
X+043563Y+036161
X+015039Y+043366
X+018661Y+043327
X+026457Y+039685
X+014346Y+038917
X+016772Y+035709
X+028937Y+031719
X+032677Y+040984
X+035079Y+017851
X+030217Y+018445
X+035044Y+015097
X+028280Y+016170
X+027362Y+014311
X+027382Y+014882
X+031161Y+014016
X+016476Y+028799
X+032309Y+011684
X+027280Y+012695
X+031240Y+017028
X+032835Y+017028
X+033484Y+017854
X+033938Y+009562
X+027598Y+019626
X+034268Y+025693
X+025984Y+020276
X+048327Y+032008
X+047913Y+032303
X+044744Y+030846
X+042008Y+030650
X+047402Y+032283
X+045157Y+030472
X+042008Y+030138
X+027280Y+011593
X+027067Y+013867
X+029311Y+010987
X+027613Y+010229
X+026582Y+010229
X+030925Y+011437
X+027559Y+010807
X+026562Y+017344
X+029528Y+042087
X+025062Y+045719
X+053366Y+033445
X+053169Y+036594
X+053661Y+038996
X+051398Y+033622
X+051476Y+036516
X+038661Y+043406
X+050945Y+040551
X+058386Y+043701
X+052126Y+032008
X+048898Y+037500
X+045709Y+040472
X+046083Y+043386
X+044843Y+045256
X+042106Y+044685
X+043278Y+037244
X+046280Y+034862
X+049547Y+036555
X+049350Y+030177
X+052087Y+028681
X+045453Y+031732
X+045236Y+027028
X+049350Y+027028
X+054803Y+038720
X+035079Y+016476
X+039102Y+005530
X+045050Y+010446
X+047863Y+010452
X+043619Y+010452
X+037102Y+005409
X+042194Y+010452
X+053199Y+012987
X+053199Y+013633
X+053199Y+012351
X+038072Y+010532
X+038327Y+018346
X+022756Y+024528
X+053976Y+043937
X+052598Y+044606
X+047244Y+038937
X+047933Y+038839
X+051555Y+031850
X+061378Y+024390
X+033051Y+014705
X+040059Y+016870
X+039606Y+018307
X+042283Y+018976
X+044803Y+016398
X+047598Y+017697
X+039500Y+021969
X+044173Y+034429
X+048425Y+041398
X+050453Y+029232
X+036526Y+010452
X+046024Y+018819
X+052992Y+023445
X+057303Y+031201
X+052871Y+030492
X+039618Y+010452
X+046417Y+019252
X+053976Y+023425
X+056831Y+031555
X+053917Y+031555
X+046850Y+037008
X+035044Y+012367
X+046004Y+024311
X+051594Y+024882
X+056575Y+030433
X+053681Y+030354
X+061181Y+038858
X+058007Y+039956
X+056791Y+034980
X+057087Y+042854
X+057087Y+045118
X+040709Y+045886
X+046614Y+036496
X+014193Y+018622
X+021122Y+019665
X+032382Y+022244
X+039232Y+028110
X+043563Y+039154
X+042539Y+036535
X+039291Y+026358
X+032894Y+020709
X+044587Y+025650
X+051260Y+025374
X+043743Y+026164
X+051752Y+026260
X+032323Y+016594
X+028622Y+018386
X+028622Y+017028
X+045236Y+029921
X+046791Y+033031
X+051476Y+038169
X+050039Y+038701
X+043189Y+034252
X+048906Y+042815
X+042815Y+033858
X+050295Y+044311
X+043720Y+034685
X+047972Y+042106
X+043209Y+039843
X+039173Y+029409
X+031634Y+022953
X+021083Y+021240
X+012520Y+019094
X+042244Y+037539
X+039272Y+027520
X+032913Y+022028
X+032992Y+014173
X+032776Y+013740
X+052953Y+037638
X+052283Y+038307
X+033583Y+014685
X+040157Y+015098
X+040512Y+018425
X+044783Y+036083
X+052185Y+038898
X+044902Y+041969
X+039980Y+042028
X+032008Y+040374
X+044488Y+041398
X+040787Y+041398
X+031791Y+040886
X+055787Y+035354
X+055827Y+042874
X+055827Y+045118
X+040787Y+044409
X+025085Y+043469
X+054882Y+034980
X+056476Y+042854
X+056476Y+045138
X+040748Y+045098
X+029626Y+042835
X+027362Y+043406
X+034792Y+030906
X+052283Y+032500
X+050177Y+033524
X+047874Y+033425
X+044665Y+031457
X+042146Y+031161
X+037697Y+030295
X+052674Y+032854
X+050748Y+033583
X+047776Y+033957
X+044626Y+032028
X+042008Y+031673
X+036949Y+030787
X+035846Y+031949
X+047835Y+035551
T00
M30
