G04 DipTrace 3.2.0.1*
G04 687253_011_плата_USB.gbl*
%MOMM*%
G04 #@! TF.FileFunction,Copper,L2,Bot*
G04 #@! TF.Part,Single*
G04 #@! TA.AperFunction,Conductor*
%ADD13C,0.5*%
%ADD14C,0.3*%
%ADD15R,1.8X1.6*%
%ADD16R,1.2X1.6*%
G04 #@! TA.AperFunction,ComponentPad*
%ADD17C,1.5*%
%ADD18R,1.5X1.5*%
%ADD19R,1.6X1.6*%
%ADD20C,1.6*%
%ADD21C,3.3*%
%ADD22C,1.524*%
%ADD23R,1.524X1.524*%
%FSLAX35Y35*%
G04*
G71*
G90*
G75*
G01*
G04 Bottom*
%LPD*%
X5858000Y1864000D2*
D13*
Y2194563D1*
X5750110Y2302453D1*
X4641753D1*
X4499250Y2159950D1*
Y1877000D1*
X3358000Y1924500D2*
Y2037500D1*
X3480450Y2159950D1*
X4499250D1*
X5858000Y1610000D2*
D14*
Y1257750D1*
X5731123Y1130873D1*
X2197377D1*
X2070373Y1257877D1*
Y1956373D1*
X2245000Y2131000D1*
X3054627D1*
X3118123Y2067500D1*
Y1924500D1*
X3108000D1*
X3053000Y1321373D2*
D13*
X4484157D1*
X4499250Y1336467D1*
Y1597000D1*
Y1336467D2*
Y1321377D1*
X5486820D1*
X5604000Y1438553D1*
Y1610000D1*
X2908000Y1924500D2*
D14*
Y1857373D1*
X2911750Y1861123D1*
Y1829373D1*
X2991123Y1750000D1*
X3419877D1*
X3546877Y1877000D1*
X4150000D1*
X4307090Y1719910D1*
X4723287D1*
X5126940Y2123563D1*
X5531780D1*
X5615170Y2040173D1*
Y1940390D1*
X5604000Y1864000D1*
X6112000D2*
Y2178693D1*
X6302433Y2369123D1*
X10277877D1*
X10500000Y2147000D1*
Y1877000D1*
X6366000Y1610000D2*
X6896660D1*
X7006277Y1719617D1*
Y2131360D1*
X7134863Y2259947D1*
X9341323D1*
X9500000Y2101270D1*
Y1877000D1*
X10500000Y1623000D2*
X10103250D1*
Y1633123D1*
X9500000Y1623000D2*
X9182500D1*
Y1633123D1*
X5350000Y1610000D2*
X5471560Y1731560D1*
X6182130D1*
X6236813Y1676877D1*
Y1257783D1*
X6321323Y1173273D1*
X9182500D1*
X10034523D1*
X10103250Y1242000D1*
Y1353127D1*
X9182500D2*
Y1173273D1*
X2658000Y1924500D2*
D13*
Y1448250D1*
X2784877Y1321373D1*
X2753000D1*
D15*
X4499250Y1877000D3*
Y1597000D3*
D16*
X2753000Y1321373D3*
X3053000D3*
D15*
X10103250Y1353123D3*
Y1633123D3*
X9182500Y1353123D3*
Y1633123D3*
D17*
X10500000Y1877000D3*
D18*
Y1623000D3*
D17*
X9500000Y1877000D3*
D18*
Y1623000D3*
D19*
X2658000Y1924500D3*
D20*
X2908000D3*
X3108000D3*
X3358000D3*
D21*
X2351000Y1624500D3*
X3665000D3*
D22*
X6366000Y1864000D3*
Y1610000D3*
X6112000D3*
Y1864000D3*
X5858000Y1610000D3*
Y1864000D3*
X5604000Y1610000D3*
Y1864000D3*
X5350000D3*
D23*
Y1610000D3*
M02*
