M48
METRIC,0000.00
T01C0.889
T02C0.9
T03C0.965
T04C2.3
T05C3.2
%
T01
X+010500Y+001877
X+010500Y+001623
X+009500Y+001623
X+009500Y+001877
T02
X+002658Y+001925
X+002908Y+001925
X+003108Y+001925
X+003358Y+001925
T03
X+006366Y+001864
X+006366Y+001610
X+006112Y+001610
X+006112Y+001864
X+005858Y+001864
X+005858Y+001610
X+005604Y+001610
X+005604Y+001864
X+005350Y+001864
X+005350Y+001610
T04
X+002351Y+001625
X+003665Y+001625
T05
X+001500Y+001750
X+008500Y+001750
X+011600Y+001750
T00
M30
